<svg xmlns="http://www.w3.org/2000/svg" class="icon" viewBox="0 0 1024 1024">
    <path d="M597.33867 466.7803h401.06165A29.01297 29.01297 0 0 0 1024 436.914V29.8791A29.01297 29.01297 0 0 0 994.1337.0128H597.33868a29.01297 29.01297 0 0 0-29.01297 29.8663V436.914a29.01297 29.01297 0 0 0 29.01297 29.8663m24.74635-407.88824H963.4141v348.15565H622.08502zM426.67413.0128H29.02577A29.01297 29.01297 0 0 0 .0128 29.8791V436.914a29.01297 29.01297 0 0 0 29.01297 29.8663h397.64836a29.01297 29.01297 0 0 0 29.01297-29.8663V29.8791A29.01297 29.01297 0 0 0 426.67413.0128m-25.59968 407.03491H59.7454V58.89206h341.32906zm25.59968 150.1848H29.02577A29.01297 29.01297 0 0 0 .0128 587.09878v407.03492A29.01297 29.01297 0 0 0 29.02577 1024h397.64836a29.01297 29.01297 0 0 0 29.01297-29.8663V587.0988a29.01297 29.01297 0 0 0-29.01297-29.8663m-25.59968 407.88823H59.7454V616.96509h341.32906zm593.91258-206.50409H824.3225V587.95212a29.01297 29.01297 0 1 0-58.02595 0v170.66453H595.63202a29.8663 29.8663 0 0 0 0 58.87927h170.66453v170.66453a29.01297 29.01297 0 1 0 58.02595 0V817.49592h170.66453a29.8663 29.8663 0 0 0 0-58.87927"/>
</svg>
