<svg xmlns="http://www.w3.org/2000/svg" width="512" height="512" class="icon" viewBox="0 0 1024 1024">
    <defs>
        <style>
            @font-face{font-family:feedback-iconfont;src:url(//at.alicdn.com/t/font_1031158_u69w8yhxdu.woff2?t=1630033759944)format(&quot;woff2&quot;),url(//at.alicdn.com/t/font_1031158_u69w8yhxdu.woff?t=1630033759944)format(&quot;woff&quot;),url(//at.alicdn.com/t/font_1031158_u69w8yhxdu.ttf?t=1630033759944)format(&quot;truetype&quot;)}
        </style>
    </defs>
    <path d="M590.76923 571.07692h324.92308c15.75384 0 29.53846-13.78461 29.53846-29.53846v-59.07692c0-15.75385-13.78462-29.53846-29.53846-29.53846H590.76923c-11.81538 0-19.6923-7.87693-19.6923-19.69231V108.30769c0-15.75384-13.78462-29.53846-29.53847-29.53846h-59.07692c-15.75385 0-29.53846 13.78462-29.53846 29.53846v324.92308c0 11.81538-7.87693 19.6923-19.69231 19.6923H108.30769c-15.75384 0-29.53846 13.78462-29.53846 29.53847v59.07692c0 15.75385 13.78462 29.53846 29.53846 29.53846h324.92308c11.81538 0 19.6923 7.87693 19.6923 19.69231v324.92308c0 15.75384 13.78462 29.53846 29.53847 29.53846h59.07692c15.75385 0 29.53846-13.78462 29.53846-29.53846V590.76923c0-11.81538 7.87693-19.6923 19.69231-19.6923"/>
</svg>
