<svg xmlns="http://www.w3.org/2000/svg" width="1144" height="1024" class="icon" viewBox="0 0 1144 1024">
    <path d="M1080.01882 582.35482c-23.00988 129.50589-139.02305 227.93036-278.64847 227.93036h-471.4014c-140.16754 0-256.60236-99.26777-278.88942-229.61694A47.16424 47.16424 0 0 1 0 533.6847l-.06023-181.0673c0-26.02165 21.08235-47.16423 47.16423-47.16423.06023-152.03389 126.67482-275.33553 282.86494-275.33553h471.40141c156.25036 0 282.86494 123.30164 282.86494 275.33553v6.62588a47.16424 47.16424 0 0 1 60.2353 45.29694v181.0673a47.16424 47.16424 0 0 1-64.45177 43.91152M330.02918 144.86588c-91.136 0-164.98447 71.92094-164.98447 160.5873v229.49647c0 88.72659 73.84847 160.64753 165.0447 160.64753H801.4306c91.136 0 165.0447-71.92094 165.0447-160.64753V305.45318c0-88.66636-73.9087-160.5873-165.0447-160.5873H329.96894zm70.656 114.74824c39.0927 0 70.71623 31.62353 70.71623 70.656v122.81976a70.71624 70.71624 0 0 1-141.43247 0V330.27012c0-39.03247 31.68377-70.656 70.71624-70.656m329.96894 0c39.0927 0 70.71623 31.62353 70.71623 70.656v122.81976a70.71624 70.71624 0 1 1-141.37223 0V330.27012c0-39.03247 31.62353-70.656 70.656-70.656M420.50259 993.88235a137.6979 137.6979 0 0 1-137.63765-137.69788H848.5346A137.6979 137.6979 0 0 1 710.8367 993.88235z"/>
</svg>
