<?xml version="1.0" standalone="no"?><!DOCTYPE svg PUBLIC "-//W3C//DTD SVG 1.1//EN"
  "http://www.w3.org/Graphics/SVG/1.1/DTD/svg11.dtd">
<svg class="icon" viewBox="0 0 1024 1024" version="1.1" xmlns="http://www.w3.org/2000/svg" p-id="6421"
     xmlns:xlink="http://www.w3.org/1999/xlink" width="512" height="512">
  <path
    d="M431.93 911.91c-4.58-0.01-9.14-0.59-13.57-1.72a81.373 81.373 0 0 1-36.69-21.68L135.5 642.31c-26.15-26.15-31.14-60.64-11.62-80.21l438.67-438.5c10.34-10.5 25.47-14.25 41.8-10.66l223.57 16.77 2.11 0.56a85.823 85.823 0 0 1 57.21 56.29l0.6 2.08 22.6 229.91c3.99 16.85 0.48 32.5-10.18 43.11L461.87 900.09a41.5 41.5 0 0 1-29.94 11.82zM160.17 593.57a33.185 33.185 0 0 0 9.18 14.85l246.05 246.2c4.04 4.33 9.17 7.5 14.85 9.18l433.76-433.6c0-0.24 0-0.56-0.2-0.88l-0.6-2.08-22.71-229.27a40.45 40.45 0 0 0-21.08-20.88L596.69 160.4l-2.11-0.56h-0.56L160.17 593.57z m465.74-90.71c-53.32 0-99.22-37.67-109.63-89.97-10.4-52.3 17.58-104.67 66.84-125.08 49.26-20.41 106.08-3.19 135.72 41.14s23.84 103.42-13.85 141.14a111.07 111.07 0 0 1-79.08 32.77z m0-175.66c-30.47 0.03-56.67 21.56-62.6 51.45-5.93 29.88 10.08 59.8 38.22 71.45 28.15 11.65 60.61 1.8 77.54-23.53s13.61-59.09-7.93-80.64a63.537 63.537 0 0 0-45.23-18.73z"
    ></path>
</svg>
