<svg xmlns="http://www.w3.org/2000/svg" width="512" height="512" class="icon" viewBox="0 0 1024 1024">
    <path d="M431.93 911.91c-4.58-.01-9.14-.59-13.57-1.72a81.373 81.373 0 0 1-36.69-21.68L135.5 642.31c-26.15-26.15-31.14-60.64-11.62-80.21l438.67-438.5c10.34-10.5 25.47-14.25 41.8-10.66l223.57 16.77 2.11.56a85.823 85.823 0 0 1 57.21 56.29l.6 2.08 22.6 229.91c3.99 16.85.48 32.5-10.18 43.11L461.87 900.09a41.5 41.5 0 0 1-29.94 11.82M160.17 593.57a33.185 33.185 0 0 0 9.18 14.85l246.05 246.2c4.04 4.33 9.17 7.5 14.85 9.18l433.76-433.6c0-.24 0-.56-.2-.88l-.6-2.08-22.71-229.27a40.45 40.45 0 0 0-21.08-20.88L596.69 160.4l-2.11-.56h-.56zm465.74-90.71c-53.32 0-99.22-37.67-109.63-89.97-10.4-52.3 17.58-104.67 66.84-125.08s106.08-3.19 135.72 41.14 23.84 103.42-13.85 141.14a111.07 111.07 0 0 1-79.08 32.77m0-175.66c-30.47.03-56.67 21.56-62.6 51.45-5.93 29.88 10.08 59.8 38.22 71.45 28.15 11.65 60.61 1.8 77.54-23.53s13.61-59.09-7.93-80.64a63.537 63.537 0 0 0-45.23-18.73"/>
</svg>
