<svg xmlns="http://www.w3.org/2000/svg" class="icon" viewBox="0 0 1024 1024">
    <path d="M961.8 250.8c16.6 0 30-13.4 30-30V62.4c0-16.6-13.4-30-30-30H803.4c-16.6 0-30 13.4-30 30v49.2H676c-3-.4-6.2-.4-9.2 0h-416V62.4c0-16.6-13.4-30-30-30H62.2c-16.6 0-30 13.4-30 30v158.4c0 16.6 13.4 30 30 30h49.2v522.6H62.2c-16.6 0-30 13.4-30 30v158.4c0 16.6 13.4 30 30 30h158.4c16.6 0 30-13.4 30-30v-49.2h522.6v49.2c0 16.6 13.4 30 30 30h158.4c16.6 0 30-13.4 30-30V803.4c0-16.6-13.4-30-30-30h-49.2V250.8zM833.2 92.2h98.4v98.4h-98.4zM171.4 461.4c1.8-1.2 3.4-2.4 5-4l286-286h136.2L171.4 598.6zM92.2 92.2h98.4v98.6H92.2zm128.6 158.6c16.6 0 30-13.4 30-30v-49.2h126.8l-206.2 206v-127h49.4zm-49.4 432.6 512-512h89.8v36.8l-565 565.2h-36.8zM92.2 931.8v-98.4h98.4V932zm760.4-373.6L565.4 845.4q-3.3 3.3-5.4 7.2H423.6l428.8-428.8v134.4zm79.2 373.6h-98.4v-98.4h98.4zM803.2 773.4c-16.6 0-30 13.4-30 30v49.2H643l209.4-209.4v130.2zm49.4-434.6L338.8 852.4h-88.2v-37l564.8-564.8h36.8v88.2z"/>
</svg>
