<svg xmlns="http://www.w3.org/2000/svg" width="1024" height="1024" class="icon" viewBox="0 0 1024 1024">
    <path d="M816.464 479.694H272.756l162.373-174.49c12.098-12.999 11.391-33.351-1.639-45.463-13.014-12.114-33.366-11.376-45.481 1.639L175.92 489.298c-11.454 12.324-11.471 31.387-.065 43.775l212.089 229.253c12.066 13.05 32.433 13.835 45.481 1.769 6.853-6.355 10.327-14.978 10.327-23.634 0-7.821-2.832-15.654-8.558-21.847L273.703 544.059h542.759c17.763 0 32.174-14.415 32.174-32.174s-14.415-32.191-32.174-32.191z"/>
</svg>
