<svg xmlns="http://www.w3.org/2000/svg" width="1024" height="1024" class="icon" viewBox="0 0 1024 1024">
    <path d="M831.999 1024H192.001c-77.69976-.1-140.69956-63.0998-140.79957-140.79956V140.80275C51.30143 63.103 114.30123.1032 192.001.0032h516.29839c23.59992-.2 46.39985 8.99997 63.1998 25.59992l189.69941 189.6994c7.49998 7.29999 11.69996 17.39995 11.49996 27.89992v639.998c0 77.69977-62.9998 140.69957-140.69956 140.79957M192.001 76.80295c-35.2999 0-63.9998 28.69991-63.9998 63.9998v742.39769c0 35.29989 28.6999 63.9998 63.9998 63.9998h639.998c35.2999 0 63.9998-28.69991 63.9998-63.9998V259.10238L716.79936 79.90294c-2.4-2-5.39998-3.09999-8.39997-3.09999z"/>
    <path d="M198.40098 399.10195h69.89978c46.29986 0 79.89975 14.79995 79.89975 55.59982.6 21.39994-12.29996 40.99987-32.2999 48.89985v1.5c26.69992 3.39999 46.09986 26.89991 44.49986 53.79983 0 44.79986-36.59988 66.2998-86.49973 66.2998h-76.79976zm65.9998 94.1997c34.29988 0 48.89984-12.79996 48.89984-33.9999s-15.89995-32.49989-47.89985-32.49989h-31.1999v66.5998zm5.69997 103.69968c35.2999 0 55.59983-12.49996 55.59983-40.19988 0-27.5999-19.69994-36.59988-55.59983-36.59988h-35.79989v76.79976zm121.09963-84.99974c0-72.69977 40.19987-116.49963 98.29969-116.49963s99.2997 42.99986 99.2997 116.49963-40.39988 117.99964-98.5997 117.99964-98.9997-46.09986-98.9997-117.99963m160.1995 0c0-53.19983-25.59992-85.19973-61.99981-85.19973s-61.6998 31.4999-61.6998 85.19973c0 53.79984 24.29992 86.79973 61.6998 86.79973s61.9998-35.59988 61.9998-86.79973m83.69974-112.89964h40.99987l40.69987 114.19964c5.09999 15.09995 9.69997 30.4999 15.09996 45.79986h1.49999c5.09998-15.39995 9.49997-30.6999 14.79995-45.79986l40.99988-114.19964H830.399v225.9993h-32.9999V513.30158c0-20.19994 2.8-49.39984 4.59999-70.09978l-18.19995 51.19984-41.49987 109.09966h-21.99993l-39.69987-107.79966-17.89995-51.19984c1.5 20.49993 4.39999 49.69984 4.39999 70.09978v111.89965h-31.9999z"/>
</svg>
