<svg xmlns="http://www.w3.org/2000/svg" width="512" height="512" class="icon" viewBox="0 0 1024 1024">
    <path fill="#455a64" d="M488.8576 111.424c-34.7136 0-69.4144 16.064-110.016 40.128-13.312 7.8592-27.072 16.3328-41.6512 25.344-26.496 16.32-56.2176 34.944-90.9184 53.4528C126.528 295.0016 55.0144 402.944 55.0144 518.656c0 84.5312 37.888 162.0736 100.7104 222.4l40.0768 40.0896c79.6032 79.9488 202.112 131.456 339.328 131.456 239.2448 0 433.8432-155.968 433.8432-347.0848 0-81.664-35.1616-159.0784-97.2928-219.9296a136.5 136.5 0 0 0-5.7856-5.7856c-1.9712-1.8432-3.8144-3.9296-5.7856-5.7856-1.9712-1.8432-3.8144-3.9296-5.7856-5.7856-1.9712-1.8432-3.8144-3.9296-5.7856-5.7728-1.9584-1.856-3.8144-3.9424-5.7856-5.7856-1.9584-1.856-3.8144-3.9424-5.7856-5.7856-1.6384-1.5488-3.2128-3.2384-4.8256-4.8384-27.9552-28.9792-61.696-54.656-100.672-75.6992-42.8032-23.0272-75.3152-43.136-104.1152-60.9664a866.3 866.3 0 0 0-35.52-21.632c-37.952-22.4512-68.2752-36.3264-102.976-36.3264m0 28.928c27.9936 0 53.568 11.5456 88.6144 32.3712 10.5344 6.3616 22.1056 13.5296 34.7136 21.2864 27.648 17.1136 61.7856 38.8864 105.5232 62.0288 110.2592 59.3408 176.064 157.568 176.064 262.6048 0 175.7312-181.632 318.72-404.9152 318.72S83.9424 694.3872 83.9424 518.656c0-105.0496 65.8432-203.2768 175.9744-262.8608 34.7008-18.8672 65.6-37.7088 92.544-54.3744 14.3488-8.7936 27.8784-17.2416 40.96-24.8704 37.5936-21.76 67.4432-36.1984 95.4368-36.1984m369.28 195.6864a306.1 306.1 0 0 1 9.2928 12.8768c-3.0208-4.3264-6.0416-8.6528-9.2928-12.8768m27.1104 41.28a306.1 306.1 0 0 1 4.3648 8.2944c-1.4336-2.7776-2.8416-5.5424-4.352-8.2944zM186.1504 767.36l2.624 2.0224zm34.5472 24.2688c.9344.5888 1.8304 1.1904 2.7648 1.7664-.9344-.576-1.8304-1.1776-2.752-1.7664zm19.2128 11.5072 1.664.9472zm82.6496 36.5824c1.2416.4096 2.496.768 3.7376 1.1776-1.2416-.4096-2.496-.768-3.7376-1.1776m21.312 6.5536 5.5808 1.5104c-1.856-.512-3.7248-.9856-5.5808-1.5104m89.0368 17.0368c2.9696.3072 5.9264.6656 8.9216.9216-2.9952-.256-5.952-.6144-8.9216-.9216m24.0128 1.9584c2.7648.1664 5.504.384 8.2944.512-2.7776-.128-5.5296-.3456-8.2944-.512"/>
    <path fill="#eee" d="M893.7856 518.6432c0 175.9616-181.2864 318.6176-404.9152 318.6176S83.9552 694.6176 83.9552 518.6432c0-109.0944 69.4144-205.4656 176.0768-262.6176s173.0688-115.6864 228.8384-115.6864c55.7568 0 103.424 47.7824 228.8384 115.6864 106.6624 57.152 176.0768 153.5232 176.0768 262.6176"/>
    <path fill="#eee" d="M893.7856 518.6432a250.7 250.7 0 0 0-9.2544-66.8672c-31.5904 385.2544-501.5168 403.7632-686.2848 288.5376a462.7712 462.7712 0 0 0 290.6112 96.9472c223.2832 0 404.9152-142.8736 404.9152-318.6176z"/>
    <path fill="#fafafa" d="M333.0304 234.8544c51.712-31.0016 120.4352-89.2032 187.9936-89.3184a107.482 107.482 0 0 0-32.1664-5.1968c-27.9936 0-57.8432 14.464-95.4368 36.2112-13.0816 7.6288-26.624 16.0768-40.96 24.8704-26.9568 16.6528-57.856 35.52-92.544 54.3744C149.76 315.3792 83.9296 413.5936 83.9296 518.6432v13.7728c70.1184-247.6928 197.504-266.5472 249.088-297.5616z"/>
    <path fill="#aaa" d="M455.552 169.6a189.8496 189.8496 0 0 1-65.1392 144.2688c-3.2384 2.8928-.6912 8.448 3.4816 6.8224 38.976-15.1552 91.6224-60.5056 69.4144-152.0128-.9344-5.1968-7.7568-3.8144-7.7568.9344zm26.2656 0a187.8784 187.8784 0 0 1 18.624 155.84c-1.3952 4.0448 3.584 7.5264 6.3616 4.16 25.344-32.384 47.4368-96.7168-18.7392-166.1312-3.3536-3.008-8.5632 1.6256-6.2464 5.6704zm31.9232-1.9712a189.9648 189.9648 0 0 1 79.2576 136.064 3.8144 3.8144 0 0 0 7.5136 1.2672c10.6496-40.384 4.6336-109.2096-82.944-144.96-4.6336-1.856-7.6416 4.3904-3.8272 7.168zm-213.568 120.32a195.9808 195.9808 0 0 0 121.1264-104.1152c2.0864-4.1728 8.6784-2.56 7.6416 2.0736-20.0192 92.5568-87.0016 111.872-128.6528 109.3376-4.3904.1152-4.2752-6.016-.1152-7.296"/>
    <path fill="#333" d="M570.432 603.0976a103.3088 103.3088 0 0 1-33.792 54.4896 78.784 78.784 0 0 1-46.272 21.76 79.1296 79.1296 0 0 1-47.7824-21.76 103.3088 103.3088 0 0 1-33.3184-54.4896 8.32 8.32 0 0 1 9.2544-9.3696h142.7712a8.32 8.32 0 0 1 9.1392 9.3696"/>
    <path fill="#333" d="M442.5856 658.5216a79.936 79.936 0 0 0 47.6672 21.9776 79.936 79.936 0 0 0 47.552-21.9776 122.98 122.98 0 0 0 11.5584-12.3776 79.0144 79.0144 0 0 0-56.6784-26.7264 71.1552 71.1552 0 0 0-57.856 32.1664c2.6624 2.432 4.992 4.736 7.7568 6.9376"/>
    <path fill="#455a64" d="M444.4416 649.3824a62.016 62.016 0 0 1 48.4736-24.064A69.4144 69.4144 0 0 1 539.2 644.864c2.6496-2.88 5.1968-5.888 7.6288-8.896a80.9856 80.9856 0 0 0-54.4896-22.336 73.5744 73.5744 0 0 0-56.576 27.3024 110.26 110.26 0 0 0 8.6784 8.448"/>
    <path fill="#455a64" d="M489.9072 686.2848a85.8496 85.8496 0 0 1-51.4816-23.1424 110.1312 110.1312 0 0 1-35.9808-58.4192 13.888 13.888 0 0 1 3.008-11.5712 16.3072 16.3072 0 0 1 13.0688-5.888H561.28a16.6656 16.6656 0 0 1 13.0816 5.888 13.7728 13.7728 0 0 1 2.8928 11.5712 110.1312 110.1312 0 0 1-35.9808 58.4192 85.8496 85.8496 0 0 1-51.3664 23.1424m-71.3856-85.6064c-1.8432 0-2.304.8064-2.432 1.0368a95.9104 95.9104 0 0 0 31.5904 50.56 72.064 72.064 0 0 0 42.2272 20.2368 72.6528 72.6528 0 0 0 42.2272-20.0064 96.0256 96.0256 0 0 0 31.4624-50.56 2.432 2.432 0 0 0-2.304-1.0368z"/>
    <path fill="#ddd" d="M597.2736 570.4704a67.6736 39.7952 0 1 0 135.3472 0 67.6736 39.7952 0 1 0-135.3472 0M247.0784 570.4704a67.6736 39.7952 0 1 0 135.3472 0 67.6736 39.7952 0 1 0-135.3472 0"/>
    <path fill="#455a64" d="M346.5728 554.5088a63.744 63.744 0 1 0-63.6288-63.744 63.744 63.744 0 0 0 63.6288 63.744m286.5664 0a63.744 63.744 0 1 0-63.2832-63.744 63.6288 63.6288 0 0 0 63.2832 63.744"/>
    <path fill="#fff" d="M326.8992 494.8096a23.936 23.936 0 1 0-23.8336-23.936 23.936 23.936 0 0 0 23.8336 23.936m286.5664 0a23.936 23.936 0 1 0-23.8336-23.936 23.936 23.936 0 0 0 23.6032 23.936z"/>
</svg>
