<svg xmlns="http://www.w3.org/2000/svg" width="512" height="512" class="icon" viewBox="0 0 1024 1024">
    <path d="M473.344 20.05333c-35.92533 0-72.36267 3.92534-108.88533 12.288A485.12 485.12 0 0 0 156.672 135.72267a453.632 453.632 0 0 0-100.69333 120.576 432.299 432.299 0 0 0-42.96534 109.86666c-16.98133 69.12-17.06666 142.336-1.83466 215.38134 3.62666 17.28 7.808 34.51733 13.22666 51.712a505.6 505.6 0 0 0 70.912 159.104 139.65 139.65 0 0 0-3.66933 18.21866 141.78133 141.78133 0 0 0 121.51467 158.29334 139.904 139.904 0 0 0 83.072-14.76267c44.58666 21.76 92.58666 36.864 142.464 44.37333a497.493 497.493 0 0 0 182.82666-6.61333A493.483 493.483 0 0 0 832.128 885.84533 454.101 454.101 0 0 0 932.48 762.368a476.331 476.331 0 0 0 57.856-188.75733 478.464 478.464 0 0 0-21.248-184.96c7.46667-3.28534 14.42133-7.46667 20.736-12.50134a19 19 0 0 0 .04267 0c17.152-13.73866 29.568-33.87733 33.152-57.25866A91.56267 91.56267 0 0 0 946.64533 215.04a90.24 90.24 0 0 0-51.41333 7.296c-1.62133-1.83467-3.328-3.66933-4.82133-5.54667A498.901 498.901 0 0 0 742.10133 91.776a569.515 569.515 0 0 0-75.09333-34.56 578.133 578.133 0 0 0-87.89333-26.15467 517.163 517.163 0 0 0-105.81334-11.008zM503.808 34.048a416.43 416.43 0 0 1 43.86133 1.792A422.059 422.059 0 0 1 664.704 63.104c41.984 16.64 80.64 40.87467 115.49867 69.632a461.227 461.227 0 0 1 89.216 99.328c1.10933 1.664 2.048 3.41333 2.98666 5.12a90.4533 90.4533 0 0 0-18.56 112.896c-6.74133 4.864-41.38666 29.52533-69.71733 50.47467C766.464 413.696 752.85333 424.32 752.85333 424.32l24.78934 29.01333s12.62933-11.776 28.37333-27.22133c24.40533-23.97867 52.43733-52.608 59.52-59.86133a90.5387 90.5387 0 0 0 81.36533 28.88533 479.104 479.104 0 0 1-.55466 172.62933 486.827 486.827 0 0 1-62.93334 166.272 526.635 526.635 0 0 1-88.704 110.37867c-50.77333 48-112.34133 86.272-183.72266 107.98933A461.909 461.909 0 0 1 441.472 973.056a471.04 471.04 0 0 1-130.432-27.81867A140.9707 140.9707 0 0 0 371.49867 847.36a139.7333 139.7333 0 0 0-12.544-78.592c7.68-6.912 17.19466-15.488 27.98933-25.6 43.30667-40.74667 100.39467-98.26133 100.39467-98.26133l-20.05334-25.55734s-69.54666 41.472-119.50933 73.728c-13.09867 8.448-24.448 16.128-33.152 22.05867a139.648 139.648 0 0 0-64.68267-26.06933 141.9947 141.9947 0 0 0-148.77866 86.05866 440.45 440.45 0 0 1-29.65334-45.99466 465.92 465.92 0 0 1-40.448-97.664 441.6 441.6 0 0 1-8.53333-51.712c-6.99733-70.528 4.39467-139.008 26.83733-202.83734A552.533 552.533 0 0 1 95.744 279.296c24.32-41.30133 53.248-79.872 88.27733-113.32267A469.888 469.888 0 0 1 503.808 34.00533zm-6.272 138.96533A163.75467 163.75467 0 0 0 334.54933 336v100.69333h-40.10666c-32.04267 0-58.752 26.66667-58.752 58.752v162.13334H297.984V498.944h399.104v267.264H427.52v62.29333h273.06667c32.04266 0 58.752-26.66666 58.752-58.752V495.40267a59.30667 59.30667 0 0 0-58.752-58.752H660.48V335.95733a163.75467 163.75467 0 0 0-162.98667-162.944zm0 62.29334A101.16267 101.16267 0 0 1 598.22933 336v100.69333H396.8V336a101.20533 101.20533 0 0 1 100.69333-100.69333zM930.21867 252.032a53.46133 53.46133 0 0 1 55.296 61.184 52.9067 52.9067 0 0 1-19.328 33.28c-11.34934 9.088-26.02667 13.568-41.30134 11.264a53.46133 53.46133 0 0 1-44.58666-60.58667 53.5467 53.5467 0 0 1 49.92-45.14133M229.71733 743.46667a86.1867 86.1867 0 0 1 81.792 55.38133c4.94934 12.8 6.784 26.79467 4.864 41.25867a85.97333 85.97333 0 0 1-95.95733 73.728 86.016 86.016 0 0 1-73.68533-96 86.0587 86.0587 0 0 1 82.98666-74.368"/>
</svg>
