<svg xmlns="http://www.w3.org/2000/svg" width="28" height="28" fill="none" viewBox="0 0 28 28">
    <path fill="currentColor" d="M9.10999 27c-.18 0-.34998-.04-.50998-.1-.17-.07-.31001-.16-.44001-.29-.13-.12-.22-.2601-.29-.4201-.07001-.16-.10999-.33-.10999-.5l-.03-2.6499c-.39-.06-.78-.1601-1.16-.2801-.38-.13-.74-.2799-1.09-.4699q-.52501-.285-.99002-.66c-.31-.24-.59999-.5101-.85999-.81-.26-.3-.49001-.61-.70001-.95q-.29999-.51-.50998-1.05c-.14-.37-.25-.75-.32-1.13C2.03001 17.3 2 16.92 2 16.53V9.46995c0-.43.04-.85.12-1.27.09-.42.22-.83.38-1.23.17-.39.38-.77.62-1.12.24-.36.52001-.69.83001-.99s.64998-.57 1.00998-.81c.37-.24.75-.44 1.15-.6.41-.17.83001-.29 1.26001-.37.42999-.09.86001-.13 1.30001-.13H13.3c.16 0 .31.03.46.09.14.06.27.14.38.25s.19.23.25.37.09.29.09.44c0 .16-.03.3-.09.45-.06.14-.14.26-.25.37s-.24.19-.38.25c-.15.06-.3.09-.46.09H8.67001c-.29 0-.57002.02-.84002.08q-.42.075-.81.24-.39.15-.75.39c-.23.15-.44999.33-.64999.52-.2.2-.38001.41-.54001.64-.15.23-.29.47-.4.73-.1.25-.18999.52-.23999.79-.06.27-.08001.54-.08001.82V16.53c0 .28.02001.55.08001.83.06.27.14.54.25.8s.24.51.4.74.34001.4499.55001.6499c.2.2001.41998.3701.65998.5301s.49001.29.76001.39c.26.11.54.19.82.25.28001.05.56001.0799.85001.0799.18 0 .34999.0301.51999.1001.16.07.30999.1599.42999.28.13.1299.23002.27.30002.43.06999.16.09999.33.10999.5l.01 1.63 2.98-2.13c.76-.54 1.61-.8101 2.55-.8101h3.69c.29 0 .57-.0299.84-.0799.28-.05.55-.13.81-.2401.26-.11.51-.2399.75-.3899.23-.15.45-.33.65-.52.2-.2001.38-.41.54-.64s.29-.47.4-.73c.1-.25.19-.52.24-.79.06-.27.08-.54.08-.82v-3.65c0-.15.03-.3.09-.44s.15-.27.26-.37c.11-.11.24-.2.38-.25.15-.06.3-.09.46-.09q.225 0 .45.09c.14.05.27.14.38.25.11.1.2.23.26.37s.09.29.09.44v3.65c0 .43-.05.85-.13 1.27-.09.42-.21.83-.38 1.22-.17.4-.38.7699-.62 1.1299-.24.3601-.52.6901-.83.9901s-.65.5699-1.01.8099-.75.4401-1.15.6001c-.41.16-.82.29-1.25.3699-.43.0901-.87.1301-1.31.1301H16.4c-.93 0-1.78.2699-2.54.8099L9.91 26.74c-.24.17-.51001.26-.80001.26"/>
    <path fill="currentColor" d="M24.6805 5.14453h-6.4931c-.6369 0-1.1532.51633-1.1532 1.15325s.5163 1.15324 1.1532 1.15324h6.4931c.637 0 1.1533-.51632 1.1533-1.15324s-.5163-1.15325-1.1533-1.15325"/>
    <path fill="currentColor" d="M22.6137 3.1804c0-.65192-.5285-1.1804-1.1804-1.1804s-1.1804.52848-1.1804 1.1804v6.2364c0 .6519.5285 1.1804 1.1804 1.1804s1.1804-.5285 1.1804-1.1804z"/>
</svg>
