<svg xmlns="http://www.w3.org/2000/svg" viewBox="0 0 2264 1024">
    <path d="M1557.44102 969.02323c13.92992-47.8327 8.56137-91.5594-14.64632-124.109-21.1558-29.84983-57.03088-47.0544-100.12078-49.1063l-816.96575-10.61327h-.2211a14.7724 14.7724 0 0 1-12.3114-6.65098l-.07076-.07076a18.1487 18.1487 0 0 1-1.99-14.64632 22.593 22.593 0 0 1 19.17466-14.71708l824.18277-10.61327c97.64435-4.59909 203.78153-83.63482 240.928-180.50308l47.07209-122.77128a25.6244 25.6244 0 0 0 1.4151-15.84915A535.9992 535.9992 0 0 0 1220.28157.0002c-236.25815 0-436.64343 152.62333-508.24988 364.32943A241.33262 241.33262 0 0 0 327.1125 532.87288a252.375 252.375 0 0 0 6.0142 84.34237A342.8088 342.8088 0 0 0-.00193 960.32035a420.46 420.46 0 0 0 3.31665 49.74973A16.4904 16.4904 0 0 0 19.23463 1024H1527.0163a20.5875 20.5875 0 0 0 19.17465-14.64632zm260.02525-524.87734a159.74 159.74 0 0 0-22.50014 1.06133 13.3307 13.3307 0 0 0-11.95763 9.19817l-31.83982 110.80702c-13.92993 47.8327-8.62329 91.5594 14.57556 124.17975 21.29731 29.84984 57.10164 46.98364 100.2623 49.03555l173.92063 10.68403a14.4694 14.4694 0 0 1 12.52366 6.65098 19.1393 19.1393 0 0 1 2.0519 14.71708 22.593 22.593 0 0 1-19.23656 14.64632l-181.21063 10.61327c-98.21039 4.59909-203.64223 83.63483-240.85724 180.57384l-13.23121 33.82981a9.61607 9.61607 0 0 0 9.26892 13.37273h622.45315a16.28696 16.28696 0 0 0 15.91991-11.88687 453.737 453.737 0 0 0 16.5545-120.79234c0-245.52708-200.45603-445.9787-446.69066-445.9787z"/>
</svg>
