<svg xmlns="http://www.w3.org/2000/svg" class="icon" viewBox="0 0 1024 1024">
    <path d="M217.54765 5.84861H75.0085A71.67917 71.67917 0 0 0 3.32933 77.52778V946.6889a71.67917 71.67917 0 0 0 71.67917 71.67917h142.53915a71.67917 71.67917 0 0 0 71.67917-71.67917V77.32298a71.67917 71.67917 0 0 0-71.67917-71.47437m-6.39993 77.8743v116.93944a9.73 9.73 0 0 0-1.27998 0H81.35723V83.72291zM81.35722 940.34017V278.38305h128.66411a9.73 9.73 0 0 0 1.28 0v661.95712zm938.43392-21.35015L883.80552 60.32478A71.67917 71.67917 0 0 0 801.88647.88227L661.0881 23.2052a70.9624 70.9624 0 0 0-46.59146 28.62047 68.3 68.3 0 0 0-5.63193 9.21589 71.6792 71.6792 0 0 0-69.4264-55.19296H396.89917A71.67917 71.67917 0 0 0 325.22 77.52778V946.6889a71.67917 71.67917 0 0 0 71.67917 71.67917H539.4383a71.67917 71.67917 0 0 0 71.67917-71.67917V162.6724l126.87213 801.0147A71.6792 71.6792 0 0 0 808.2864 1024a77.106 77.106 0 0 0 11.31506-.87039l140.79837-22.32294a71.67917 71.67917 0 0 0 59.39131-81.81665M533.0384 83.7229v116.93944h-129.7905V83.72291zm-129.7905 856.61726V278.38305h129.7905v661.95712zM807.7232 78.80777 826.155 194.56961a11.73 11.73 0 0 0-1.27999 0L697.95167 214.4862 679.6735 99.13393zm5.83673 866.39634L710.13713 291.3877l126.92333-20.01897a11.93 11.93 0 0 0 1.27999-.3584l103.8324 653.86762z"/>
</svg>
