<svg xmlns="http://www.w3.org/2000/svg" width="256" height="256" class="icon" viewBox="0 0 1024 1024">
    <path d="M.00034 290.85013V948.6336c0 20.00213 7.64587 39.18507 21.2992 53.3504C34.91874 1016.08107 53.38487 1024 72.63608 1024h878.76266c40.10667 0 72.6016-33.75787 72.6016-75.40053V290.85013zm349.9008 503.12534c9.76213 9.8304 13.68747 24.33706 10.24 37.95626a38.3659 38.3659 0 0 1-26.8288 27.8528 36.7616 36.7616 0 0 1-36.5568-10.68373L144.72568 691.13173a42.87147 42.87147 0 0 1 0-57.1392l152.1664-157.93493a36.5909 36.5909 0 0 1 36.9664-11.5712c13.44853 3.51573 23.92746 14.37013 27.27253 28.3648 3.3792 13.9264-.95573 28.74027-11.264 38.33173L223.33474 662.528zM613.41048 485.376l-99.0208 375.1936c-5.59787 20.65067-26.18027 32.73387-46.08 27.10187-19.93387-5.70027-31.744-26.96534-26.38507-47.68427l99.0208-375.296c2.62827-10.0352 9.0112-18.46613 17.68107-23.58613a36.5227 36.5227 0 0 1 28.53546-3.72054c9.59147 2.7648 17.78347 9.3184 22.7328 18.3296 4.9152 9.0112 6.17813 19.62667 3.54987 29.5936v.06827zM879.6846 691.26827 727.58648 849.13493c-14.7456 14.77974-38.1952 14.5408-52.66774-.54613s-14.67733-39.38987-.4096-54.71573L801.04141 662.528 674.50914 531.18293c-14.67733-15.22346-14.67733-39.90186.03414-55.12533s38.46826-15.22347 53.17973 0l152.09813 157.93493a42.66667 42.66667 0 0 1 0 57.1392zm144.31573-500.90667V75.40053c0-20.00213-7.64587-39.15093-21.26507-53.3504A71.2704 71.2704 0 0 0 951.43287 0H72.63608C53.35075 0 34.88462 7.8848 21.26542 22.05013A77.0048 77.0048 0 0 0 .00034 75.40053V190.3616z"/>
</svg>
