<svg xmlns="http://www.w3.org/2000/svg" width="512" height="512" class="icon" viewBox="0 0 1024 1024">
    <defs>
        <style>
            @font-face{font-family:feedback-iconfont;src:url(//at.alicdn.com/t/font_1031158_u69w8yhxdu.woff2?t=1630033759944)format(&quot;woff2&quot;),url(//at.alicdn.com/t/font_1031158_u69w8yhxdu.woff?t=1630033759944)format(&quot;woff&quot;),url(//at.alicdn.com/t/font_1031158_u69w8yhxdu.ttf?t=1630033759944)format(&quot;truetype&quot;)}
        </style>
    </defs>
    <path d="M766.63808 803.90144a28.20096 28.20096 0 0 0-28.19584 28.19584 35.9168 35.9168 0 0 1-35.87584 35.87584H203.05408a35.9168 35.9168 0 0 1-35.87584-35.87584V199.53152a35.9168 35.9168 0 0 1 35.87584-35.87584H702.5664a35.9168 35.9168 0 0 1 35.87584 35.87584V336.0256a28.20096 28.20096 0 0 0 56.39168 0V199.53152c0-50.87744-41.3952-92.26752-92.26752-92.26752H203.05408c-50.87744 0-92.26752 41.39008-92.26752 92.26752v632.56064c0 50.87744 41.3952 92.26752 92.26752 92.26752H702.5664c50.87744 0 92.26752-41.39008 92.26752-92.26752a28.1907 28.1907 0 0 0-28.19584-28.19072"/>
    <path d="M606.45376 336.0256a28.20096 28.20096 0 0 0-28.19584-28.19584H261.57056a28.20096 28.20096 0 0 0 0 56.39168h316.69248a28.19584 28.19584 0 0 0 28.19072-28.19584M559.4624 467.26144a28.20096 28.20096 0 0 0-28.19584-28.19584h-269.696a28.20096 28.20096 0 0 0 0 56.39168h269.70112a28.19584 28.19584 0 0 0 28.19072-28.19584M493.26592 598.5024a28.20096 28.20096 0 0 0-28.19584-28.19584H261.57056a28.20096 28.20096 0 0 0 0 56.39168h203.49952a28.20096 28.20096 0 0 0 28.19584-28.19584m-231.69536 103.04a28.20096 28.20096 0 0 0 0 56.39168h109.5168a28.20096 28.20096 0 0 0 0-56.39168zm672.4096-135.61344H895.1808a151.552 151.552 0 0 0-10.48064-39.1936l33.58208-19.38944a10.5165 10.5165 0 0 0 3.85024-14.37184l-9.14432-15.83616a10.5165 10.5165 0 0 0-14.37184-3.85024l-33.64864 19.42528a154.301 154.301 0 0 0-28.66688-28.66688l19.42528-33.64864a10.5216 10.5216 0 0 0-3.85024-14.37184l-15.83616-9.14432a10.5165 10.5165 0 0 0-14.37184 3.85024L802.2784 444.3136a151.844 151.844 0 0 0-39.19872-10.48064V395.0336c0-5.8112-4.7104-10.5216-10.5216-10.5216h-18.28352c-5.8112 0-10.5216 4.7104-10.5216 10.5216v38.79936a151.64 151.64 0 0 0-39.19872 10.48064l-19.38944-33.58208a10.5165 10.5165 0 0 0-14.37184-3.85024l-15.83616 9.14432a10.5165 10.5165 0 0 0-3.85024 14.37184l19.42528 33.64864a154.301 154.301 0 0 0-28.66688 28.66688l-33.64864-19.42528a10.5165 10.5165 0 0 0-14.37184 3.85024l-9.14432 15.83616a10.5216 10.5216 0 0 0 3.85024 14.37184l33.58208 19.38944a151.844 151.844 0 0 0-10.48064 39.19872h-38.79936c-5.8112 0-10.5216 4.7104-10.5216 10.5216v18.28352c0 5.8112 4.7104 10.5216 10.5216 10.5216h38.79936a151.844 151.844 0 0 0 10.48064 39.19872l-33.58208 19.38944a10.5165 10.5165 0 0 0-3.85024 14.37184l9.14432 15.83616a10.5165 10.5165 0 0 0 14.37184 3.85024l33.64864-19.42528a154.301 154.301 0 0 0 28.66688 28.66688l-19.42528 33.64864a10.5216 10.5216 0 0 0 3.85024 14.37184l15.83616 9.14432c5.03296 2.90816 11.4688 1.18272 14.37184-3.85024l19.38944-33.58208a151.844 151.844 0 0 0 39.19872 10.48064v38.79936c0 5.8112 4.7104 10.5216 10.5216 10.5216h18.28352c5.8112 0 10.5216-4.7104 10.5216-10.5216v-38.79936a151.844 151.844 0 0 0 39.19872-10.48064l19.38944 33.58208a10.5165 10.5165 0 0 0 14.37184 3.85024l15.83616-9.14432a10.5165 10.5165 0 0 0 3.85024-14.37184L836.3008 707.1488a154.455 154.455 0 0 0 28.66688-28.66688l33.64864 19.42528c5.03296 2.90816 11.4688 1.18272 14.37184-3.85024l9.14432-15.83616a10.5216 10.5216 0 0 0-3.85024-14.37184l-33.58208-19.38944a151.86 151.86 0 0 0 10.48064-39.1936h38.79936c5.8112 0 10.5216-4.7104 10.5216-10.5216V576.4608c0-5.82144-4.7104-10.53184-10.5216-10.53184M743.424 702.1056c-64.24576 0-116.51584-52.27008-116.51584-116.51584S679.17824 469.07392 743.424 469.07392 859.93472 521.344 859.93472 585.58976c.00512 64.25088-52.26496 116.51584-116.51072 116.51584"/>
    <path d="M721.53088 585.58976a21.89312 21.89312 0 1 0 43.78624 0 21.89312 21.89312 0 1 0-43.78624 0"/>
</svg>
