<svg xmlns="http://www.w3.org/2000/svg" viewBox="0 0 16 16">
    <path d="M4.737 14.193A7 7 0 0 0 8.006 15a6.98 6.98 0 0 0 4.735-1.847l-1.66-1.737a4.6 4.6 0 1 1 0-6.828l1.66-1.738a7 7 0 1 0-8.004 11.343m8.583-2.791a.573.573 0 1 0 .637-.953.573.573 0 0 0-.637.953"/>
    <path d="M7.96 9.517a1.517 1.517 0 1 1-.012-3.034 1.517 1.517 0 0 1 .013 3.034zm6.018-.07a.574.574 0 1 0 .637-.954.574.574 0 0 0-.637.954m-1.388.025a.574.574 0 1 1 0-1.148.574.574 0 0 1 0 1.148m1.388-1.958a.574.574 0 1 0 .637-.954.574.574 0 0 0-.637.954m-1.388.161a.574.574 0 1 1 0-1.148.574.574 0 0 1 0 1.148m.763-2.09a.574.574 0 1 0 .635-.956.574.574 0 0 0-.635.956"/>
</svg>
