<svg xmlns="http://www.w3.org/2000/svg" width="256" height="256" class="icon" viewBox="0 0 1024 1024">
    <path d="M933.33996 233.88397 541.92452 8.1276a60.2178 60.2178 0 0 0-60.21776 0L90.29132 233.88397a60.2178 60.2178 0 0 0-30.10888 52.2088v451.6332a60.2178 60.2178 0 0 0 30.10888 52.2088l391.41544 225.75638a60.2178 60.2178 0 0 0 60.21776 0l391.41544-225.75638a60.2178 60.2178 0 0 0 30.10888-52.2088v-451.6332a60.2178 60.2178 0 0 0-30.10888-52.2088M511.81564 129.94812l270.1971 155.90378-270.43797 156.56618-272.00362-155.3016zM180.61796 392.25668l270.61861 154.579v312.16886l-270.6186-156.20487zM572.0334 858.94432V546.53458l270.61861-156.56617v312.83126z"/>
</svg>
