<svg xmlns="http://www.w3.org/2000/svg" width="512" height="512" viewBox="0 0 1024 1024">
    <path d="M47.14795 768.85333A507.733 507.733 0 0 1 .00128 554.02667q0-29.78134 3.328-58.70934a512 512 0 0 1 9.856-57.17333A512 512 0 0 1 171.73461 171.52a512 512 0 0 1 232.96-118.22933 512 512 0 0 1 146.26134-9.81334c61.952 4.77867 120.53333 20.352 173.952 44.8A512 512 0 0 1 843.52128 163.968a512.8533 512.8533 0 0 1 172.928 301.99467 512 512 0 0 1 7.552 88.064q0 19.37066-1.536 38.99733a512 512 0 0 1-31.06133 141.01333 512 512 0 0 1-101.54667 165.33334c-56.74667 57.89866-128.85333 83.712-189.01333 82.60266a187.7333 187.7333 0 0 1-116.224-43.69066c-42.24-36.39467-59.34934-78.08-65.28-124.544a213.333 213.333 0 0 1 5.46133-64.768c4.48-16.21334 15.78667-47.616 32.42667-61.312-19.41334-8.40534-44.37334-26.624-52.30934-35.37067-1.92-2.13333-1.70666-5.54667 0-7.808a6.6133 6.6133 0 0 1 7.552-2.26133c16.72534 5.71733 37.07734 11.392 58.53867 14.93333 28.16 4.736 63.31733 10.66667 98.85867 12.45867 86.61333 4.26666 177.19466-34.688 205.312-112.08534s17.19466-153.984-83.62667-199.89333-147.37067-100.52267-228.82133-133.46133c-53.20534-21.54667-112.46934-8.74667-173.22667 24.832C225.75061 339.49867 79.01995 625.408 146.73195 890.368a8.14933 8.14933 0 0 1-13.44 8.10667 512 512 0 0 1-53.33334-69.71734 512 512 0 0 1-32.81066-59.904M493.6546 259.712c27.69067-2.176 51.79734 21.376 55.89334 52.736 5.54666 41.77067-9.728 84.90667-60.16 85.888-43.09334.85333-56.10667-42.53867-53.248-68.864 2.816-26.28267 24.49066-67.2 57.6-69.76"/>
</svg>
