<svg xmlns="http://www.w3.org/2000/svg" width="512" height="512" class="icon" viewBox="0 0 1024 1024">
    <path d="M149.76 960a26.24 26.24 0 0 1-10.24 0 31.36 31.36 0 0 1-20.48-40.32l128-384a32.64 32.64 0 0 1 28.8-23.68 32.64 32.64 0 0 1 30.72 21.76l128 384A31.36 31.36 0 0 1 416 960a32 32 0 0 1-40.96-19.84l-98.56-295.04-96.64 293.12A31.36 31.36 0 0 1 149.76 960"/>
    <path d="M341.76 832h-128a32 32 0 0 1 0-64h128a32 32 0 0 1 0 64m64-384h-256A32 32 0 0 1 128 396.16L339.2 128h-192a32 32 0 0 1 0-64h256A32.64 32.64 0 0 1 432 81.92a32.64 32.64 0 0 1-3.84 33.92L216.32 384h192a32 32 0 0 1 0 64zm320 448a32 32 0 0 1-32-32V96a32 32 0 0 1 32-32 32 32 0 0 1 32 32v768a32 32 0 0 1-32 32"/>
    <path d="M725.76 949.12a32.64 32.64 0 0 1-23.04-9.6L521.6 758.4a32 32 0 0 1 0-44.8 32 32 0 0 1 45.44 0l158.72 158.08L883.84 713.6a32 32 0 0 1 45.44 0 32 32 0 0 1 0 44.8L748.16 939.52a32 32 0 0 1-22.4 9.6"/>
</svg>
