<svg xmlns="http://www.w3.org/2000/svg" width="512" height="512" class="icon" viewBox="0 0 1024 1024">
    <path d="M932.096 768 753.088 950.4c-.128.128-.384.192-.512.32-2.88 2.88-9.6 5.184-13.376 6.784-3.392 1.344-.64 1.856-4.096 2.112-.768 0-1.344.384-1.984.384-.512 0-.896-.256-1.344-.256-3.904-.192-5.76-.896-9.344-2.24-3.264-1.344-6.016-3.52-8.64-5.76-.64-.512-1.472-.768-2.112-1.344L519.168 768c-12.864-12.8-6.976-33.6 5.952-46.4 12.736-12.864 33.6-12.864 46.4 0L704 847.872l.128-685.952c0-18.752 12.736-33.984 30.848-33.92 18.112-.064 27.776 15.168 27.776 33.984v685.888L891.52 721.6c12.864-12.864 33.6-12.864 46.528 0 6.4 6.4 3.776 14.72 3.776 23.168S938.496 761.6 932.096 768M370.624 449.152l30.656 64.192c3.456 7.68 8.32 14.272 14.72 19.904 6.4 5.504 16.192 8.128 29.44 7.744 6.4 0 12.352-.896 17.92-2.624 5.504-1.728 10.112-4.288 13.76-7.744 3.648-3.52 5.888-7.744 6.72-12.992.896-5.12 0-11.392-2.56-18.688L348.16 151.616c-2.112-6.144-6.72-11.584-13.76-16.448-6.976-4.736-16.512-7.168-28.416-7.168-12.032 0-21.44 2.432-28.544 7.168-7.04 4.8-11.648 10.304-13.76 16.448L131.84 497.728c-5.952 15.744-4.992 26.88 2.88 33.472q11.904 9.792 31.68 9.792c13.248 0 23.232-2.816 30.144-8.384 6.784-5.568 12.096-12.928 16-22.08l28.096-61.376zM256.64 384l49.344-128 49.28 128zm-67.776 256c-8.576 0-16.192 2.304-23.04 6.848-6.784 4.608-10.176 12.224-10.176 22.784 0 10.944 3.648 18.624 10.88 23.04s14.656 6.656 22.4 6.656h167.68l-216.32 224.256c-4.672 5.824-7.04 11.136-7.04 15.872 0 5.12 3.008 9.856 9.024 14.144 5.824 4.288 12.864 6.4 20.928 6.4h269.504c7.616 0 15.104-2.24 22.4-6.656 7.232-4.48 10.88-12.096 10.88-23.04 0-10.56-3.456-18.176-10.24-22.784s-14.528-6.848-22.976-6.848h-183.04l216.96-224.256c6.016-7.488 9.024-13.888 9.024-19.008 0-4.032-2.816-8-8.384-11.776-5.632-3.776-11.776-5.632-18.624-5.632z"/>
</svg>
