<svg class="icon" viewBox="0 0 1024 1024" version="1.1" xmlns="http://www.w3.org/2000/svg" p-id="6388"
     width="512" height="512">
  <path
    d="M972.8 499.2c-64-64-166.4-64-230.4 0-32 32-51.2 70.4-51.2 115.2 0 32 6.4 64 25.6 89.6L512 915.2c-51.2 51.2-134.4 51.2-179.2 0-25.6-25.6-38.4-57.6-38.4-89.6s12.8-64 38.4-89.6L736 332.8c76.8-76.8 76.8-198.4 0-275.2-70.4-70.4-198.4-70.4-275.2 0L256 262.4c-64-44.8-153.6-38.4-204.8 19.2-64 64-64 166.4 0 230.4 32 32 70.4 51.2 115.2 51.2S249.6 544 281.6 512c57.6-57.6 64-140.8 19.2-204.8l198.4-198.4c51.2-51.2 134.4-51.2 179.2 0 51.2 51.2 51.2 134.4 0 179.2L275.2 691.2c-38.4 38.4-57.6 83.2-57.6 134.4S236.8 928 275.2 960c38.4 38.4 83.2 57.6 134.4 57.6S512 998.4 544 960l217.6-211.2c25.6 19.2 57.6 25.6 89.6 25.6 44.8 0 83.2-19.2 115.2-44.8 70.4-64 70.4-166.4 6.4-230.4z m-736-32c-38.4 38.4-108.8 38.4-140.8 0-19.2-19.2-32-44.8-32-70.4s12.8-51.2 32-70.4c19.2-19.2 44.8-32 70.4-32s51.2 12.8 70.4 32 25.6 44.8 25.6 70.4-6.4 51.2-25.6 70.4zM928 684.8c-38.4 38.4-102.4 38.4-140.8 0-19.2-19.2-32-44.8-32-70.4 0-25.6 12.8-51.2 32-70.4 19.2-19.2 44.8-32 70.4-32s51.2 12.8 70.4 32c44.8 38.4 44.8 102.4 0 140.8z"
    ></path>
</svg>
