<svg xmlns="http://www.w3.org/2000/svg" width="512" height="512" class="icon" viewBox="0 0 1024 1024">
    <path d="M192 640h123.73333c25.6 0 46.93334-23.46667 46.93334-51.2V433.06667c0-27.73334-21.33334-51.2-46.93334-51.2H170.66667v256H192zm0-234.66667h123.73333c14.93334 0 25.6 12.8 25.6 29.86667v155.73333c0 17.06667-12.8 29.86667-25.6 29.86667H192z"/>
    <path d="M512 42.66667c-258.13333 0-469.33333 211.2-469.33333 469.33333S253.86667 981.33333 512 981.33333 981.33333 770.13333 981.33333 512 770.13333 42.66667 512 42.66667m375.46667 266.66666H736c-25.6-108.8-78.93333-183.46666-147.2-215.46666C718.93333 117.33333 827.73333 198.4 887.46667 309.33333m-172.8 0h-403.2C347.73333 174.93333 422.4 96 512 96c93.86667 0 168.53333 78.93333 202.66667 213.33333M435.2 91.73333c-66.13333 32-119.46667 108.8-147.2 217.6H136.53333C196.26667 198.4 307.2 115.2 435.2 91.73333M125.86667 330.66667h772.26666C923.73333 386.13333 938.66667 448 938.66667 512s-14.93334 125.86667-40.53334 181.33333H125.86667C100.26667 637.86667 85.33333 576 85.33333 512s14.93334-125.86667 40.53334-181.33333m183.46666 384h403.2C676.26667 849.06667 601.6 928 512 928c-93.86667 0-168.53333-78.93333-202.66667-213.33333m-172.8 0H288c25.6 108.8 78.93333 183.46666 145.06667 215.46666-128-23.46666-236.8-104.53333-296.53334-215.46666m452.26667 217.6c66.13333-32 119.46667-108.8 147.2-217.6h151.46667C827.73333 825.6 716.8 908.8 588.8 932.26667"/>
    <path d="M426.66667 405.33333h6.4c19.2 0 29.86666 8.53334 38.4 32l57.6 164.26667 10.66666-4.26667L529.06667 601.6c10.66666 27.73333 29.86666 38.4 61.86666 38.4h27.73334V384h-21.33334v234.66667h-6.4c-23.46666 0-34.13333-6.4-40.53333-25.6L492.8 428.8c-4.26667-10.66667-17.06667-46.93333-59.73333-46.93333h-27.73334v256h21.33334zM708.26667 512h100.26666c14.93334 0 25.6 12.8 25.6 29.86667v49.06666c0 17.06667-10.66666 29.86667-25.6 29.86667h-147.2v21.33333H806.4c25.6 0 46.93333-23.46666 46.93333-51.2v-49.06666c0-27.73334-21.33333-51.2-46.93333-51.2H706.13333c-14.93333 0-25.6-12.8-25.6-29.86667v-27.73333C680.53333 416 691.2 403.2 706.13333 403.2h147.2v-21.33333H708.26667c-25.6 2.13333-46.93334 25.6-46.93334 53.33333v27.73333c0 25.6 21.33334 49.06667 46.93334 49.06667"/>
</svg>
