<svg xmlns="http://www.w3.org/2000/svg" width="512" height="512" class="icon" viewBox="0 0 1024 1024">
    <path d="M303.70133 510.592c0-89.13067-56.832-126.72-142.848-126.72H80v255.82933h84.82133c82.048 0 138.88-40.36266 138.88-129.10933m-156.07466 79.95733V432.68267h9.216c45.65333 0 77.65333 16.768 77.65333 77.52533s-32 79.95733-77.65333 79.95733zm333.35466-74.368 72.02134 123.52h70.82666V383.91467H557.44v84.736c0 30.76266 5.54667 67.54133 9.17333 94.72H564.608L536.192 506.624l-72.02133-122.70933H392.96v255.78666h66.47467v-84.736c0-30.76266-6.016-65.96266-8.832-94.72h2.00533l28.416 55.936zm406.61334-21.54666L851.968 482.26133c-25.216-8.448-43.648-14.03733-43.648-27.60533 0-13.61067 13.22667-20.39467 34.432-20.39467s40.02133 6.82667 58.83733 18.77334l34.38934-36.77867c-24.78934-21.54667-59.98934-32.34133-93.22667-32.34133-60.84267 0-103.68 33.152-103.68 74.32533s28.032 57.17333 58.02667 67.15733L833.536 538.624c24.40533 8.74667 40.448 13.568 40.448 27.52 0 13.99467-12.032 21.58933-37.248 21.58933-25.17333 0-49.19467-10.368-69.632-25.17333l-39.21067 41.17333c29.61067 23.59467 69.632 35.2 106.83734 35.2 69.248 0 109.26933-36.01066 109.26933-76.8 0-34.73066-21.20533-55.12533-56.40533-67.49866M298.112 182.82667A223.1893 223.1893 0 0 0 274.09067 320H338.944a160.17067 160.17067 0 0 1 124.84267-188.672A160.384 160.384 0 0 1 652.672 256a154.581 154.581 0 0 1 0 63.57333h64.85333A223.1893 223.1893 0 0 0 693.504 182.44267a388.4373 388.4373 0 0 1 134.82667 137.088h72.448C794.752 96.512 527.44533 1.36533 303.70133 107.30667A450.304 450.304 0 0 0 90.79467 319.95733h72.448a388.4373 388.4373 0 0 1 134.82666-137.13066zm395.392 657.92a223.1893 223.1893 0 0 0 23.97867-137.088h-64.85334a160.17067 160.17067 0 0 1-124.84266 188.672A160.384 160.384 0 0 1 338.90133 767.616a154.581 154.581 0 0 1 0-63.57333h-64.81066A223.1893 223.1893 0 0 0 298.112 841.17333a388.4373 388.4373 0 0 1-134.86933-137.088h-72.448C196.864 927.488 464.17067 1022.63467 687.872 916.69333a450.304 450.304 0 0 0 212.90667-212.608h-72.448A390.6133 390.6133 0 0 1 693.504 840.74667"/>
</svg>
