<svg viewBox="0 0 1024 1024" version="1.1" xmlns="http://www.w3.org/2000/svg">
  <path
    d="M511.3 856.9c-11.3 0-20.4-9.1-20.4-20.4V87c0-11.3 9.1-20.4 20.4-20.4s20.4 9.2 20.4 20.4v749.5c0.1 11.2-9.1 20.4-20.4 20.4z">
  </path>
  <path
    d="M511.3 857.3c-20.5 0-39.7-8-54.2-22.4L187.3 565c-8-8-8-20.9 0-28.9s20.9-8 28.9 0L486.1 806c6.7 6.7 15.7 10.5 25.2 10.5s18.5-3.7 25.2-10.5l269.9-269.9c8-8 20.9-8 28.9 0s8 20.9 0 28.9L565.5 834.9c-14.5 14.5-33.7 22.4-54.2 22.4zM170.8 961.2c-11 0-20.1-8.8-20.4-19.9-0.3-11.3 8.6-20.7 19.9-21l681-18.1h0.6c11 0 20.1 8.8 20.4 19.9 0.3 11.3-8.6 20.7-19.9 21l-681 18.1h-0.6z">
  </path>
</svg>
