<svg viewBox="0 0 1024 1024" version="1.1" xmlns="http://www.w3.org/2000/svg"><path d="M1024 374.186667h-105.301333v322.773333h-60.8V374.186667h-105.045334V321.28H1024z m-292.352 322.773333h-205.696V321.28h197.546667v52.906667h-136.746667v106.410666h125.994667v52.650667h-125.994667v111.104h144.896z m-286.208 0H378.965333L203.946667 420.821333a123.562667 123.562667 0 0 1-11.008-21.76h-1.536c1.365333 8.064 2.048 25.258667 2.048 51.626667v246.272H134.698667V321.28h70.784l169.173333 269.653333c7.125333 11.136 11.733333 18.858667 13.781333 23.04h1.024c-1.706667-9.941333-2.56-26.837333-2.56-50.56V321.237333h58.538667z m-371.328-29.568a37.034667 35.370667 0 0 1-37.077333 35.370667 37.034667 35.370667 0 0 1-37.034667-35.413334 37.034667 35.370667 0 0 1 37.034667-35.328 37.034667 35.370667 0 0 1 37.077333 35.370667z"></path></svg>
