<svg xmlns="http://www.w3.org/2000/svg" width="1077" height="1024" class="icon" viewBox="0 0 1077 1024">
    <path d="M1024.00485 591.60253a53.89474 53.89474 0 0 1 53.89474 52.38568v164.43284A215.57895 215.57895 0 0 1 865.87769 1024H215.5838A215.57895 215.57895 0 0 1 .00486 811.9781V645.49727a53.89474 53.89474 0 0 1 107.78947-1.50905v164.43284a107.78947 107.78947 0 0 0 105.95706 107.78948h648.56926a107.78947 107.78947 0 0 0 107.78947-105.95706v-164.7562a53.89474 53.89474 0 0 1 53.89474-53.89474M538.95222 0a53.89474 53.89474 0 0 1 53.89474 53.89474V578.6139l179.03831-179.03832a53.89474 53.89474 0 0 1 71.14105-4.47326l5.0661 4.47326a53.89474 53.89474 0 0 1 0 76.20716L581.31349 742.56168a53.787 53.787 0 0 1-42.36126 15.62948 53.733 53.733 0 0 1-42.36126-15.62948L229.812 475.78274a53.89474 53.89474 0 0 1 76.20716-76.20716l179.03831 179.03831V53.89474A53.89474 53.89474 0 0 1 538.95222 0"/>
</svg>
