<svg xmlns="http://www.w3.org/2000/svg" width="32" height="32" class="icon" viewBox="0 0 1024 1024">
    <path d="M42.66667 505.6c0 51.2 6.4 108.8 23.424 153.6h346.92266c12.8-51.2 17.04534-95.95733 17.04534-147.2a648.405 648.405 0 0 0-17.04534-147.2h-353.28c-10.66666 44.8-17.06666 89.6-17.06666 140.8m698.15466-140.8h-263.936c12.75734 44.8 17.024 95.95733 17.024 147.2s-6.4 95.95733-17.024 147.2H740.8c83.008 0 146.88-63.97867 146.88-147.2S823.808 364.8 740.8 364.8zM95.85067 294.4h300.16c-36.20267-76.8-76.62934-147.2-123.52-204.8C195.904 140.8 129.94133 211.2 95.89333 294.4zm698.15466 0c76.62934 0 140.48-32 187.30667-83.2C887.68 83.2 730.176 0 553.49333 0 466.24 0 395.98933 19.2 323.62667 57.6c59.584 64 100.05333 147.2 129.83466 230.4zm-704.512 435.2h300.11734c-29.80267 76.8-70.22934 147.2-123.456 198.4-70.22934-44.8-136.21334-115.2-176.64-198.4zm704.53334 0c76.62933 0 140.48 32 187.30666 83.2-93.65333 127.95733-257.536 211.2-427.84 211.2-87.25333 0-157.504-25.6-229.86666-57.6C383.21067 902.42133 423.68 819.2 453.46133 736z"/>
</svg>
