<svg xmlns="http://www.w3.org/2000/svg" width="565" height="512" class="icon" viewBox="0 0 1130 1024">
    <path d="M593.52129 917.45259h-462.6589a65.78766 65.78766 0 0 1-65.78766-65.78766v-719.3738a65.78766 65.78766 0 0 1 65.78766-65.07259h786.59163a65.0726 65.0726 0 0 1 65.07258 65.07258v323.21766a316.067 316.067 0 0 1 65.78766 26.45808V132.29113a131.5753 131.5753 0 0 0-38.6145-92.24575A128.715 128.715 0 0 0 916.02387.00072H129.43221A131.57533 131.57533 0 0 0 .00215 132.29112v719.3738a130.86024 130.86024 0 0 0 130.86024 130.86025H631.4207a361.832 361.832 0 0 1-37.89941-65.07258"/>
    <path d="M.00215 263.15137H1046.8841v65.78766H.00215zm607.10572 153.7429a32.1788 32.1788 0 0 0-30.74858-13.58657 32.1788 32.1788 0 0 0-26.45808 20.73741L406.88455 756.55885a32.89383 32.89383 0 0 0 33.60891 45.76533 31.4637 31.4637 0 0 0 26.45808-20.02233L609.9682 449.7881a32.1788 32.1788 0 0 0-2.86033-32.89383M248.13605 612.11203a20.7374 20.7374 0 0 1 0-27.88825l65.07258-64.3575a19.30725 19.30725 0 0 0 0-27.88824l-18.59216-18.59217a19.30725 19.30725 0 0 0-27.88825 0L155.8903 584.22377a19.30725 19.30725 0 0 0 0 27.88825l110.8379 110.83791a19.30725 19.30725 0 0 0 27.88826 0l20.73741-18.59217a19.30725 19.30725 0 0 0 0-27.88824zM1127.68851 846.65934a26.458 26.458 0 0 1 0 15.01675 51.486 51.486 0 0 1-5.00558 17.87708 71.508 71.508 0 0 1-8.581 16.44692 50.056 50.056 0 0 1-11.44133 10.01117h-34.324a63.642 63.642 0 0 0-16.44692 0l-15.73183 4.2905a22.8827 22.8827 0 0 0-14.30167 8.581 54.3463 54.3463 0 0 0-14.30166 28.60333 59.352 59.352 0 0 0 3.57541 31.46366 22.8827 22.8827 0 0 1 0 21.4525 21.4525 21.4525 0 0 1-10.01116 7.86592l-14.30167 8.581-17.87708 5.72066h-14.30167a10.7263 10.7263 0 0 1-9.29608 0 16.447 16.447 0 0 1-5.00558-7.15083 57.9218 57.9218 0 0 0-20.73742-27.88825 39.3296 39.3296 0 0 0-31.46366-12.15641 50.0558 50.0558 0 0 0-32.17875 12.15641 71.508 71.508 0 0 0-20.02233 27.17317 13.5866 13.5866 0 0 1-7.86592 8.581 30.749 30.749 0 0 1-11.44133 0h-15.73184l-18.59216-6.43575-12.8715-12.15642-10.72625-10.01117a14.3017 14.3017 0 0 1 0-7.86591 26.458 26.458 0 0 1 0-15.01675 45.0503 45.0503 0 0 0 4.2905-27.17317 41.4748 41.4748 0 0 0-13.58658-27.88825 32.1788 32.1788 0 0 0-17.162-10.72624h-20.02233a87.955 87.955 0 0 0-22.88267 5.00558 24.313 24.313 0 0 1-14.30167 0 25.028 25.028 0 0 1-10.72625-12.15642 71.508 71.508 0 0 1-9.29608-16.44691 197.36 197.36 0 0 1-5.72067-19.30725 52.916 52.916 0 0 1 0-15.01675 17.8771 17.8771 0 0 1 9.29609-15.73183 65.0726 65.0726 0 0 0 30.0335-14.30167 46.4804 46.4804 0 0 0 0-64.3575 77.229 77.229 0 0 0-27.88825-20.02233 9.2961 9.2961 0 0 1-7.15084-7.15083 12.1564 12.1564 0 0 1 0-12.15642 29.3184 29.3184 0 0 1 0-15.73183 64.358 64.358 0 0 1 4.2905-15.73183l8.581-14.30167a25.028 25.028 0 0 1 9.29609-10.01117h12.8715a61.497 61.497 0 0 0 32.17874 0 71.508 71.508 0 0 0 30.74859-14.30166 36.469 36.469 0 0 0 8.581-16.44692 35.039 35.039 0 0 0 0-17.162V566.3467a34.324 34.324 0 0 1 5.00558-12.8715 50.056 50.056 0 0 1 17.162-9.29608l18.59216-5.72067h15.01675a17.877 17.877 0 0 1 11.44134 4.2905l5.72066 8.581a57.922 57.922 0 0 0 17.87708 25.02791 49.3408 49.3408 0 0 0 30.74859 11.44134 50.771 50.771 0 0 0 29.31841-12.15642 60.067 60.067 0 0 0 20.02233-25.743 22.1676 22.1676 0 0 1 6.43575-7.86591 10.7263 10.7263 0 0 1 8.581-5.00559h12.8715a77.944 77.944 0 0 1 17.162 5.00559l15.01675 10.01116a60.782 60.782 0 0 1 11.44133 12.15642 12.1564 12.1564 0 0 1 6.43575 12.15641v6.43575a55.7765 55.7765 0 0 0-5.00558 32.17875 50.771 50.771 0 0 0 15.01675 29.31842 45.0503 45.0503 0 0 0 31.46367 13.58658 63.6424 63.6424 0 0 0 34.324-5.72067h4.2905a25.028 25.028 0 0 1 10.72624 5.00559 45.0503 45.0503 0 0 1 13.58659 22.16758 85.095 85.095 0 0 1 7.86591 29.31842 15.0168 15.0168 0 0 1 0 13.58658 12.8715 12.8715 0 0 1-7.86591 7.15083 58.637 58.637 0 0 0-27.17317 20.02233 47.9106 47.9106 0 0 0-11.44133 33.60892 45.0503 45.0503 0 0 0 8.581 30.0335 55.7765 55.7765 0 0 0 25.743 19.30725l6.43575 4.2905a22.8827 22.8827 0 0 1 7.86591 12.15641zm-240.26799 46.48042a134.436 134.436 0 0 0 44.33517-7.86592 143.017 143.017 0 0 0 36.46925-25.02792 143.017 143.017 0 0 0 24.31283-37.18433 117.2737 117.2737 0 0 0 0-87.95524 133.72 133.72 0 0 0-24.31283-35.03908 90.1005 90.1005 0 0 0-36.46925-25.02792 120.134 120.134 0 0 0-44.33517-9.29608 114.4133 114.4133 0 0 0-94.391 50.77091 117.98874 117.98874 0 0 0 13.58659 143.01666 143.017 143.017 0 0 0 36.46925 25.02792 134.436 134.436 0 0 0 44.33516 7.86591zm0 0"/>
</svg>
