<svg xmlns="http://www.w3.org/2000/svg" fill-rule="evenodd" stroke-linejoin="round" stroke-miterlimit="2" viewBox="0 0 1594 1397">
    <g fill-rule="nonzero">
        <path d="M250.59607 1009.23C126.95847 878.20908 54.61674 697.20894 54.80007 481.2546 54.63342 290.26693 114.63764 126.1043 217.79605 1.18754l-.1625.0625H.80004v1008.0008h249.64603zm1141.97174.0875c53.26255-57.05004 100.98759-124.23342 144.23345-201.06682l-240.00019-119.99593c-84.29173 137.02928-207.55433 263.15855-378.0003 263.99605-248.07103-.8375-345.53778-212.96684-345.00028-486.0004h927.00074c1.2375-30.82502 1.2375-45.15836 0-59.99587 6.05-162.43763-37.00003-298.97524-115.31259-405.3045l-.40417.3h208.71684v1008.00081h-201.68766zm-803.7673-777.06728c10.2625-123.61676 107.72508-206.746 222.00017-207.00016 115.05426.25416 198.1835 83.3834 201.00016 207.00016zM132.80014 1180.25098v-41.99587H3.80004v248.99603h129.0001v-42.00003H51.80008v-65.99588h78.00006v-42.0042H51.80008v-57.00005zm219.00018 102.00008c32.15835-4.775 49.8167-36.63753 51.00004-68.99589-1.18334-52.9417-35.50003-74.8459-84.00007-75.00006h-66.00005v248.99603h48.00003v-98.9959l60.00005 98.9959h60.00005zm-51.00005-105.00008h6c26.18753.9875 45.84171 6.9625 45.00005 39.00003.84166 29.36252-18.14585 37.32503-45.00004 36.00003h-6zm270.00022-38.99587h-48.00004v248.99603h117.0001v-42.00003h-69.00006zm315.00025 197.996 21.00002 51.00003h51.00004l-93.00007-255.0002h-39.00004l-99.00007 255.0002h51.00004l21.00001-51.00004zm-12-38.99587h-60.00006l27.00003-93.00007zm174.00013 89.9959h51.00004v-168.00013l132.0001 174.00014h36.00004v-254.99604H1215.801v168.00014l-132.0001-174.0043h-36.00004zm429.00035-132.0001v39.00003h54.00004c-1.125 31.34586-26.77502 57.90005-57.00005 57.00005-47.73337.9-71.38755-45.23337-72.00005-87.00007.6125-41.20837 23.93335-89.3334 72.00005-89.9959 25.22502.6625 46.55004 17.92084 57.00005 39.00002l42.00003-21.00418c-18.47085-38.9042-55.78338-60.47922-99.00008-60.00005-74.38756-.47917-122.0251 60.92088-123.0001 132.0001.975 69.31256 47.28338 131.04594 120.0001 132.00011 78.5334-.95417 114.84593-63.68338 114.0001-135.0001v-6.00001z"/>
    </g>
</svg>
