<svg xmlns="http://www.w3.org/2000/svg" width="32" height="32" class="icon" viewBox="0 0 1024 1024">
    <path d="M474.112 464a58.432 58.432 0 1 1-58.464-58.4 58.432 58.432 0 0 1 58.464 58.4m75.52 0A58.432 58.432 0 1 0 608 405.632 58.432 58.432 0 0 0 549.632 464"/>
    <path d="M947.2 527.424a152.8 152.8 0 0 1-12.8.512 168.256 168.256 0 0 1-74.144-17.312 686.176 686.176 0 0 0 9.984-131.2 681.344 681.344 0 0 0-84.896-100.608 168.768 168.768 0 0 1 59.84-64L856.16 208l-8.544-9.6a446.88 446.88 0 0 0-156.16-113.92l-11.872-5.184-3.008 12.544a168.16 168.16 0 0 1-42.336 76.8A678.4 678.4 0 0 0 512 118.208a679.04 679.04 0 0 0-122.144 50.304 168.128 168.128 0 0 1-42.208-76.8l-3.04-12.544-11.84 5.152A451.424 451.424 0 0 0 176.48 198.4l-8.576 9.6 10.944 6.72a168.448 168.448 0 0 1 59.712 63.68 684.29 684.29 0 0 0-84.736 100.224 686.624 686.624 0 0 0 9.6 132.096 167.904 167.904 0 0 1-73.6 17.12c-4.544 0-8.8-.16-12.8-.512L64 526.432l1.216 12.8A444.416 444.416 0 0 0 125.248 723.2l6.4 11.104 9.824-8.352a168.128 168.128 0 0 1 79.584-37.28 682.016 682.016 0 0 0 68.096 110.944 689.09 689.09 0 0 0 129.088 31.712 167.776 167.776 0 0 1-10.752 88.096l-4.896 11.936 12.608 2.784A451.392 451.392 0 0 0 512 944.8l96.672-10.72 12.608-2.784-4.928-11.968a168.224 168.224 0 0 1-10.72-88.128 688.16 688.16 0 0 0 128.576-31.648 682.88 682.88 0 0 0 68.192-111.04 168.896 168.896 0 0 1 80 37.312l9.824 8.32 6.4-11.104a442.784 442.784 0 0 0 60-183.808l1.216-12.8zM650.048 684.576a521.12 521.12 0 0 1-276.832 0 536.384 536.384 0 0 1-59.264-124.8 530.08 530.08 0 0 1-24.96-136.96 527.488 527.488 0 0 1 100.32-95.52A534.176 534.176 0 0 1 512 260.672a536.352 536.352 0 0 1 122.144 66.4 530.56 530.56 0 0 1 100.768 96 531.2 531.2 0 0 1-25.216 136.352 534.688 534.688 0 0 1-59.488 125.12z"/>
</svg>
