<svg xmlns="http://www.w3.org/2000/svg" class="icon" viewBox="0 0 1024 1024">
    <path d="M731.43 858.83a410.21 410.21 0 0 1-54.66 29.02C624.95 910.51 569.74 922 512.67 922c-226.07 0-410-183.92-410-410 0-226.07 183.93-410 410-410 57.08 0 112.29 11.49 164.1 34.15 18.84 8.24 37.23 18 54.66 29.02 23.34 14.76 54.23 7.8 68.98-15.54 14.76-23.34 7.8-54.22-15.54-68.98a510.784 510.784 0 0 0-68.03-36.12C652.31 16.31 583.62 2 512.67 2c-68.83 0-135.62 13.49-198.53 40.1-60.74 25.69-115.27 62.46-162.09 109.28S68.46 252.73 42.77 313.47C16.16 376.38 2.67 443.17 2.67 512s13.49 135.62 40.1 198.53c25.69 60.74 62.46 115.27 109.28 162.09S253.4 956.21 314.14 981.9c62.91 26.61 129.7 40.1 198.53 40.1 70.95 0 139.64-14.31 204.16-42.52a510.17 510.17 0 0 0 68.03-36.12c23.34-14.76 30.3-45.64 15.54-68.98-14.75-23.34-45.63-30.3-68.97-15.55"/>
    <path d="M1008.39 545.56c.27-.3.53-.61.79-.91.27-.31.54-.62.8-.93.32-.39.62-.79.93-1.18.19-.24.38-.48.57-.73.32-.43.63-.88.94-1.32.15-.22.31-.44.46-.66.31-.46.6-.92.89-1.38.14-.23.29-.45.42-.68.27-.46.54-.92.79-1.38.14-.25.29-.5.42-.76.23-.44.46-.88.68-1.32.15-.29.3-.59.44-.89.19-.41.37-.81.55-1.22.15-.35.31-.7.46-1.05.15-.36.29-.73.43-1.1.16-.4.31-.81.46-1.22.12-.32.22-.65.33-.98.15-.46.3-.91.44-1.38.09-.29.17-.58.25-.87.14-.5.28-.99.4-1.5.07-.27.13-.55.19-.82.12-.52.24-1.04.34-1.56.06-.28.1-.57.15-.85.09-.51.18-1.03.26-1.54.05-.33.08-.66.13-.99.06-.47.12-.95.17-1.42.04-.44.07-.89.1-1.33.03-.37.06-.73.08-1.11.08-1.65.08-3.31 0-4.96-.02-.37-.05-.74-.08-1.11-.03-.44-.06-.89-.1-1.33-.05-.48-.11-.95-.17-1.42-.04-.33-.08-.66-.13-.99-.08-.52-.17-1.03-.26-1.54l-.15-.85c-.1-.52-.22-1.04-.34-1.56-.06-.27-.12-.55-.19-.82-.12-.5-.26-1-.4-1.5-.08-.29-.16-.58-.25-.87-.14-.46-.29-.92-.44-1.38-.11-.33-.21-.65-.33-.98-.15-.41-.3-.81-.46-1.22-.14-.37-.28-.74-.43-1.1-.15-.35-.3-.7-.46-1.05-.18-.41-.36-.82-.55-1.22-.14-.3-.29-.59-.44-.89-.22-.44-.44-.89-.68-1.32-.14-.25-.28-.5-.42-.76-.26-.46-.52-.92-.79-1.38-.14-.23-.28-.45-.42-.68-.29-.46-.58-.93-.89-1.38-.15-.22-.31-.44-.46-.66-.31-.44-.61-.88-.94-1.32-.18-.25-.38-.49-.57-.73-.31-.4-.61-.79-.93-1.18-.26-.32-.53-.62-.8-.93-.26-.31-.52-.61-.79-.91-.53-.58-1.07-1.15-1.62-1.7-.03-.03-.05-.06-.08-.09L794.56 264.51c-19.53-19.53-51.18-19.53-70.71 0s-19.53 51.18 0 70.71L850.62 462H431.33c-27.61 0-50 22.39-50 50s22.39 50 50 50h419.29L723.84 688.78c-19.53 19.53-19.53 51.18 0 70.71 9.76 9.76 22.56 14.64 35.36 14.64s25.59-4.88 35.36-14.64l212.13-212.13c.03-.03.05-.06.08-.09.55-.56 1.09-1.12 1.62-1.71"/>
</svg>
