<svg class="icon" viewBox="0 0 1024 1024" version="1.1" xmlns="http://www.w3.org/2000/svg" p-id="8740"
     xmlns:xlink="http://www.w3.org/1999/xlink" >
  <path
    d="M409.07264 669.70112v75.53024a69.71392 69.71392 0 0 0 69.87264 69.87776h376.76032a69.71392 69.71392 0 0 0 69.87264-69.87776V278.76864A69.71392 69.71392 0 0 0 855.7056 208.896H478.9504a69.71392 69.71392 0 0 0-69.87264 69.87264v75.54048c0 13.21984-10.38848 23.60832-23.6032 23.60832-13.22496 0-23.60832-10.38848-23.60832-23.60832V278.76864c0-64.20992 52.87936-117.08928 117.08928-117.08928h376.76032c64.20992 0 117.08928 52.87936 117.08928 117.08928v466.4576c0 64.22016-52.87936 117.08928-117.08928 117.08928H478.9504c-64.20992 0-117.08928-52.86912-117.08928-117.08928V669.696c0-13.21984 10.38336-23.60832 23.60832-23.60832 13.21984 0 23.6032 10.3936 23.6032 23.61344zM51.2 512c0 6.60992 2.83136 12.27776 6.60992 16.9984l157.69088 157.69088c4.72064 4.72064 10.38848 6.62016 16.9984 6.62016s12.27264-1.89952 16.99328-6.62016c9.44128-9.44128 9.44128-24.5504 0-33.0496l-118.03136-118.03136h430.58688c13.21984 0 23.6032-10.38848 23.6032-23.60832s-10.38336-23.60832-23.6032-23.60832H131.46112L248.5504 371.3024c9.44128-9.44128 9.44128-24.5504 0-33.0496-9.44128-9.4464-24.54528-9.4464-33.0496 0L57.80992 495.00672C53.08928 499.72736 51.2 505.39008 51.2 512z"
    ></path>
</svg>
