<svg  class="icon" viewBox="0 0 1024 1024" version="1.1" xmlns="http://www.w3.org/2000/svg" p-id="8893"
     xmlns:xlink="http://www.w3.org/1999/xlink">
  <path
    d="M731.43 858.83a410.207 410.207 0 0 1-54.66 29.02C624.95 910.51 569.74 922 512.67 922c-226.07 0-410-183.92-410-410 0-226.07 183.93-410 410-410 57.08 0 112.29 11.49 164.1 34.15 18.84 8.24 37.23 18 54.66 29.02 23.34 14.76 54.23 7.8 68.98-15.54 14.76-23.34 7.8-54.22-15.54-68.98a510.784 510.784 0 0 0-68.03-36.12C652.31 16.31 583.62 2 512.67 2c-68.83 0-135.62 13.49-198.53 40.1-60.74 25.69-115.27 62.46-162.09 109.28-46.82 46.82-83.59 101.35-109.28 162.09C16.16 376.38 2.67 443.17 2.67 512c0 68.83 13.49 135.62 40.1 198.53 25.69 60.74 62.46 115.27 109.28 162.09 46.82 46.82 101.35 83.59 162.09 109.28 62.91 26.61 129.7 40.1 198.53 40.1 70.95 0 139.64-14.31 204.16-42.52a510.17 510.17 0 0 0 68.03-36.12c23.34-14.76 30.3-45.64 15.54-68.98-14.75-23.34-45.63-30.3-68.97-15.55z"
    ></path>
  <path
    d="M1008.39 545.56c0.27-0.3 0.53-0.61 0.79-0.91 0.27-0.31 0.54-0.62 0.8-0.93 0.32-0.39 0.62-0.79 0.93-1.18 0.19-0.24 0.38-0.48 0.57-0.73 0.32-0.43 0.63-0.88 0.94-1.32 0.15-0.22 0.31-0.44 0.46-0.66 0.31-0.46 0.6-0.92 0.89-1.38 0.14-0.23 0.29-0.45 0.42-0.68 0.27-0.46 0.54-0.92 0.79-1.38 0.14-0.25 0.29-0.5 0.42-0.76 0.23-0.44 0.46-0.88 0.68-1.32 0.15-0.29 0.3-0.59 0.44-0.89 0.19-0.41 0.37-0.81 0.55-1.22 0.15-0.35 0.31-0.7 0.46-1.05 0.15-0.36 0.29-0.73 0.43-1.1 0.16-0.4 0.31-0.81 0.46-1.22 0.12-0.32 0.22-0.65 0.33-0.98 0.15-0.46 0.3-0.91 0.44-1.38 0.09-0.29 0.17-0.58 0.25-0.87 0.14-0.5 0.28-0.99 0.4-1.5 0.07-0.27 0.13-0.55 0.19-0.82 0.12-0.52 0.24-1.04 0.34-1.56 0.06-0.28 0.1-0.57 0.15-0.85 0.09-0.51 0.18-1.03 0.26-1.54 0.05-0.33 0.08-0.66 0.13-0.99 0.06-0.47 0.12-0.95 0.17-1.42 0.04-0.44 0.07-0.89 0.1-1.33 0.03-0.37 0.06-0.73 0.08-1.11 0.08-1.65 0.08-3.31 0-4.96-0.02-0.37-0.05-0.74-0.08-1.11-0.03-0.44-0.06-0.89-0.1-1.33-0.05-0.48-0.11-0.95-0.17-1.42-0.04-0.33-0.08-0.66-0.13-0.99-0.08-0.52-0.17-1.03-0.26-1.54l-0.15-0.85c-0.1-0.52-0.22-1.04-0.34-1.56-0.06-0.27-0.12-0.55-0.19-0.82-0.12-0.5-0.26-1-0.4-1.5-0.08-0.29-0.16-0.58-0.25-0.87-0.14-0.46-0.29-0.92-0.44-1.38-0.11-0.33-0.21-0.65-0.33-0.98-0.15-0.41-0.3-0.81-0.46-1.22-0.14-0.37-0.28-0.74-0.43-1.1-0.15-0.35-0.3-0.7-0.46-1.05-0.18-0.41-0.36-0.82-0.55-1.22-0.14-0.3-0.29-0.59-0.44-0.89-0.22-0.44-0.44-0.89-0.68-1.32-0.14-0.25-0.28-0.5-0.42-0.76-0.26-0.46-0.52-0.92-0.79-1.38-0.14-0.23-0.28-0.45-0.42-0.68-0.29-0.46-0.58-0.93-0.89-1.38-0.15-0.22-0.31-0.44-0.46-0.66-0.31-0.44-0.61-0.88-0.94-1.32-0.18-0.25-0.38-0.49-0.57-0.73-0.31-0.4-0.61-0.79-0.93-1.18-0.26-0.32-0.53-0.62-0.8-0.93-0.26-0.31-0.52-0.61-0.79-0.91-0.53-0.58-1.07-1.15-1.62-1.7-0.03-0.03-0.05-0.06-0.08-0.09L794.56 264.51c-19.53-19.53-51.18-19.53-70.71 0-19.53 19.53-19.53 51.18 0 70.71L850.62 462H431.33c-27.61 0-50 22.39-50 50s22.39 50 50 50h419.29L723.84 688.78c-19.53 19.53-19.53 51.18 0 70.71 9.76 9.76 22.56 14.64 35.36 14.64s25.59-4.88 35.36-14.64l212.13-212.13c0.03-0.03 0.05-0.06 0.08-0.09 0.55-0.56 1.09-1.12 1.62-1.71z"
    ></path>
</svg>
