<svg xmlns="http://www.w3.org/2000/svg" class="icon" viewBox="0 0 1024 1024">
    <path d="M924.244 202H101.756C81.991 202 66 186.124 66 166.5S81.99 131 101.756 131h822.488C944.009 131 960 146.876 960 166.5S944.01 202 924.244 202M103.768 446h561.464C685.004 446 701 461.876 701 481.5S685.004 517 665.232 517H103.768C83.996 517 68 501.124 68 481.5S84.096 446 103.768 446m-2.013 376h819.49C941.009 822 957 837.876 957 857.5S941.01 893 921.245 893h-819.49C81.991 893 66 877.124 66 857.5S82.09 822 101.755 822M826.91 613.767C819.948 620.622 810.896 624 801.845 624c-9.25 0-18.5-3.576-25.562-10.73-13.826-14.106-13.726-36.757.398-50.566l94.888-93.187-93.197-87.722c-14.423-13.51-15.119-36.162-1.492-50.567 13.527-14.405 36.205-15 50.627-1.49l120.252 113.254A35.732 35.732 0 0 1 959 468.623c.098 9.736-3.781 19.075-10.744 25.93z"/>
</svg>
