<svg xmlns="http://www.w3.org/2000/svg" width="512" height="512" class="icon" viewBox="0 0 1024 1024">
    <path d="M377.2509 373.99273H178.73456A104.96 104.96 0 0 1 74.00727 269.26546V165.46908A104.96 104.96 0 0 1 178.73455 60.74182H377.2509a104.96 104.96 0 0 1 104.72727 104.72727v103.79637a104.96 104.96 0 0 1-104.72727 104.72727M178.73456 130.56a34.9091 34.9091 0 0 0-34.9091 34.9091v103.79636a34.9091 34.9091 0 0 0 34.9091 34.90908H377.2509A34.9091 34.9091 0 0 0 412.16 269.26545V165.4691A34.9091 34.9091 0 0 0 377.2509 130.56zm201.30909 832.69818H181.52727A104.96 104.96 0 0 1 76.8 858.53091V542.0218a104.96 104.96 0 0 1 104.72727-104.72726h198.51637A104.96 104.96 0 0 1 484.7709 542.02182V858.5309a104.96 104.96 0 0 1-104.72727 104.72727M181.52727 507.11273a34.9091 34.9091 0 0 0-34.90909 34.90909V858.5309a34.9091 34.9091 0 0 0 34.9091 34.90909h198.51636a34.9091 34.9091 0 0 0 34.90909-34.9091V542.02183a34.9091 34.9091 0 0 0-34.9091-34.9091zm660.94546 456.14545H643.95636A104.96 104.96 0 0 1 539.2291 858.53091V754.73455a104.96 104.96 0 0 1 104.72727-104.72728h198.51637A104.96 104.96 0 0 1 947.2 754.73455V858.5309a104.96 104.96 0 0 1-104.72727 104.72727M643.95636 719.82546a34.9091 34.9091 0 0 0-34.90909 34.90909V858.5309a34.9091 34.9091 0 0 0 34.9091 34.90909h198.51636a34.9091 34.9091 0 0 0 34.90909-34.9091V754.73456a34.9091 34.9091 0 0 0-34.9091-34.9091zm201.3091-133.12H646.74908a104.96 104.96 0 0 1-104.72727-104.72728V165.4691A104.96 104.96 0 0 1 646.74909 60.74182h198.51636a104.96 104.96 0 0 1 104.72728 104.72727v316.5091a104.96 104.96 0 0 1-104.72728 104.72727M646.74908 130.56A34.9091 34.9091 0 0 0 611.84 165.4691v316.50908a34.9091 34.9091 0 0 0 34.9091 34.9091h198.51635a34.9091 34.9091 0 0 0 34.9091-34.9091V165.4691a34.9091 34.9091 0 0 0-34.9091-34.90909z"/>
</svg>
