<svg xmlns="http://www.w3.org/2000/svg" width="1024" height="1024" class="icon" viewBox="0 0 1024 1024">
    <defs>
        <style>
            @font-face{font-family:feedback-iconfont;src:url(//at.alicdn.com/t/font_1031158_u69w8yhxdu.woff2?t=1630033759944)format(&quot;woff2&quot;),url(//at.alicdn.com/t/font_1031158_u69w8yhxdu.woff?t=1630033759944)format(&quot;woff&quot;),url(//at.alicdn.com/t/font_1031158_u69w8yhxdu.ttf?t=1630033759944)format(&quot;truetype&quot;)}
        </style>
    </defs>
    <path d="m246.4 258.304-83.84-83.84 46.464-46.4L309.12 228.288A543.04 543.04 0 0 1 512 190.72c211.968 0 382.592 107.136 512 321.28-58.688 98.56-126.464 174.464-203.456 227.648l109.888 109.888-46.4 46.4-121.408-121.408a518 518 0 0 1-1.088.576l-68.224-68.224 1.216-.512-117.312-117.312-.896.832L435.2 448.832l.768-.96L313.6 325.376a436 436 0 0 0-1.152.576l-67.072-67.008 1.088-.64zm509.248 416.448c60.8-37.76 115.456-91.712 164.48-162.432C811.392 357.184 677.248 282.56 512 282.56c-46.08 0-89.728 5.76-131.072 17.472l112.32 112.32q9.216-1.92 19.008-1.92c54.272 0 98.368 45.696 98.368 102.016 0 5.44-.448 10.816-1.28 16zm-566.4-379.2 64.192 64.256c-54.592 37.12-104.32 87.808-149.632 152.512 107.2 154.688 241.28 229.12 408.128 229.12 38.72 0 75.712-3.968 111.04-12.096l73.6 73.6A553.984 553.984 0 0 1 512 833.28C298.112 833.28 127.488 726.144 0 512c55.488-91.84 118.592-163.968 189.248-216.448M508.032 614.4l-93.888-93.952c3.84 51.2 44.096 91.776 93.888 93.952"/>
</svg>
