<svg xmlns="http://www.w3.org/2000/svg" width="1024" height="1024" class="icon" viewBox="0 0 1024 1024">
    <defs>
        <style>
            @font-face{font-family:feedback-iconfont;src:url(//at.alicdn.com/t/font_1031158_u69w8yhxdu.woff2?t=1630033759944)format(&quot;woff2&quot;),url(//at.alicdn.com/t/font_1031158_u69w8yhxdu.woff?t=1630033759944)format(&quot;woff&quot;),url(//at.alicdn.com/t/font_1031158_u69w8yhxdu.ttf?t=1630033759944)format(&quot;truetype&quot;)}
        </style>
    </defs>
    <path d="M512 283.456c-165.248 0-299.392 74.304-408.128 228.864C211.072 666.432 345.152 740.544 512 740.544s300.928-74.112 408.128-228.224C811.392 357.76 677.248 283.52 512 283.52zM512 832C298.112 832 127.488 725.312 0 512c129.408-213.312 300.032-320 512-320s382.592 106.688 512 320C896.512 725.312 725.888 832 512 832m0-137.152a182.848 182.848 0 1 0 0-365.696 182.848 182.848 0 0 0 0 365.696M512 576a64 64 0 1 1 0-128 64 64 0 0 1 0 128"/>
</svg>
