<svg xmlns="http://www.w3.org/2000/svg" width="1024" height="1024" class="icon" viewBox="0 0 1024 1024">
    <path d="M575.82933 211.05778 458.2969 79.64444H79.64444v659.91112h864.71112V211.05778zm-140.85689-79.64445 70.656 79.64445H131.98222v-79.64445zm457.04534 555.80445H131.98222V263.39556h760.03556z"/>
    <path d="M485.83111 713.27289h52.33778v204.8H485.8311z"/>
    <path d="M79.64444 838.54222h864.71112V890.88H79.64444z"/>
    <path d="M273.52178 807.82222h456.36266V921.6H273.52178zm-33.22311-216.17778V371.712h150.75555v37.20533H284.44444v52.11023h91.81867v37.20533h-91.81867v93.41155zm236.88533 0v-182.7271h-65.30844V371.712h174.76266v37.20533h-65.08089v182.72711zm138.12622 0V371.712h71.2249a261.69 261.69 0 0 1 53.02044 3.75467 57.6853 57.6853 0 0 1 31.63022 21.504 68.2667 68.2667 0 0 1 12.7431 42.89422 72.0213 72.0213 0 0 1-7.28177 34.13333 61.44 61.44 0 0 1-18.65955 21.73156 64.967 64.967 0 0 1-22.75556 10.35378 247.24 247.24 0 0 1-45.51111 3.18577H659.9111v82.37511zm44.6009-182.7271v62.464h24.23466a111.616 111.616 0 0 0 35.15733-3.52712 28.103 28.103 0 0 0 13.88089-10.80889 29.8098 29.8098 0 0 0 5.00622-17.06666 28.672 28.672 0 0 0-7.05422-19.79734 30.6062 30.6062 0 0 0-17.86311-9.78489 227.556 227.556 0 0 0-31.97156-1.4791z"/>
</svg>
