<svg xmlns="http://www.w3.org/2000/svg" viewBox="0 0 1024 1024">
    <path d="M509.58629 882.83429a35.18171 35.18171 0 0 1 0-70.36343h87.77142a234.8617 234.8617 0 0 0 246.71086-220.52572A234.8617 234.8617 0 0 0 597.6503 371.3463H231.20457L327.68 467.968a35.10857 35.10857 0 1 1-49.664 49.73714L120.02743 359.424a35.1817 35.1817 0 0 1 0-49.73714l157.91543-158.208a35.10857 35.10857 0 0 1 49.664 49.73714l-99.54743 99.76686h369.59086A305.0057 305.0057 0 0 1 914.2857 591.94514 305.0057 305.0057 0 0 1 597.6503 882.8343z"/>
</svg>
