<svg viewBox="0 0 1024 1024" version="1.1" xmlns="http://www.w3.org/2000/svg">
  <path
    d="M509.586286 882.834286a35.181714 35.181714 0 0 1 0-70.363429h87.771428a234.861714 234.861714 0 0 0 246.710857-220.525714 234.861714 234.861714 0 0 0-246.418285-220.598857h-366.445715L327.68 467.968a35.108571 35.108571 0 1 1-49.664 49.737143l-157.988571-158.281143a35.181714 35.181714 0 0 1 0-49.737143L277.942857 151.478857a35.108571 35.108571 0 0 1 49.664 49.737143L228.059429 300.982857h369.590857A305.005714 305.005714 0 0 1 914.285714 591.945143a305.005714 305.005714 0 0 1-316.635428 290.889143z">
  </path>
</svg>
