<svg xmlns="http://www.w3.org/2000/svg" width="646.5" height="256" class="icon" viewBox="0 0 2586 1024">
    <path d="M192.02695 345.30358c-4.95832 0-6.144-2.47916-3.71874-6.1979l26.03116-33.41473c2.42526-3.71874 8.62316-6.1979 13.58147-6.1979h442.26021c4.95832 0 6.1979 3.77263 3.77263 7.43748l-21.01894 32.17515c-2.53306 3.77264-8.73095 7.43748-12.44969 7.43748zM4.95832 459.29095c-4.95832 0-6.144-2.47916-3.66485-6.144l25.97727-33.46863c2.47915-3.77264 8.62315-6.1979 13.63536-6.1979h564.87074c4.90442 0 7.38358 3.77263 6.144 7.38358l-9.91663 29.7499c-1.23958 5.0122-6.1979 7.49136-11.15621 7.49136zm299.76252 113.98737c-4.90442 0-6.144-3.77264-3.66484-7.43748l17.30021-30.98947c2.47916-3.71874 7.49137-7.38358 12.39579-7.38358H578.56c4.95832 0 7.38358 3.66484 7.38358 8.62316l-2.42526 29.7499c0 4.9583-4.95832 8.62315-8.73095 8.62315l-270.01263-1.18568zm1285.92842-250.23327c-78.03958 19.83327-131.28758 34.65432-208.14147 54.48758-18.59369 4.95832-19.77937 6.1979-35.94779-12.39579-18.53979-21.01895-32.17516-34.7082-58.20632-47.0501-78.03958-38.37306-153.6-27.32464-224.2021 18.59368-84.23748 54.43368-127.56884 135.00632-126.38316 235.35832 1.29347 99.05852 69.41642 180.87073 167.23537 194.4522 84.29137 11.15622 154.89347-18.53978 210.62063-81.7583 11.15621-13.63538 21.01895-28.51032 33.46863-45.81053H1110.016c-26.03116 0-32.17516-16.11453-23.552-37.13348 16.06063-38.48084 45.81053-102.83116 63.16463-135.0602a33.4147 33.4147 0 0 1 30.98948-19.83327h450.93726c-2.47916 33.46863-2.47916 66.88337-7.43747 100.352-13.63537 89.19579-47.104 170.9541-101.64548 242.79579-89.1419 117.7061-205.60842 190.78737-353.01052 210.62063-121.42485 16.06063-234.17264-7.43747-333.28506-81.75832C744.5558 849.48884 692.49347 757.8139 678.912 643.88042c-16.16842-135.06021 23.4981-256.37726 105.25642-362.98105C872.12463 165.67242 988.59116 92.64505 1131.03495 66.56c116.46652-21.01895 227.97473-7.38358 328.32673 60.73937 65.6438 43.33137 112.7478 102.83116 143.68337 174.61895 7.43748 11.2101 2.42527 17.3541-12.39579 21.12673"/>
    <path d="M2295.53853 507.63453c-1.23958-16.11453-1.23958-28.56421-3.66485-40.9061-22.31242-122.61053-135.1141-191.97306-252.76631-164.75622-115.22695 25.97726-189.5478 99.16632-216.76463 215.57895-22.36632 96.63326 24.73768 194.5061 113.93347 234.17263 68.12295 29.696 136.2459 25.97726 201.88968-7.49137 97.92674-50.82274 151.22864-130.048 157.37264-236.5979m-294.80421 500.46653c-112.7478-2.47915-215.57895-34.65431-302.34948-108.97515-73.02737-63.21853-118.94568-143.73727-133.76673-239.13095-22.31243-139.96463 16.11452-263.86863 100.40589-374.08337 90.32758-118.94568 199.41053-180.87074 346.81263-206.9558 126.32927-22.25852 245.27495-9.86273 353.06442 63.27243 97.87285 66.93726 158.55832 157.37263 174.72674 276.26442 21.01895 167.23537-27.32463 303.48127-142.49768 419.9478-81.75832 82.99789-182.05643 135.0602-297.33727 158.5583-33.41473 6.1979-66.82947 7.49137-99.05852 11.15622"/>
</svg>
