<svg xmlns="http://www.w3.org/2000/svg" width="200" height="200" class="icon" viewBox="0 0 1024 1024">
    <path d="M0 0v1024h1024V0zm288.59733 128A232.448 232.448 0 0 1 454.656 185.856l-58.53867 70.656A155.8187 155.8187 0 0 0 285.696 213.33333c-68.26667 0-121.344 59.73334-121.344 131.41334v1.19466c0 77.312 53.07733 133.97334 128 133.97334a147.968 147.968 0 0 0 87.38133-25.42934V393.728H286.208v-80.21333h183.12533v183.296a274.2613 274.2613 0 0 1-180.39466 67.072c-131.24267 0-221.696-92.33067-221.696-217.25867v-1.19467A216.74667 216.74667 0 0 1 288.59733 128m445.09867 0c130.21867 0 223.744 97.10933 223.744 217.088v1.19467A218.28267 218.28267 0 0 1 732.50133 564.736c-130.38933-.85333-223.91466-97.96267-223.91466-218.112v-1.19467A218.28267 218.28267 0 0 1 733.696 128m-1.19467 85.33333a126.29333 126.29333 0 0 0-126.63466 130.90134v1.19466a128.34133 128.34133 0 0 0 128 132.77867 126.29333 126.29333 0 0 0 126.464-131.584v-1.19467a128.17067 128.17067 0 0 0-127.82934-132.096M96.08533 832h384v64h-384z"/>
</svg>
