<svg viewBox="0 0 1024 1024" version="1.1" xmlns="http://www.w3.org/2000/svg"
     >
  <path d="M384 256m-64 0a64 64 0 1 0 128 0 64 64 0 1 0-128 0Z"></path>
  <path d="M384 512m-64 0a64 64 0 1 0 128 0 64 64 0 1 0-128 0Z"></path>
  <path d="M384 768m-64 0a64 64 0 1 0 128 0 64 64 0 1 0-128 0Z"></path>
  <path d="M640 256m-64 0a64 64 0 1 0 128 0 64 64 0 1 0-128 0Z"></path>
  <path d="M640 512m-64 0a64 64 0 1 0 128 0 64 64 0 1 0-128 0Z"></path>
  <path d="M640 768m-64 0a64 64 0 1 0 128 0 64 64 0 1 0-128 0Z"></path>
</svg>
