<svg xmlns="http://www.w3.org/2000/svg" width="1024" height="1024" viewBox="0 0 1024 1024">
    <path d="M959.3905 527.76199c0 23.12774-18.41952 41.87369-41.13896 41.87369-12.33596 0-23.27613-5.64047-30.8179-14.39383L541.08954 202.72924c-16.06591-16.35346-42.11315-16.35346-58.17906 0L237.80203 452.20413c2.87754 5.63637 4.654 11.92663 4.654 18.69068V636.3706c0 .32848-.08903.63547-.09721.9619h.29778v163.00347c0 23.1257 18.5065 41.87165 41.33748 41.87165h82.56853V677.73876c0-22.85042 18.52082-41.3692 41.3692-41.3692h206.84395c22.84838 0 41.3692 18.51878 41.3692 41.3692 0 22.84634-18.52082 41.3692-41.3692 41.3692H449.29998V884.5817c0 22.4278-17.87511 40.5833-40.14225 41.2464v.12178H263.1483c-57.11583 0-103.41839-46.86435-103.41839-104.67808V637.33147h.08493c-.00614-.32643-.0972-.63342-.0972-.9619V531.68022l-23.16254 23.57595c-7.54177 8.74517-18.4758 14.3795-30.80766 14.3795-22.71944 0-41.13896-18.74595-41.13896-41.8737 0-11.86216 4.8955-22.52092 12.68798-30.14148l-.23741-.2415 362.2156-368.66857c40.16477-40.88108 105.28593-40.88108 145.4507 0l361.5699 368.01059-.29984.30597c8.18032 7.6533 13.39508 18.53616 13.39508 30.735m-344.6567 314.4446c.4431 0 .85446.11972 1.29448.132v-.132h122.68316c22.82894 0 41.33748-18.74595 41.33748-41.87165V637.33147h.53417c-.01638-.4963-.14531-.9619-.14531-1.46435 0-23.1257 18.41746-41.87369 41.13895-41.87369 22.71945 0 41.13691 18.748 41.13691 41.8737 0 .50244-.12587.96804-.1453 1.46434h.40522V821.2718c0 57.8127-46.29949 104.67808-103.4184 104.67808H616.02625v-.132c-.44105.01432-.85241.132-1.29448.132-22.71945 0-41.13896-18.7439-41.13896-41.8696.00205-23.12467 18.42156-41.87369 41.141-41.87369"/>
</svg>
