<svg xmlns="http://www.w3.org/2000/svg" width="1024" height="1024" class="icon" viewBox="0 0 1024 1024">
    <path d="M684.672 591.18933c3.15733-26.15466 5.54667-52.26666 5.54667-79.18933s-2.38934-53.07733-5.54667-79.18933h133.84533C824.832 458.15467 828.8 484.65067 828.8 512a326.4 326.4 0 0 1-10.28267 79.18933m-203.94666 220.16c23.76533-43.94666 41.984-91.47733 54.656-140.97066H786.048a317.952 317.952 0 0 1-171.47733 140.97066m-9.89867-220.16H419.41333c-3.968-26.15466-6.35733-52.26666-6.35733-79.18933s2.38933-53.46133 6.35733-79.18933h185.30134c3.584 25.728 6.35733 52.26666 6.35733 79.18933s-2.77333 53.03467-6.35733 79.18933m-92.62934 235.98934c-32.85333-47.488-59.43466-100.18134-75.648-156.8h151.25334c-16.21334 56.61866-42.752 109.312-75.648 156.8m-158.37867-473.6H238.03733A313.728 313.728 0 0 1 409.13067 212.608c-23.76534 43.94667-41.6 91.47733-55.46667 140.97067m-115.62667 316.8H353.664c13.86667 49.49333 31.70133 97.024 55.46667 140.97066a317.1413 317.1413 0 0 1-171.09334-140.97066M205.568 591.18933A326.4 326.4 0 0 1 195.24267 512c0-27.30667 3.968-53.888 10.28266-79.232h133.84534c-3.15734 26.15467-5.54667 52.30933-5.54667 79.232s2.38933 53.03467 5.54667 79.18933M512 196.39467c32.85333 47.488 59.43467 100.56533 75.648 157.184H436.39467c16.21333-56.61867 42.752-109.65334 75.648-157.184m274.00533 157.184H669.22667A619.648 619.648 0 0 0 614.61333 212.608 316.2453 316.2453 0 0 1 786.048 353.57867M512 116.05333c-218.96533 0-395.94667 178.176-395.94667 395.94667A395.94667 395.94667 0 0 0 512 908.032 395.94667 395.94667 0 0 0 907.98933 512a395.94667 395.94667 0 0 0-395.94666-395.98933z"/>
</svg>
