<svg xmlns="http://www.w3.org/2000/svg" width="200" height="200" class="icon" viewBox="0 0 1024 1024">
    <path d="M0 0v1024h1024V0zm158.848 132.736h213.33333v78.25067h-59.30666v267.81866h59.30666V557.056H158.848v-78.25067h61.61067V210.98667H158.848zm471.68 0h94.80533v277.33333c0 26.112-2.34666 47.40267-9.472 66.38934-7.12533 18.944-16.64 33.152-30.848 47.36-11.81866 11.904-28.416 23.76533-47.36 28.50133A167.808 167.808 0 0 1 576 564.18133c-33.19467 0-61.61067-7.12533-82.944-18.98666a205.227 205.227 0 0 1-54.57067-45.056L497.792 433.792a136.533 136.533 0 0 0 35.54133 30.80533c11.81867 7.12534 26.06934 11.86134 40.32 11.86134 16.59734 0 30.76267-4.736 42.66667-16.59734 9.42933-11.86133 14.208-28.45866 14.208-54.528zM94.80533 832h384v64h-384z"/>
</svg>
