<svg xmlns="http://www.w3.org/2000/svg" width="512" height="512" class="icon" viewBox="0 0 1024 1024">
    <path d="M334.336 167.424c45.056-24.064 88.576-51.2 130.048-81.408V442.88h-330.24c-11.264-136.704.512-262.656.512-262.656s78.336 52.224 199.68-12.8m542.72 13.312S798.72 232.96 678.4 167.424c-45.056-24.576-89.088-51.712-130.56-81.92v357.888h329.728c11.264-136.704-.512-262.656-.512-262.656m-680.96 511.488c81.408 145.408 204.288 211.456 268.288 237.568V526.848h-320c10.24 60.928 26.112 119.808 51.712 165.376m434.176 27.136c0-20.48 16.896-37.376 37.376-37.376h1.024v-17.92c0-65.024 52.736-118.272 118.272-118.272 26.624 0 52.224 8.704 73.216 25.088 3.072-13.824 5.632-28.16 8.192-42.496H548.864V931.84c28.672-11.776 55.808-26.112 81.92-42.496z"/>
    <path d="M888.832 709.632H687.104c-15.36 0-27.648 12.288-27.648 27.648v160.768c0 15.36 12.288 27.648 27.648 27.648h201.728c15.36 0 27.648-12.288 27.648-27.648V737.28c.512-15.36-12.288-27.648-27.648-27.648M805.376 821.76v40.448c0 8.704-7.168 15.872-15.872 15.872h-3.072c-8.704 0-15.872-7.168-15.872-15.872V821.76c-10.752-6.144-17.408-17.408-17.408-29.696a34.304 34.304 0 0 1 68.608 0c1.024 12.288-6.144 23.552-16.384 29.696m-64.512-139.264v-16.384c0-25.6 20.992-46.592 47.104-46.592 25.6 0 47.104 20.992 47.104 46.592v16.384h34.304c1.024-5.12 1.536-10.24 1.536-14.848 0-45.568-36.864-82.944-82.432-82.944s-82.944 36.864-82.944 82.944c0 5.12.512 10.24 1.536 14.848z"/>
</svg>
