<svg xmlns="http://www.w3.org/2000/svg" viewBox="0 0 1024 1024">
    <path d="m70.47561 921.48928 803.65762-803.64124-503.68871-8.68174c-12.4956-.2108-22.48-10.52982-22.25384-23.05099.21592-12.4956 11.14687-22.8709 23.04588-22.24872l557.04798 9.5986c1.27607.02047 2.38738.54031 3.60204.76135 1.59636.2988 3.23262.38578 4.73484 1.01921 2.63501 1.11745 4.97122 2.66571 6.98816 4.62228.09414.07674.19545.06651.2896.13405.08186.08698.11153.10745.1934.20057 1.94633 2.0026 3.54166 4.16895 4.64274 6.79884.64877 1.51757.73064 2.7527 1.01819 4.35929.22717 1.21466.7511 1.56975.78283 2.85093l9.61396 555.56521c.22717 12.51401-9.747 20.01894-22.2518 20.01894h-.39192c-12.3421 0-22.42883-6.88583-22.65498-19.22588l-8.68684-500.69246-803.6566 803.64329c-4.42682 4.4258-10.22078 6.63819-16.01576 6.63819s-11.58997-2.2124-16.01577-6.6382c-8.8434-8.85057-8.8434-23.1789-.00102-32.03152"/>
</svg>
