<svg viewBox="0 0 1024 1024" version="1.1" xmlns="http://www.w3.org/2000/svg">
  <path
    d="M70.47561 921.489278 874.133226 117.848035l-503.688707-8.68173c-12.495592-0.210801-22.479991-10.529821-22.25384-23.050995 0.215918-12.495592 11.146874-22.870894 23.045879-22.248723l557.047985 9.598612c1.276063 0.020466 2.387373 0.540306 3.602038 0.76134 1.596358 0.298805 3.232624 0.385786 4.734838 1.019213 2.635013 1.11745 4.971222 2.665713 6.988158 4.622274 0.094144 0.076748 0.195451 0.066515 0.289596 0.134053 0.081864 0.086981 0.11154 0.107447 0.193405 0.200568 1.946328 2.00261 3.541663 4.168949 4.64274 6.798846 0.648776 1.517563 0.730641 2.752694 1.01819 4.359284 0.227174 1.214664 0.751107 1.569752 0.782829 2.850931l9.613962 555.565215c0.227174 12.514012-9.746992 20.018939-22.251793 20.018939-0.12382 0-0.257873 0-0.391926 0-12.342096 0-22.428825-6.885827-22.654976-19.225877l-8.686846-500.692467L102.508163 953.520809c-4.426823 4.425799-10.220782 6.638187-16.015765 6.638187s-11.589966-2.212388-16.015765-6.638187C61.633221 944.670234 61.633221 930.3419 70.47561 921.489278z">
  </path>
</svg>
