<svg xmlns="http://www.w3.org/2000/svg" width="1024" height="1024" class="icon" viewBox="0 0 1024 1024">
    <path d="M512.26778 1024a511.99258 511.99258 0 1 1 511.7323-511.7323A512.51316 512.51316 0 0 1 512.26777 1024m0-971.66665A459.93436 459.93436 0 1 0 971.94186 512.2677 460.19465 460.19465 0 0 0 512.26778 52.33335"/>
    <path d="M512.26778 177.79365h-.26029q24.46736 0 24.46736 24.46737V509.6648q0 24.46736-24.46736 24.46736h.2603q-24.46737 0-24.46737-24.46736V202.26102q0-24.46737 24.46736-24.46737"/>
    <path d="m523.09275 488.39365 174.07421 84.26323q22.02285 10.66049 11.36236 32.68333-10.6605 22.02285-32.68334 11.36236l-174.0742-84.26323q-22.02285-10.6605-11.36236-32.68334t32.68333-11.36236"/>
</svg>
