<svg
  viewBox="0 0 1024 1024"
  version="1.1"
  xmlns="http://www.w3.org/2000/svg"
>
<path d="M540.08 512a32 32 0 0 1 32-32h280a32 32 0 0 1 0 64h-280a32 32 0 0 1-32-32z"></path>
<path d="M460.08 512m-32 0a32 32 0 1 0 64 0 32 32 0 1 0-64 0Z"></path>
<path
  d="M778.88 680a32 32 0 0 1-22.64-54.64L869.36 512 756.24 398.88a32 32 0 0 1 45.28-45.28l124.48 124.48a48 48 0 0 1 0 67.92L801.52 670.4a32 32 0 0 1-22.64 9.6z m101.84-156.48z"
  ></path>
<path
  d="M788 912h-608a96 96 0 0 1-96-96V208a96 96 0 0 1 96-96h608a96 96 0 0 1 96 96v64a32 32 0 0 1-64 0v-64a32 32 0 0 0-32-32h-608a32 32 0 0 0-32 32v608a32 32 0 0 0 32 32h608a32 32 0 0 0 32-32v-64a32 32 0 0 1 64 0v64a96 96 0 0 1-96 96z"
  ></path>
</svg>
