<svg xmlns="http://www.w3.org/2000/svg" viewBox="0 0 1024 1024">
    <path d="M540.08 512a32 32 0 0 1 32-32h280a32 32 0 0 1 0 64h-280a32 32 0 0 1-32-32M428.08 512a32 32 0 1 0 64 0 32 32 0 1 0-64 0"/>
    <path d="M778.88 680a32 32 0 0 1-22.64-54.64L869.36 512 756.24 398.88a32 32 0 0 1 45.28-45.28L926 478.08a48 48 0 0 1 0 67.92L801.52 670.4a32 32 0 0 1-22.64 9.6m101.84-156.48"/>
    <path d="M788 912H180a96 96 0 0 1-96-96V208a96 96 0 0 1 96-96h608a96 96 0 0 1 96 96v64a32 32 0 0 1-64 0v-64a32 32 0 0 0-32-32H180a32 32 0 0 0-32 32v608a32 32 0 0 0 32 32h608a32 32 0 0 0 32-32v-64a32 32 0 0 1 64 0v64a96 96 0 0 1-96 96"/>
</svg>
