<svg xmlns="http://www.w3.org/2000/svg" width="1344" height="1024" class="icon" viewBox="0 0 1344 1024">
    <path d="M285.9277 739.73555c33.71003-72.53733 126.90834-143.15568 155.693-154.09385 28.78465-11.89766 71.38594-38.76333 167.59065-60.63967 97.22817-22.83583 189.467-54.62688 246.01285-128.25163 57.50534-72.53733 120.00002-203.79535 120.00002-203.79535s65.43711-125.24523 146.80174-146.09811c81.30065-21.87634 124.9254-18.86994 145.77828-28.78466 21.7484-9.97868 20.78892-11.96162 44.6482-16.95096 23.7953-4.98934 30.70363 23.85928 30.70363 23.85928s3.0064 43.75268-7.93177 72.6013c-10.8742 28.78465-44.6482 67.54798-77.39874 95.37315-33.64606 27.88913-78.29426 75.6077-88.27294 158.1237-9.85075 82.51601-32.6226 165.03202-32.6226 165.03202l-40.74629 170.98084s-24.7548 129.21112 49.63754 171.94034c-23.79531 36.78039-142.83585 52.7079-179.55228-22.83583-66.46056 25.84223-70.36248 104.39235-113.02774 132.21751-43.6887 27.82517-113.0917 61.59916-182.4947 54.69085 62.43071-90.51175 82.3241-150.12797 82.3241-150.12797s-243.0704-46.6951-315.41584-31.85501c-72.4094 14.96802-79.31771 20.91685-144.8188 70.61835-65.4371 50.72496-106.11942 78.55012-183.45419 78.55012-77.39873 0-85.3305-10.93817-88.27294-28.84862-3.0064-17.91045 47.59063-52.7079 47.59063-52.7079s-42.66525 3.0064-52.57997-7.93177C6.20483 889.86351.256 883.91468.256 883.91468s29.74414-47.71856 97.22817-51.68444c70.36248-4.02985 116.03413-9.97868 116.03414-9.97868s38.6354-9.91472 72.4094-82.51601m830.08546-600.38392s18.86994 24.88273 47.6546 3.0064c29.74414-20.85289 16.82303-46.69511 16.82303-46.69511s-22.77186-3.0064-42.6013 8.95523c-18.86993 10.8742-21.87633 34.73348-21.87633 34.73348m141.87636-77.59064c-24.81876 31.79105-34.73348 47.71856-50.59702 86.4819-4.98934 17.91045 1.98294 7.93177 4.98934 3.0064 7.93177-27.82517 34.66952-67.61196 50.53306-88.46484 9.91471-9.97868 1.98294-9.97868-4.92538-1.02346m6.90832 7.93177c-24.7548 31.85502-34.66952 60.63968-41.57783 82.51601 0 13.94457 1.91897 7.99574 4.92537 3.96589 1.91898-22.83583 23.79531-62.62261 40.61835-83.4755 8.95522-8.95522 3.0064-10.93817-3.96589-3.0064m5.94883 7.03625c-23.79531 39.65886-24.7548 62.55865-27.7612 81.49256 0 13.8806 3.0064 4.92537 5.94883.95949 1.02345-21.87634 10.8742-54.69085 25.77826-78.55013 8.95522-8.95522 3.0064-11.89765-3.96589-3.96588zm6.97228 5.88487c-20.85288 43.75267-15.86354 59.68018-18.86994 78.55012 3.0064 6.97228 3.0064 1.98294 5.94883-1.91898 1.02345-21.9403 1.98294-47.78252 16.887-71.6418 5.94883-7.93177 2.94243-13.8806-3.96589-4.98934"/>
</svg>
