<svg xmlns="http://www.w3.org/2000/svg" viewBox="0 0 1024 1024">
    <path d="M128 810.66667V213.33333Q128 128 213.33333 128h597.33334Q896 128 896 213.33333v597.33334Q896 896 810.66667 896H213.33333Q128 896 128 810.66667m85.33333-597.33334v597.33334h597.33334V213.33333zM256 490.66667V277.33333A21.33333 21.33333 0 0 1 277.33333 256h213.33334A21.33333 21.33333 0 0 1 512 277.33333v213.33334A21.33333 21.33333 0 0 1 490.66667 512H277.33333A21.33333 21.33333 0 0 1 256 490.66667m256 256V533.33333A21.33333 21.33333 0 0 1 533.33333 512h213.33334A21.33333 21.33333 0 0 1 768 533.33333v213.33334A21.33333 21.33333 0 0 1 746.66667 768H533.33333A21.33333 21.33333 0 0 1 512 746.66667"/>
</svg>
