<svg viewBox="0 0 1024 1024" version="1.1" xmlns="http://www.w3.org/2000/svg">
  <path
    d="M128 810.666667V213.333333q0-85.333333 85.333333-85.333333h597.333334q85.333333 0 85.333333 85.333333v597.333334q0 85.333333-85.333333 85.333333H213.333333q-85.333333 0-85.333333-85.333333zM213.333333 213.333333v597.333334h597.333334V213.333333H213.333333z m42.666667 277.333334v-213.333334a21.333333 21.333333 0 0 1 21.333333-21.333333h213.333334a21.333333 21.333333 0 0 1 21.333333 21.333333v213.333334a21.333333 21.333333 0 0 1-21.333333 21.333333h-213.333334a21.333333 21.333333 0 0 1-21.333333-21.333333z m256 256v-213.333334a21.333333 21.333333 0 0 1 21.333333-21.333333h213.333334a21.333333 21.333333 0 0 1 21.333333 21.333333v213.333334a21.333333 21.333333 0 0 1-21.333333 21.333333h-213.333334a21.333333 21.333333 0 0 1-21.333333-21.333333z">
  </path>
</svg>
