<svg xmlns="http://www.w3.org/2000/svg" class="icon" viewBox="0 0 1024 1024">
    <path d="M854.64178 329.38667 630.61333 105.35822a32.0853 32.0853 0 0 0-22.64177-9.38666h-384a64 64 0 0 0-63.94312 64V448a32.02844 32.02844 0 1 0 63.94312 0V159.97156H576v192.05688A32.02844 32.02844 0 0 0 608.02844 384h191.94312v512a31.97156 31.97156 0 1 0 64.05688 0V351.97156a31.8578 31.8578 0 0 0-9.38666-22.5849M640 205.2551 754.74489 320H640zM576 576h-64a32.02844 32.02844 0 0 0-32.02844 32.02844V832A31.97156 31.97156 0 0 0 512 864.02844h64A143.98578 143.98578 0 0 0 576 576m0 224.02844h-32.02844V640H576a80.04267 80.04267 0 0 1 0 160.02844M415.97156 607.97156V832a31.97156 31.97156 0 1 1-64 0V709.51822l-53.76 76.8a31.97156 31.97156 0 0 1-52.39467 0L192 709.51822V832a31.97156 31.97156 0 1 1-64 0V607.97156a31.97156 31.97156 0 0 1 58.19733-18.31823L271.98578 712.192l85.78844-122.53867a32.02844 32.02844 0 0 1 58.25422 18.31823z"/>
</svg>
