<svg xmlns="http://www.w3.org/2000/svg" width="1024" height="1024" viewBox="0 0 1024 1024">
    <path d="M392.6016 819.2a20.6 20.6 0 1 0 84.3776 0 20.6 20.6 0 1 0-84.3776 0M547.0208 819.2a20.6 20.6 0 1 0 84.3776 0 20.6 20.6 0 1 0-84.3776 0"/>
    <path d="M841.1136 162.6112h-164.864C645.12 163.0208 525.7216 372.3264 512 372.3264c-2.048 0-6.3488-4.5056-12.0832-12.0832-5.5296-7.168-12.6976-17.2032-20.6848-28.8768-39.3216-57.5488-101.7856-156.672-127.5904-167.5264-.2048 0-.4096-.2048-.6144-.2048s-.4096-.2048-.6144-.2048c-.4096 0-.6144-.2048-.8192-.2048s-.4096 0-.6144-.2048c-.4096 0-1.024-.2048-1.4336-.2048H182.8864C125.952 523.4688 155.648 861.3888 155.648 861.3888h177.9712c-.4096-2.048-.8192-4.096-1.2288-6.5536v-.4096c0-.4096-.2048-.8192-.2048-1.4336 0-.4096-.2048-.8192-.2048-1.2288-14.1312-79.0528-48.5376-314.1632-44.8512-429.056v-.2048c0-1.2288 0-2.2528.2048-3.2768v-.4096c0-1.024 0-2.048.2048-3.072v-.6144c0-1.024 0-1.8432.2048-2.8672v-.8192c0-.8192.2048-1.6384.2048-2.4576v-1.024c0-.8192.2048-1.4336.2048-2.2528V404.48c0-.6144.2048-1.2288.2048-2.048 0-.4096 0-.8192.2048-1.4336 0-.6144.2048-1.2288.2048-1.6384s.2048-1.024.2048-1.4336.2048-1.024.2048-1.4336c0-.6144.2048-1.024.2048-1.6384 0-.4096 0-.8192.2048-1.2288 0-.6144.2048-1.2288.2048-1.8432 0-.4096 0-.6144.2048-1.024 0-.6144.2048-1.2288.2048-1.8432 0-.2048 0-.6144.2048-.8192.2048-.6144.2048-1.2288.4096-2.048 0-.2048 0-.4096.2048-.6144.2048-.6144.2048-1.4336.4096-2.048v-.4096c.2048-.8192.2048-1.4336.4096-2.048v-.2048c.2048-.8192.4096-1.4336.4096-2.2528 3.072-12.9024 7.9872-20.2752 14.5408-20.48 2.8672.4096 6.7584 4.7104 11.6736 12.0832h-.4096c39.936 60.2112 139.4688 337.1008 139.4688 337.1008s27.2384-3.4816 54.6816-3.4816 54.6816 3.4816 54.6816 3.4816v-.2048c2.8672-8.192 124.1088-344.6784 150.7328-348.9792 47.3088 1.2288-2.8672 361.6768-23.3472 481.8944 0 .4096-.2048.8192-.2048 1.2288-.2048 1.024-.4096 2.048-.4096 2.8672-.2048 1.024-.4096 2.048-.4096 2.8672 0 .6144-.2048 1.024-.2048 1.6384-.2048 1.2288-.4096 2.4576-.6144 3.4816 0 .4096-.2048.6144-.2048 1.024l-.6144 3.6864v.6144l-.6144 3.6864H868.352c0 .4096 29.696-337.5104-27.2384-698.368"/>
</svg>
