<svg viewBox="0 0 1024 1024" version="1.1" xmlns="http://www.w3.org/2000/svg"
>
  <path
    d="M512 977.92c-20.48 0-40.96-5.12-61.44-15.36L153.6 788.48c-20.48-10.24-35.84-25.6-46.08-46.08s-15.36-40.96-15.36-61.44V343.04c0-20.48 5.12-40.96 15.36-61.44 10.24-20.48 25.6-35.84 46.08-46.08l296.96-168.96c35.84-20.48 87.04-20.48 122.88 0L870.4 235.52c20.48 10.24 35.84 25.6 46.08 46.08 10.24 20.48 15.36 40.96 15.36 61.44v343.04c0 20.48-5.12 40.96-15.36 61.44-10.24 20.48-25.6 35.84-46.08 46.08l-296.96 168.96c-20.48 10.24-40.96 15.36-61.44 15.36z m0-855.04c-10.24 0-15.36 0-25.6 5.12L189.44 302.08l-15.36 15.36c-5.12 5.12-5.12 15.36-10.24 25.6v343.04c0 10.24 0 15.36 5.12 25.6s10.24 15.36 15.36 15.36l296.96 168.96c15.36 10.24 30.72 10.24 46.08 0l296.96-168.96c5.12-5.12 15.36-10.24 15.36-15.36 5.12-5.12 5.12-15.36 5.12-25.6V343.04c0-10.24 0-15.36-5.12-25.6-5.12-5.12-10.24-15.36-15.36-15.36l-296.96-168.96c0-5.12-5.12-10.24-15.36-10.24z"
  ></path>
  <path
    d="M512 552.96c-5.12 0-15.36 0-20.48-5.12L117.76 327.68c-15.36-10.24-20.48-30.72-10.24-51.2s35.84-25.6 51.2-15.36l353.28 204.8 353.28-204.8c20.48-10.24 40.96-5.12 51.2 15.36s5.12 40.96-15.36 51.2l-373.76 215.04c0 5.12-10.24 10.24-15.36 10.24z"
  ></path>
  <path
    d="M512 983.04c-20.48 0-40.96-15.36-40.96-40.96V512c0-20.48 15.36-40.96 40.96-40.96s40.96 15.36 40.96 40.96v430.08c0 20.48-20.48 40.96-40.96 40.96z"
  ></path>
</svg>
