<svg xmlns="http://www.w3.org/2000/svg" width="1024" height="1024" class="icon" viewBox="0 0 1024 1024">
    <path d="M415.93 223.79c0-52.98 43.004-95.984 95.984-95.984s95.984 43.004 95.984 95.984-43.004 95.984-95.984 95.984-95.984-43.003-95.984-95.984m0 287.952c0-52.98 43.004-95.984 95.984-95.984s95.984 43.004 95.984 95.984-43.004 95.984-95.984 95.984-95.984-43.004-95.984-95.984m0 288.124c0-52.98 43.004-95.984 95.984-95.984s95.984 43.003 95.984 95.984-43.004 95.983-95.984 95.983-95.984-43.175-95.984-95.983"/>
</svg>
