<svg class="icon" viewBox="0 0 1024 1024" version="1.1" xmlns="http://www.w3.org/2000/svg">
  <path
    d="M1022.401084 898.804626c0 0 0-576.538899 0-632.898511 0-76.530001-69.727061-69.419046-69.727061-69.419046s-425.803849 0.497327-403.786393 0c-23.890107 0.520863-35.669384-12.537548-35.669384-12.537548s-16.542768-24.554232-46.334281-69.631894c-31.260981-47.282886-67.452251-39.556924-67.452251-39.556924L89.833493 74.760704c-85.014232 0-85.98535 81.790818-85.98535 81.790818s0 652.9021 0 711.773929c0 91.269703 68.944232 79.941704 68.944232 79.941704s834.258565 0 886.209774 0C1032.73443 948.268178 1022.401084 898.804626 1022.401084 898.804626zM887.000278 875.317703c-51.952232 0-742.040257 0-742.040257 0s-68.945255 11.328-68.945255-79.941704c0-58.871829 0-566.229089 0-566.229089s0.972141-81.790818 85.986373-81.790818l184.484711 0c0 0 36.166711-7.725962 67.427692 39.556924 29.791513 45.078685 46.334281 69.039399 46.334281 69.039399s11.780301 13.059434 35.669384 12.537548c-21.992897 0.497327 384.754944 0 384.754944 0s69.727061-7.109931 69.727061 69.419046c0 56.383148 0 461.73213 0 461.73213S960.709023 875.317703 887.000278 875.317703zM633.759623 402.421302c-16.494673-16.661472-43.22957-16.661472-59.70173 0-16.495696 16.685008-16.495696 43.703361 0 60.389392l83.331917 72.714092L288.751938 535.524786c-23.321148 0-42.233893 12.489452-42.233893 36.071543s18.912745 37.020148 42.233893 37.020148l368.637872 0-83.331917 72.737628c-16.495696 16.660448-16.495696 43.679825 0 60.363809 16.47216 16.661472 43.207058 16.661472 59.70173 0l124.142391-125.493156c13.723559-13.864776 20.572548-32.06837 20.572548-50.29243 0-18.226107-6.848988-36.452213-20.572548-50.316989L633.759623 402.421302z"
    ></path>
</svg>
