<svg xmlns="http://www.w3.org/2000/svg" class="icon" viewBox="0 0 1024 1024">
    <path d="M1022.40108 898.80463V265.90612c0-76.53-69.72706-69.41905-69.72706-69.41905s-425.80385.49733-403.78639 0c-23.8901.52086-35.66938-12.53755-35.66938-12.53755s-16.54277-24.55423-46.33429-69.6319c-31.26098-47.28288-67.45225-39.55692-67.45225-39.55692H89.8335c-85.01423 0-85.98535 81.79082-85.98535 81.79082v711.77393c0 91.2697 68.94423 79.9417 68.94423 79.9417h886.20978c73.73228.00103 63.39893-49.46252 63.39893-49.46252m-135.4008-23.48693H144.96002s-68.94525 11.328-68.94525-79.9417V229.1469s.97214-81.79082 85.98637-81.79082h184.48471s36.16671-7.72596 67.4277 39.55693c29.7915 45.07868 46.33427 69.0394 46.33427 69.0394s11.7803 13.05943 35.66939 12.53754c-21.9929.49733 384.75494 0 384.75494 0s69.72706-7.10993 69.72706 69.41905v461.73213s10.30981 75.67656-63.39893 75.67656M633.75962 402.4213c-16.49467-16.66147-43.22957-16.66147-59.70173 0-16.4957 16.68501-16.4957 43.70336 0 60.3894l83.33192 72.71409H288.75194c-23.32115 0-42.2339 12.48945-42.2339 36.07154s18.91275 37.02015 42.2339 37.02015H657.3898l-83.33192 72.73762c-16.4957 16.66045-16.4957 43.67983 0 60.36381 16.47216 16.66148 43.20706 16.66148 59.70173 0l124.1424-125.49315c13.72355-13.86478 20.57254-32.06837 20.57254-50.29243 0-18.2261-6.84899-36.45222-20.57255-50.317z"/>
</svg>
