<svg xmlns="http://www.w3.org/2000/svg" width="1024" height="1024" viewBox="0 0 1024 1024">
    <path d="M1024.00061 490.5001S833.15978 869.7774 802.534 929.40288c-13.40826 26.1038-28.03098 39.46086-61.10413 38.9632-154.23693-2.31834-308.5312-1.29843-462.8009-.6574-18.81702.07782-29.22905-4.76366-39.1045-22.53415-75.20052-135.3175-151.4025-270.09639-228.99917-404.05402-13.42055-23.16697-14.08205-41.03373-1.55239-63.96928 73.74643-134.98777 146.19034-270.6903 220.07603-405.60435 4.28647-7.8254 17.35066-15.37024 26.3639-15.41325 171.09402-.79667 342.19418-.63078 513.29025.21914 8.73472.043 21.31968 5.67705 25.55699 12.67712 63.15827 104.33536 190.87974 319.83616 190.87974 319.83616l-189.0734.36045-95.61703-147.95162-345.41363 1.1264s-89.088 155.2855-133.589 232.96205c-14.43225 25.19245-12.76518 49.67219.69633 74.16627 44.93312 81.76026 148.52915 262.95296 148.52915 262.95296l294.53107.28672 85.14765-154.1161s-211.48672-.44646-295.6329.01639c-44.56243.24576-79.67334-31.78701-82.41561-76.71603-3.03514-49.72544 27.59885-91.72173 73.17709-92.0064z"/>
</svg>
