<svg xmlns="http://www.w3.org/2000/svg" width="1024" height="1024" viewBox="0 0 1024 1024">
    <path d="M949.65029 260.27886a11.4834 11.4834 0 0 0-5.26629-8.99657L515.40114 1.20686a11.1909 11.1909 0 0 0-10.05714 0l-427.37371 252.928a11.4834 11.4834 0 0 0-4.82743 8.99657v500.58971c.21943 3.65715 2.19428 7.02172 5.22971 8.99657l430.18972 250.07543a11.1909 11.1909 0 0 0 10.09371 0L946.02971 771.072a11.4834 11.4834 0 0 0 4.82743-8.99657zM823.73486 668.928a54.437 54.437 0 0 1 0 11.44686l-7.68 13.45828a53.03 53.03 0 0 1-8.85029 7.35086L540.0503 864.65829l-12.50743 5.30285a24.32 24.32 0 0 1-8.88686 0 21.102 21.102 0 0 1-6.43657 0l-10.89829-4.49828L386.304 809.0697a6.18057 6.18057 0 0 1-2.816-7.75314l18.54171-40.85028a6.0343 6.0343 0 0 1 7.68-2.88915l101.66858 49.88343c3.21828 1.46286 6.912 1.46286 10.09371 0l242.13943-148.33371a11.8126 11.8126 0 0 0 6.07086-6.94857V371.8217a11.4834 11.4834 0 0 0-4.864-8.96L525.1657 219.42857a10.7886 10.7886 0 0 0-10.09371 0L269.312 363.264a11.4834 11.4834 0 0 0-5.26629 8.99657v286.02514c.256 3.73029 1.82858 7.20457 4.46172 9.80115 20.48 20.11428 45.34857 35.10857 72.63086 43.73943a73.1063 73.1063 0 0 0 40.33828-20.04115 16.055 16.055 0 0 0 4.02286-10.20343v-312.576a6.1074 6.1074 0 0 1 5.66857-5.70514h42.78857c3.03543.18286 5.44914 2.63314 5.632 5.70514V689.8103c.256 3.91314.256 7.89943 0 11.84914a26.331 26.331 0 0 1-3.62057 9.80114 127.1954 127.1954 0 0 1-92.81829 53.94286 161.0971 161.0971 0 0 1-127.52457-76.032 28.782 28.782 0 0 1-4.82743-11.41029 84.846 84.846 0 0 1 0-11.88571V355.9497a52.955 52.955 0 0 1 0-11.44685l8.04572-13.89715c2.816-2.816 5.92457-5.26628 9.28914-7.35085l272.42057-158.57372a50.47 50.47 0 0 1 10.86172-4.49828h16.16457c3.65714 1.09714 7.168 2.63314 10.496 4.49828L805.2297 324.4983c3.328 2.048 6.43658 4.53485 9.25258 7.31428l7.68 12.69029a53.76 53.76 0 0 1 0 11.44685v311.77143l1.60914 1.24343zm-171.52-95.63429a218.075 218.075 0 0 0-51.63886-17.55428 468.224 468.224 0 0 1-77.49486-24.50286 74.8251 74.8251 0 0 1-43.95885-69.48571c-.73143-13.568 2.048-27.09943 8.04571-39.24115 5.99771-11.41028 14.592-21.21143 25.05143-28.59885 9.80114-6.87543 20.736-11.99543 32.256-15.14057 14.29943-4.16915 29.11086-6.21715 43.99543-6.10743a171.154 171.154 0 0 1 61.73257 10.24c15.21371 5.04685 28.63543 14.40914 38.76571 26.95314 7.13143 12.8 12.544 26.58743 16.128 40.85029.36572 1.46285.07315 3.03542-.768 4.27885a5.2297 5.2297 0 0 1-3.65714 2.26743l-37.96114 5.30286a7.2777 7.2777 0 0 1-7.68-4.90057 79.506 79.506 0 0 0-17.73715-31.08572 71.168 71.168 0 0 0-45.60457-13.056 81.92 81.92 0 0 0-50.02971 11.84915 34.0114 34.0114 0 0 0-14.92114 27.392 28.416 28.416 0 0 0 6.03428 17.95657c5.12 6.32685 11.81257 11.11771 19.38286 13.89714 5.12 1.93829 20.04114 6.29029 44.8 13.09257 25.49028 6.29029 50.54171 14.22629 75.04457 23.69829 13.49486 5.55885 25.12457 14.92114 33.49943 26.95314 8.48457 13.09257 12.69028 28.52571 12.10514 44.14171-.10971 17.22515-5.30286 34.01143-14.92114 48.23772-10.56914 15.72571-25.41714 27.904-42.78857 35.10857a153.673 153.673 0 0 1-62.93943 12.288A139.1177 139.1177 0 0 1 508.16 663.62514a189.038 189.038 0 0 1-37.12-67.03543 4.9737 4.9737 0 0 1 .43886-4.27885 4.8274 4.8274 0 0 1 3.584-2.26743l40.37485-6.10743c3.29143-.36571 6.29029 1.71886 7.24115 4.90057 4.27885 15.03086 11.70285 28.96457 21.79657 40.85029 15.50628 11.84914 34.70628 17.664 54.08914 16.34743 17.70057 1.20685 35.25486-3.54743 50.02972-13.49486 10.56914-8.00914 16.82285-20.55314 16.96914-33.90172a31.1589 31.1589 0 0 0-13.34857-25.344"/>
</svg>
