<svg xmlns="http://www.w3.org/2000/svg" width="1024" height="1024" class="icon" viewBox="0 0 1024 1024">
    <path d="M229.376 505.07093c0 78.37014 30.5152 152.064 85.94773 207.4624a291.567 291.567 0 0 0 207.53067 85.94774 291.567 291.567 0 0 0 207.49653-85.94774c109.1584-109.12426 114.176-283.57973 15.01867-398.71146a19.89973 19.89973 0 0 0-29.86667.2048 22.528 22.528 0 0 0 .17067 29.62773c84.13867 98.6112 79.59893 247.3984-13.65333 340.5824a249.617 249.617 0 0 1-177.69814 73.6256 249.6853 249.6853 0 0 1-177.73226-73.6256 249.5147 249.5147 0 0 1-73.6256-177.664 249.4123 249.4123 0 0 1 58.74346-161.45067 23.552 23.552 0 0 0-.75093-31.88053c-8.63573-8.63573-22.6304-8.77227-30.6176.47787a291.2597 291.2597 0 0 0-70.99733 191.35146z"/>
    <path d="M180.736 318.29333a23.89333 23.89333 0 0 0 8.73813 32.6656L808.7552 708.47147a23.89333 23.89333 0 1 0 23.89333-41.3696L213.33333 309.5552a23.89333 23.89333 0 0 0-32.63146 8.73813z"/>
    <path d="M164.18133 308.736q-8.9088 15.42827-4.3008 32.6656 4.608 17.2032 20.03627 26.112L799.19787 724.992q15.42826 8.9088 32.63146 4.3008t26.112-20.03627q8.87467-15.42826 4.3008-32.63146-4.608-17.2032-20.03626-26.112l-619.3152-357.51254q-15.42827-8.87466-32.63147-4.3008-17.2032 4.608-26.112 20.03627zM189.44 350.95893a23.89333 23.89333 0 1 1 23.89333-41.40373l619.3152 357.54667a23.89333 23.89333 0 1 1-23.89333 41.3696zM512 238.93333A22.18667 22.18667 0 0 0 489.81333 261.12v160.42667a22.18667 22.18667 0 0 0 44.37334 0V261.12A22.18667 22.18667 0 0 0 512 238.93333"/>
</svg>
