<svg viewBox="0 0 1024 1024" version="1.1" xmlns="http://www.w3.org/2000/svg"><path d="M761.892571 36.864l12.8 1.316571 3.035429 0.694858c5.997714 1.462857 6.985143 2.450286 14.628571 10.130285l-0.073142 0.512 1.718857 1.682286-0.914286 6.290286a117.394286 117.394286 0 0 1-3.547429 15.872l-8.521142-0.621715c-40.923429-1.718857-63.268571 10.825143-94.390858 36.096l12.8 6.985143c99.766857 56.100571 170.569143 140.434286 203.958858 249.929143l2.486857 8.996572 10.678857-0.475429 7.058286-0.146286c32.182857-0.475429 53.357714 2.230857 79.908571 24.429715 19.017143 22.601143 20.955429 43.849143 20.406857 72.484571-3.766857 32.365714-15.506286 62.281143-40.594286 84.004571-15.36 11.483429-25.307429 15.067429-43.995428 15.250286l-14.153143 0.036572-2.925714-0.182858c-7.533714-0.438857-8.374857-0.877714-16.384-4.827428l-1.499429 8.667428c-21.833143 103.241143-90.697143 206.738286-179.565714 265.252572l-22.162286 14.08-9.033143 5.632-9.618285 5.778286c-11.446857 6.656-17.627429 9.216-24.064 10.203428l-3.730286 0.402286-3.474286 0.182857h-6.4v88.685714h-89.490286v-84.224l-13.421714 4.425143c-7.204571 0.329143-14.409143 0.475429-21.577143 0.548572l-22.601143 0.036571-10.605714-0.585143-4.534857-0.585143a248.466286 248.466286 0 0 1-16.749714-3.84v84.224h-89.490286V875.52l-22.381714-4.425143c-104.484571-45.933714-177.664-141.531429-220.416-243.858286a354.011429 354.011429 0 0 1-16.786286-61.952l-8.923429 4.425143-4.864 0.512c-19.931429 1.828571-36.352 1.243429-55.003428-8.009143-28.16-24.539429-44.470857-53.028571-49.298286-90.148571-0.987429-28.416 1.536-52.370286 19.638857-75.190857 23.625143-19.017143 41.216-22.601143 70.290286-22.454857l17.078857 0.146285 11.081143 0.146286 4.644571-13.348571c20.150857-56.649143 45.641143-106.569143 83.968-152.502857l17.700572-20.48c30.354286-32.621714 72.265143-61.074286 113.005714-79.579429l-4.315428-3.291429c-24.576-19.017143-43.666286-31.634286-76.251429-32.182857l-13.421714-0.292571-8.96 0.292571-0.512-1.828571-3.803429-1.828572c-5.851429-2.852571-10.020571-6.436571 0-17.444571L230.180571 51.2a49.371429 49.371429 0 0 1 36.315429-14.628571c29.330286-0.219429 61.696 21.211429 83.968 35.913142 8.118857 5.705143 16.201143 11.629714 23.405714 18.358858a227.84 227.84 0 0 0 40.338286-6.436572c27.721143-6.290286 54.710857-7.789714 82.688-7.972571h30.866286c34.230857 0.329143 65.170286 2.596571 98.157714 12.178285 12.434286 2.706286 19.931429 2.340571 31.414857-1.170285l5.522286-5.193143 3.510857-3.181714c27.062857-24.246857 58.331429-45.348571 95.524571-42.203429zM379.465143 247.405714a54.198857 54.198857 0 1 0 0 108.397715 54.198857 54.198857 0 0 0 0-108.397715z m271.067428 0a54.198857 54.198857 0 1 0 0 108.397715 54.198857 54.198857 0 0 0 0-108.397715z"></path></svg>
