<svg xmlns="http://www.w3.org/2000/svg" viewBox="0 0 1024 1024">
    <path d="M837.81836 15.26695s-34.30176-34.30177-68.60353 0L68.76221 715.71957l-17.8524 17.8524 195.0701 195.11848 28.59287 28.59286 15.82042 15.82042 34.205-34.205-.04838-.04838L871.9266 391.47357l.04838.04838 34.205-34.205-.04838-.04838 102.56662-102.56662c34.30176-34.30176 0-68.60352 0-68.60352zm-547.5703 889.28164L119.41658 733.7171l547.37677-547.42516 170.83149 170.83148zM871.82984 322.9668 700.99835 152.13533 803.56498 49.5687l170.83148 170.83148z"/>
    <path d="m66.24643 957.71874 35.99508-172.7667-51.91226-51.91226L.06193 1023.95162l290.2829-50.94465-15.77205-15.72366-28.54448-28.59286Z"/>
</svg>
