<svg xmlns="http://www.w3.org/2000/svg" width="512" height="512" viewBox="0 0 1024 1024">
    <path d="M355.847 447.86c0 18.554-3.439 34.19-10.316 46.909-6.877 12.718-16.146 22.968-27.807 30.749-11.661 7.78-25.116 13.467-40.366 17.058-15.249 3.591-31.096 5.387-47.541 5.387h-38.123v119.855H115V350h116.611c17.342 0 33.563 1.72 48.663 5.162s28.255 8.978 39.468 16.61c11.213 7.63 20.033 17.656 26.462 30.075 6.428 12.42 9.643 27.757 9.643 46.012zm-76.695.448c0-7.482-1.495-13.616-4.485-18.405-2.99-4.788-7.026-8.529-12.11-11.222-5.082-2.693-10.838-4.489-17.267-5.387-6.428-.898-13.08-1.346-19.958-1.346h-33.638v74.965h32.292c7.177 0 14.054-.599 20.632-1.796s12.483-3.291 17.716-6.284c5.232-2.993 9.343-6.958 12.333-11.896s4.485-11.147 4.485-18.629m244.011 82.148c0-11.672-3.662-21.697-10.988-30.076-7.326-8.38-18.314-12.57-32.965-12.57-7.176 0-13.754 1.123-19.734 3.367-5.98 2.245-11.213 5.312-15.698 9.203-4.485 3.89-8.073 8.454-10.764 13.691s-4.186 10.699-4.485 16.385zm67.724 28.28v8.978c0 2.993-.15 5.836-.448 8.53h-161.91c.598 6.284 2.467 11.97 5.606 17.057 3.14 5.088 7.176 9.502 12.11 13.243 4.933 3.74 10.465 6.658 16.595 8.753s12.483 3.142 19.06 3.142c11.662 0 21.53-2.17 29.602-6.509 8.073-4.34 14.651-9.95 19.734-16.833l51.13 32.32q-15.6975 22.8945-41.487 35.238c-17.193 8.23-37.15 12.345-59.875 12.345-16.744 0-32.591-2.619-47.542-7.856-14.95-5.237-28.03-12.868-39.244-22.893-11.212-10.026-20.033-22.37-26.461-37.034-6.429-14.664-9.643-31.423-9.643-50.276 0-18.256 3.14-34.79 9.418-49.603 6.28-14.814 14.801-27.383 25.565-37.707 10.764-10.325 23.472-18.33 38.123-24.016s30.498-8.53 47.541-8.53c16.446 0 31.545 2.769 45.3 8.305 13.753 5.537 25.564 13.542 35.431 24.016s17.566 23.193 23.098 38.156 8.297 32.021 8.297 51.174m192.59-54.316c-3.29-.898-6.504-1.496-9.643-1.796-3.14-.299-6.205-.449-9.195-.449-9.867 0-18.164 1.796-24.892 5.387-6.727 3.591-12.11 7.93-16.146 13.018s-6.951 10.624-8.745 16.61c-1.795 5.985-2.692 11.222-2.692 15.71v114.918H638.61v-223.55h70.863v32.32h.897c5.682-11.372 13.755-20.649 24.22-27.831s22.574-10.774 36.329-10.774q4.485 0 8.745.45c2.84.299 5.158.747 6.952 1.346l-3.14 64.64zm52.071 163.398V350H910v317.818z"/>
</svg>
