<svg xmlns="http://www.w3.org/2000/svg" width="256" height="256" class="icon" viewBox="0 0 1024 1024">
    <path d="M924.12926.29991H100.3706C45.3867.29991.39988 45.28673.39988 100.27062V924.0293C.39988 979.01318 45.3867 1024 100.3706 1024h823.75866c54.98389 0 99.97071-44.98682 99.97071-99.97071V100.27062c0-54.98389-44.98682-99.9707-99.97071-99.9707m54.98389 923.72938c0 14.59572-5.7983 28.39168-16.19525 38.78863s-24.19292 16.19526-38.78864 16.19526H100.3706c-14.59573 0-28.39169-5.7983-38.78864-16.19526S45.3867 938.62502 45.3867 924.0293V315.20765h933.72645zM45.3867 270.22083v-169.9502c0-14.59573 5.7983-28.39169 16.19526-38.78864 10.39695-10.49693 24.19291-16.19526 38.78863-16.19526h823.75867c14.59572 0 28.39168 5.7983 38.78863 16.19526 10.39696 10.39695 16.19526 24.19291 16.19526 38.78863v169.95021z"/>
    <path d="M157.85375 135.26037c-12.39636 0-22.4934 10.09704-22.4934 22.49341s10.09704 22.49341 22.4934 22.49341 22.49341-10.09704 22.49341-22.4934-10.09704-22.49342-22.4934-22.49342m134.96047 0c-12.39637 0-22.49341 10.09704-22.49342 22.49341s10.09705 22.49341 22.49341 22.49341 22.49341-10.09704 22.49341-22.4934-10.09704-22.49342-22.4934-22.49342m134.96046 0c-12.39637 0-22.49341 10.09704-22.49341 22.49341s10.09704 22.49341 22.4934 22.49341 22.49341-10.09704 22.49342-22.4934-10.09705-22.49342-22.49341-22.49342M192.34365 536.64278h81.37616c54.88392 0 97.07156 16.99502 97.07156 69.17973 0 50.38524-42.48755 73.0786-95.77194 73.0786h-33.0903v78.477h-49.58548zm79.37674 107.36855c34.18999 0 50.58518-12.79626 50.58518-38.18882 0-25.69247-18.0947-34.28995-52.1847-34.28995h-28.19175v72.47877zm143.85786-107.36855h49.58547v86.77458h93.67256v-86.77458h49.18559v220.73533h-49.1856v-95.47203h-93.77252v95.47203h-49.58547V536.64278zm253.42575 0h81.37616c54.88392 0 97.07156 16.99502 97.07156 69.17973 0 50.38524-42.48755 73.0786-95.77194 73.0786h-33.0903v78.477H669.004zm79.37675 107.36855c34.18998 0 50.58518-12.79626 50.58518-38.18882 0-25.69247-18.0947-34.28995-52.18471-34.28995h-28.09177v72.47877z"/>
</svg>
