<svg xmlns="http://www.w3.org/2000/svg" width="1648" height="1024" viewBox="0 0 1648 1024">
    <path d="M500.47588 363.50354h-86.92475L377.991 579.49839h80.99807s98.77813 0 103.38778-140.26495a59.9254 59.9254 0 0 0-61.90097-76.38842zm740.1775 0h-86.92476l-35.56013 215.99485h80.99807s98.77813 0 103.38778-140.26495a59.9254 59.9254 0 0 0-61.90096-76.38842zM823.80965.65852C369.43023.65852.65852 229.8238.65852 512.32926S369.43022 1024 823.80965 1024s823.15112-229.16527 823.15112-511.67074S1278.18907.65852 823.80965.65852m-368.7717 658.5209h-88.2418l-25.0238 136.31383h-93.50997l84.9492-511.67074h197.55627c77.04694 0 156.72797 65.85209 120.50932 213.36077A191.6296 191.6296 0 0 1 453.7209 660.49646zm422.11189 0s22.38971-119.19228 32.26752-201.5074c3.95113-34.24308 21.7312-91.5344-25.0238-91.5344h-98.1196l-49.38907 293.70032h-92.85145l86.92476-514.30482h94.827l-23.70674 137.63087h98.11961a98.77814 98.77814 0 0 1 111.94855 115.24116c-15.14598 126.436-44.1209 263.40836-44.1209 263.40836h-92.85144zm515.62186-163.31318a191.6296 191.6296 0 0 1-197.55627 163.31318h-87.58328l-25.02379 136.31383h-94.16849l84.9492-511.67074h197.55627c77.04694 0 156.72797 65.85209 120.50932 213.36077zm0 0"/>
</svg>
