<svg xmlns="http://www.w3.org/2000/svg" width="512" height="512" class="icon" viewBox="0 0 1024 1024">
    <path fill="#ccc" d="M582.99975 295.8564 455.50632 653.29029l101.99474-6.38281zm152.99573 331.89902 19.1231-414.87559s-51.78255 220.77874-178.49441 421.25479zm44.6218-6.38281c107.00256-11.4992 108.37393-12.762 108.37393-12.762L761.49416 385.21215s31.0131 117.6623 19.12311 236.16045m25.5023-197.86358c3.28186 31.30618 8.6045 44.8968 25.49868 70.20732 16.8942 25.31777 74.07536 65.4564 133.869 82.97657C940.80997 542.5246 774.2417 251.1767 774.2417 251.1767s37.97484 115.96528 31.87788 172.33232m-140.2482 229.77764c-59.83706 5.1381-216.74064 25.52763-216.74064 25.52763l38.24622 63.83175s88.62123-53.69668 191.24557-44.67969c63.51695 4.31672 98.71288 12.04919 114.74951 19.14482 16.03302 7.10287 40.82612 11.23144 57.36933-12.762s65.74225-87.61171 152.99573-95.73858c-152.09475 16.92314-278.02866 39.53074-337.86572 44.67607m-44.6218-389.34796c13.39884 9.57784 18.36325 7.5407 25.49869 0 7.13905-7.53707 17.51655-8.28607 31.87426 0 1.4582-10.44263-8.63344-19.14482-19.12311-19.14482-14.88237 0-14.35771 12.76201-25.49868 12.76201-16.78926-13.56167-36.05349-14.14423-38.24622 6.38281-.00362 0 12.0926-9.57783 25.49506 0m-76.49605 497.85216c17.18366-8.79265 19.1231-12.762 19.1231-12.762v-12.76202s-12.83437 20.70796-31.87425 25.52764c-19.0399 4.82691-38.24622 0-38.24622 0v6.39005c0-.00724 31.40387 1.59932 50.99737-6.39367m19.1231 0c-13.18173 8.08345-22.46648 12.76924-31.87425 12.76924H500.1281v6.38282h38.24622s26.45032-3.21674 38.24622-12.76201c11.80314-9.55613 27.57563-8.04365 51.001-6.39005v-12.762H589.3717c.00362-.00363-12.31694 4.67493-25.49506 12.762m267.74163-31.91045c-16.36229 9.05318-34.68574 24.0622-57.37295 25.52764-22.6872 1.46182-38.24621 0-38.24621 0v12.76924h19.1231s19.60436.68387 51.001-12.76924c30.3871-13.01891 51.34473-15.03797 63.7449-12.76201v-19.15206s-21.88755-2.67398-38.24984 6.38643m-38.24984-6.38643s-82.56407-22.5099-101.99474-19.14482c-19.43429 3.3651-62.56893 4.75093-76.49967 6.38282-13.93436 1.63188-59.13148 2.68483-95.62279 31.91406l6.37558 6.38281s53.93549-32.48215 89.2472-31.91406 69.85635-6.9111 114.7459 0c39.36792 6.0644 63.74852 12.76924 63.74852 12.76924zM659.9879 302.1379c-14.20574-13.45673-30.50652-14.03567-32.36274 6.33578 0 0 10.23638-9.50547 21.57637 0s15.5373 7.47556 21.57636 0c6.03907-7.47918 14.82087-8.22457 26.97137 0 1.23386-10.36303-7.30912-19.00009-16.185-19.00009-12.59193 0-12.14687 12.66431-21.57636 12.66431"/>
    <path fill="#6c78af" d="M34.64956 663.07076h18.77212l-1.58485 7.51174c4.00193-3.3072 7.75418-5.6736 11.24953-7.09925s7.2476-2.13846 11.24953-2.13846q11.52813 0 18.5297 7.92424c4.67132 5.28645 7.00517 13.16727 7.00517 23.63884 0 13.18898-4.02726 24.32995-12.07814 33.42293-6.90024 7.76503-15.07053 11.65117-24.50001 11.65117q-14.56215 0-22.0142-11.78867l-7.9387 37.98208H13.5291zm11.94063 41.97314c0 5.69532 1.38946 10.1206 4.1756 13.26496 2.78615 3.14799 6.06078 4.72198 9.83475 4.72198 3.26739 0 6.419-1.17959 9.45481-3.546s5.5542-6.29236 7.55517-11.78505 3.00325-10.58013 3.00325-15.26592c0-5.47099-1.31347-9.66106-3.93318-12.5811q-3.93498-4.3746-10.00842-4.3746c-3.77396 0-7.21504 1.34241-10.3196 4.03086-3.10457 2.68484-5.51079 6.63972-7.21504 11.85018-1.69702 5.2177-2.54734 9.78046-2.54734 13.6847m79.78516 31.21934h-19.80698l21.18558-101.03226h19.8106l-7.59135 35.97026c4.46146-3.4881 8.6262-6.00288 12.49063-7.5443a33.231 33.231 0 0 1 12.4255-2.31215c5.93413 0 10.63078 1.70426 14.0791 5.10191s5.17789 7.8555 5.17789 13.36628q0 4.4126-1.93221 13.64489l-8.97357 42.79813h-19.80698l9.17981-43.62674c.9661-4.73284 1.44735-7.76503 1.44735-9.0966 0-2.43516-.75986-4.38908-2.27596-5.85814-1.51971-1.46906-3.58943-2.2036-6.21275-2.2036-3.31443 0-6.48774 1.14703-9.52356 3.4447a29.9095 29.9095 0 0 0-9.04232 11.1663c-1.15064 2.43517-2.67036 8.15582-4.55553 17.15833zm80.95751-73.19248H226.105l-1.58485 7.51174c4.00192-3.3072 7.75418-5.6736 11.24953-7.09925s7.2476-2.13846 11.24952-2.13846q11.52815 0 18.5297 7.92424c4.67132 5.28645 7.00517 13.16727 7.00517 23.63884 0 13.18898-4.02725 24.32995-12.07813 33.42293-6.90024 7.76503-15.07053 11.65117-24.50001 11.65117q-14.56215 0-22.0142-11.78867l-7.9351 37.97484h-19.8106zm11.93702 41.97314c0 5.69532 1.38946 10.1206 4.1756 13.26496 2.78615 3.14799 6.06078 4.72198 9.83475 4.72198 3.26739 0 6.419-1.17959 9.4548-3.546s5.55421-6.29236 7.55518-11.78505 3.00325-10.58013 3.00325-15.26592c0-5.47099-1.31347-9.66106-3.93318-12.5811q-3.93498-4.3746-10.00842-4.3746c-3.77397 0-7.21504 1.34241-10.3196 4.03086-3.10457 2.68484-5.51079 6.63972-7.21504 11.85018-1.6934 5.2177-2.54734 9.78046-2.54734 13.6847"/>
    <path fill="#fb9800" d="M337.2904 736.26324h-19.73823l-3.65818-84.42392-16.08005 84.42392H279.0418l21.12045-101.03226h29.67791l3.10457 70.77903 34.50843-70.77903h30.02166l-21.18559 101.03226h-18.98199l19.94448-83.80518zm65.56857-73.19248h19.73823l4.97165 36.45874c1.2411 9.37159 1.93221 15.94256 2.0697 19.70928 2.5763-7.49003 6.11868-15.39256 10.6308-23.7112l17.53102-32.46044h20.97933L433.50298 743.424c-3.72692 6.66505-6.6578 11.32551-8.79989 13.99225a23.1865 23.1865 0 0 1-7.72884 6.26703c-3.0141 1.51972-6.6361 2.27596-10.8696 2.27596-4.18646 0-8.9012-.73453-14.14784-2.2036l1.72596-14.74849c2.39175.6875 4.71836 1.03486 6.9726 1.03486 6.07526 0 11.065-4.59896 14.97646-13.78601zm138.86598 50.86349h-40.09883l-12.14688 22.32899h-21.39545l57.21374-101.03226h23.12503l16.4238 101.03226h-19.73823zm-2.55457-16.81459-5.8654-40.65967-24.43126 40.65967zm105.94238 39.14358h-18.77212l1.65721-7.92424c-3.58943 3.44469-7.12458 5.91604-10.59822 7.41043-3.47364 1.49077-7.39596 2.23977-11.76695 2.23977-7.59135 0-13.7462-2.58714-18.46457-7.7578-4.71474-5.16703-7.07392-12.80542-7.07392-22.91516 0-11.71268 3.31443-22.30366 9.93968-31.76933 6.62524-9.46205 15.39256-14.1985 26.29834-14.1985 9.8456 0 17.2307 3.90785 22.1517 11.7163l7.9387-37.83373h19.80699zm-45.76158-29.7756c0 5.2394 1.3207 9.32816 3.96936 12.2699s5.90157 4.4108 9.76599 4.4108c3.5858 0 6.93642-1.22663 10.04099-3.68712s5.59039-6.21637 7.45385-11.26762 2.79339-9.89988 2.79339-14.54225c0-5.28283-1.42926-9.55975-4.28054-12.8199s-6.14038-4.89566-9.87093-4.89566c-5.80025 0-10.55841 3.22035-14.28534 9.6502s-5.58677 13.39523-5.58677 20.88164m79.09767-43.41688h18.63463l-1.86708 8.89034c7.27293-7.07392 14.9077-10.6163 22.91516-10.6163 5.51802 0 9.77685 1.15064 12.76563 3.4483 2.9924 2.29767 4.89928 5.46737 5.72788 9.5091 2.52925-3.67628 6.16571-6.7519 10.9094-9.2341 4.74007-2.4822 9.66106-3.7233 14.76659-3.7233 5.84368 0 10.3992 1.56675 13.6666 4.6894 3.26377 3.12266 4.89928 7.25846 4.89928 12.4038 0 2.52924-.64407 6.893-1.9286 13.09489l-9.38968 44.72673h-19.80698l9.38607-44.72673c1.14702-5.60486 1.72596-8.77456 1.72596-9.50909 0-2.02267-.6115-3.61837-1.82728-4.79073-1.22301-1.16873-3.05029-1.7549-5.48907-1.7549-4.92461 0-9.31732 2.59437-13.18536 7.78673-2.80424 3.7197-5.1996 10.316-7.17524 19.77804l-6.9726 33.2203h-19.8106l9.25218-44.24549c1.05656-5.1019 1.58485-8.4091 1.58485-9.9252 0-1.9286-.65855-3.51706-1.9684-4.75454s-3.11542-1.85985-5.4167-1.85985c-2.1638 0-4.39633.64407-6.69762 1.9286s-4.30948 3.05752-6.03906 5.30815c-1.72597 2.25063-3.2095 5.14533-4.44699 8.68048-.5536 1.6536-1.45097 5.39862-2.69207 11.23144l-7.03774 33.63279h-19.8106zm126.30298 0h19.80698l-15.3202 73.19248h-19.80698zm5.79664-27.83978h19.8106l-3.72693 17.9182h-19.80698zm33.74858 27.83978h18.77212l-1.9322 9.5127c4.69302-4.04172 9.07487-6.92918 13.14916-8.65153a32.638 32.638 0 0 1 12.87056-2.58714c6.02821 0 10.77914 1.72597 14.25278 5.17066 3.47364 3.4447 5.20684 8.01832 5.20684 13.71364 0 2.57628-.75986 7.44661-2.27596 14.611l-8.62982 41.41953h-19.80698l8.69495-41.55703c1.28453-6.2019 1.9286-9.89988 1.9286-11.09394 0-2.52562-.74539-4.51211-2.23978-5.95946-1.498-1.44373-3.57857-2.17103-6.24893-2.17103-2.89832 0-6.11867 1.21578-9.66106 3.65094a25.4915 25.4915 0 0 0-8.35483 9.6502c-1.47268 2.84767-3.12627 8.6624-4.96803 17.43334l-6.2815 30.0506H828.966z"/>
</svg>
