<svg class="icon" viewBox="0 0 1024 1024" version="1.1" xmlns="http://www.w3.org/2000/svg"
     width="512" height="512">
  <path
    d="M334.208 282.069333v-2.346666c0-42.666667-28.458667-64-75.861333-64H187.264v130.389333h73.472c47.402667-0.042667 73.472-28.501333 73.472-64.042667zM0 0v1024h1024V0H0z m92.458667 132.736h173.056c101.930667 0 163.541333 59.264 163.541333 146.986667v2.346666c0 99.541333-75.861333 149.333333-173.056 149.333334H184.874667v128H92.458667v-426.666667zM481.194667 896h-384v-64h384V896zM789.333333 436.138667c0 85.333333-64 132.736-156.458666 132.736-64-2.389333-128-26.069333-180.138667-71.125334l54.528-66.389333c37.973333 30.805333 78.208 52.138667 128 52.138667 37.930667 0 61.610667-14.208 61.610667-40.277334v-2.389333c0-23.68-14.208-35.541333-85.333334-54.485333C526.208 365.013333 469.333333 341.333333 469.333333 256v-2.389333c0-78.208 61.610667-128 149.333334-128 61.610667 0 116.181333 18.944 158.848 54.528l-49.792 71.125333c-37.930667-26.069333-75.818667-42.666667-111.402667-42.666667-35.541333 0-54.528 16.597333-54.528 37.930667v2.389333c0 28.458667 18.986667 37.930667 92.458667 56.874667 85.333333 23.722667 135.125333 54.528 135.125333 128v2.346667z"
    ></path>
</svg>
