<svg xmlns="http://www.w3.org/2000/svg" width="512" height="512" class="icon" viewBox="0 0 1024 1024">
    <path d="M334.208 282.06933v-2.34666c0-42.66667-28.45867-64-75.86133-64H187.264V346.112h73.472c47.40267-.04267 73.472-28.50133 73.472-64.04267M0 0v1024h1024V0zm92.45867 132.736h173.056C367.44533 132.736 429.056 192 429.056 279.72267v2.34666c0 99.54134-75.86133 149.33334-173.056 149.33334h-71.12533v128h-92.416zM481.19467 896h-384v-64h384zm308.13866-459.86133c0 85.33333-64 132.736-156.45866 132.736-64-2.38934-128-26.06934-180.13867-71.12534L507.264 431.36c37.97333 30.80533 78.208 52.13867 128 52.13867 37.93067 0 61.61067-14.208 61.61067-40.27734V440.832c0-23.68-14.208-35.54133-85.33334-54.48533C526.208 365.01333 469.33333 341.33333 469.33333 256v-2.38933c0-78.208 61.61067-128 149.33334-128 61.61066 0 116.18133 18.944 158.848 54.528l-49.792 71.12533C689.792 225.19467 651.904 208.59733 616.32 208.59733c-35.54133 0-54.528 16.59734-54.528 37.93067v2.38933c0 28.45867 18.98667 37.93067 92.45867 56.87467 85.33333 23.72267 135.12533 54.528 135.12533 128v2.34667z"/>
</svg>
