<svg xmlns="http://www.w3.org/2000/svg" width="1024" height="1024" class="icon" viewBox="0 0 1024 1024">
    <path d="M213.33333 65.38667a85.3333 85.3333 0 0 1 43.904 12.16l602.13334 361.28a85.33333 85.33333 0 0 1 0 146.34666l-602.13334 361.28A85.33333 85.33333 0 0 1 128 873.28V150.72a85.33333 85.33333 0 0 1 85.33333-85.33333m0 64a21.33333 21.33333 0 0 0-21.184 18.83733L192 150.72v722.56a21.33333 21.33333 0 0 0 30.10133 19.456l2.19734-1.152 602.15466-361.30133a21.33333 21.33333 0 0 0 2.048-35.17867l-2.048-1.38667L224.29867 132.416a21.3333 21.3333 0 0 0-10.96534-3.02933"/>
</svg>
