<svg class="icon" viewBox="0 0 1024 1024" version="1.1" xmlns="http://www.w3.org/2000/svg"
     >
  <path
    d="M657.732 219.396c-21.998 0-39.942 17.968-39.942 40 0.002 22.032 17.944 40 39.942 40 22 0 39.944-17.968 39.944-40s-17.944-40-39.944-40zM614.384 561.37c-11.574 0-21.014 9.4-21.014 20.924s9.44 20.922 21.014 20.922c11.572 0 21.014-9.398 21.014-20.922 0-11.524-9.44-20.924-21.014-20.924zM614.384 665.8c-11.574 0-21.014 9.398-21.014 20.922 0 11.524 9.44 20.922 21.014 20.922 11.572 0 21.014-9.398 21.014-20.922 0-11.524-9.44-20.922-21.014-20.922zM690.18 613.684c-11.574 0-21.014 9.398-21.014 20.922 0 11.524 9.44 20.922 21.014 20.922s21.014-9.398 21.014-20.922-9.44-20.922-21.014-20.922zM860.276 652.468c-10.888-1.886-21.24 5.394-23.13 16.278-0.042 0.242-0.102 0.616-0.134 0.858-1.492 10.946 6.17 21.028 17.114 22.52 0.918 0.126 1.828 0.186 2.728 0.186 9.706 0 18.184-7.072 19.73-16.882 1.784-10.82-5.484-21.076-16.308-22.96zM847.548 711.35c-9.524-5.606-21.78-2.422-27.378 7.098-19.096 32.464-56.412 57.398-97.386 65.078-10.858 2.034-18.008 12.484-15.974 23.34 1.802 9.614 10.2 16.32 19.634 16.32 1.222 0 2.462-0.114 3.706-0.346 52.794-9.894 99.334-41.338 124.496-84.112 5.6-9.52 2.422-21.778-7.098-27.378zM366.266 219.396c-21.998 0-39.942 17.968-39.942 40s17.944 40 39.942 40c22 0 39.942-17.968 39.942-40s-17.942-40-39.942-40z"
    ></path>
  <path
    d="M895.406 480.55a391.936 391.936 0 0 0 10.136-88.638C905.544 175.81 729 0 512 0 294.998 0 118.456 175.81 118.456 391.912c0 29.908 3.406 59.656 10.136 88.638-58.506 38.978-85.41 102.81-74.094 177.438 7.932 52.312 34.178 104.904 73.902 148.09 19.83 21.558 42.006 39.74 65.892 54.302 14.264 45.52 27.078 81.894 47.678 127.422 9.492 20.976 29.652 35.164 51.358 36.14 0.836 0.04 1.666 0.056 2.494 0.056 20.488 0 38.67-11.478 50.172-31.802l14.384-25.412c44.57 19.876 97.628 30.706 151.62 30.706 53.99 0 107.048-10.83 151.622-30.706l14.382 25.412C689.506 1012.522 707.688 1024 728.178 1024c0.826 0 1.66-0.018 2.494-0.056 21.708-0.978 41.866-15.166 51.356-36.142 20.606-45.542 33.422-81.914 47.678-127.42 23.886-14.562 46.06-32.744 65.892-54.302 39.724-43.186 65.97-95.778 73.904-148.09 11.316-74.628-15.59-138.46-74.096-177.44zM512 40c194.946 0 353.544 157.868 353.544 351.912 0 23.49-2.34 46.868-6.968 69.766-64.986-27.65-149.46-48.648-229.296-56.8-13.2-30.634-59.232-52.008-117.278-52.008s-104.08 21.374-117.278 52.008c-79.836 8.152-164.312 29.15-229.296 56.8a352.034 352.034 0 0 1-6.97-69.766C158.456 197.868 317.054 40 512 40z m81.112 383.204c0 14.632-33.656 60.538-81.112 60.538-47.458 0-81.114-45.906-81.114-60.538 0-10.696 30.794-30.336 81.114-30.336 50.316 0 81.112 19.64 81.112 30.336zM311.186 972.494c-3.076 5.434-8.338 11.866-16.056 11.49-6.706-0.3-13.422-5.394-16.716-12.672-14.104-31.176-24.442-57.996-34.224-86.806 12.29 4.51 24.86 8.198 37.688 10.924 18.808 3.996 37.706 6.024 56.16 6.024 4.55 0 9.072-0.13 13.57-0.368l-40.422 71.408z m26.85-111.04c-15.668 0-31.766-1.732-47.848-5.15-24.634-5.234-47.384-14.224-68.028-25.914a20.084 20.084 0 0 0-1.932-1.134c-71.118-41.13-116.662-114.474-126.182-177.264-5.57-36.738-4.252-104.276 66.888-144.372 61.398-29.744 151.692-53.71 234.562-62.608 5.8 14.768 16.81 30.264 31.542 43.674 19.294 17.568 41.822 28.966 64.962 33.192v274.572c-45.876 43.132-97.632 65.004-153.964 65.004z m42.146 70.344l21.844-38.59c39.3-10.444 76.088-30.776 109.974-60.834 33.886 30.056 70.672 50.388 109.972 60.832l21.844 38.592c-79.484 34.228-184.144 34.23-263.634 0z m365.404 39.514c-3.292 7.278-10.012 12.372-16.716 12.672-7.66 0.37-12.978-6.056-16.056-11.49l-40.418-71.408c4.496 0.236 9.018 0.368 13.57 0.368h0.006c18.45 0 37.346-2.028 56.154-6.024 12.828-2.726 25.398-6.414 37.688-10.924-9.782 28.802-20.118 55.624-34.228 86.806z m184.368-319.322c-9.524 62.796-55.07 136.148-126.202 177.276a19.432 19.432 0 0 0-1.9 1.116c-20.644 11.694-43.398 20.688-68.04 25.922-16.084 3.418-32.18 5.15-47.844 5.15h-0.004c-56.334 0-108.092-21.874-153.964-65.004V521.878c23.14-4.224 45.668-15.624 64.96-33.192 14.73-13.41 25.738-28.906 31.54-43.674 82.876 8.896 173.168 32.864 234.566 62.608 71.142 40.096 72.458 107.634 66.888 144.37z"
    ></path>
  <path
    d="M409.616 561.368c-11.574 0-21.014 9.4-21.014 20.924s9.44 20.922 21.014 20.922 21.014-9.398 21.014-20.922c0-11.524-9.44-20.924-21.014-20.924zM409.616 665.8c-11.574 0-21.014 9.398-21.014 20.922 0 11.524 9.44 20.922 21.014 20.922s21.014-9.398 21.014-20.922c0-11.524-9.44-20.922-21.014-20.922zM333.82 613.684c-11.574 0-21.014 9.398-21.014 20.922 0 11.524 9.44 20.922 21.014 20.922s21.012-9.398 21.012-20.922c0-11.524-9.438-20.922-21.012-20.922zM186.99 669.602l-0.04-0.274c-1.55-10.816-11.528-18.4-22.382-16.988-10.954 1.428-18.674 11.464-17.246 22.418l0.06 0.436c1.45 9.932 9.98 17.114 19.766 17.114 0.898 0 1.81-0.06 2.728-0.186 10.944-1.492 18.606-11.574 17.114-22.52zM301.216 783.526c-40.974-7.68-78.292-32.616-97.386-65.078-5.6-9.52-17.862-12.7-27.378-7.098-9.52 5.6-12.698 17.858-7.098 27.38 25.16 42.772 71.7 74.216 124.494 84.11 1.244 0.232 2.484 0.346 3.708 0.346 9.436 0 17.832-6.708 19.634-16.32 2.034-10.856-5.118-21.306-15.974-23.34z"
    ></path>
</svg>
