<svg xmlns="http://www.w3.org/2000/svg" width="512" height="512" class="icon" viewBox="0 0 1024 1024">
    <path d="M704 490.66667H320c-12.8 0-21.33333 8.53333-21.33333 21.33333v170.66667C298.66667 695.46667 307.2 704 320 704h32v-74.66667c0-17.06666 14.93333-32 32-32s32 14.93334 32 32V704h64v-74.66667c0-17.06666 14.93333-32 32-32s32 14.93334 32 32V704h64v-74.66667c0-17.06666 14.93333-32 32-32s32 14.93334 32 32V704h32c12.8 0 21.33333-8.53333 21.33333-21.33333V512c0-12.8-8.53333-21.33333-21.33333-21.33333"/>
    <path d="M832 256H729.6L672 134.4c-6.4-17.06667-21.33333-27.73333-40.53333-27.73333H392.53333C375.46667 106.66667 358.4 117.33333 352 134.4L294.4 256H192c-46.93333 0-85.33333 38.4-85.33333 85.33333V832c0 46.93333 38.4 85.33333 85.33333 85.33333h640c46.93333 0 85.33333-38.4 85.33333-85.33333V341.33333C917.33333 294.4 878.93333 256 832 256m-42.66667 469.33333c0 23.46667-19.2 42.66667-42.66666 42.66667H277.33333c-23.46666 0-42.66666-19.2-42.66666-42.66667v-256c0-23.46666 19.2-42.66666 42.66666-42.66666h469.33334c23.46666 0 42.66666 19.2 42.66666 42.66666z"/>
</svg>
