<svg xmlns="http://www.w3.org/2000/svg" width="1024" height="1024" class="icon" viewBox="0 0 1024 1024">
    <path d="M730.79467 0A432.384 432.384 0 0 0 613.248 17.19467l-2.688.85333a466.005 466.005 0 0 0-72.96-7.04c-50.26133-.85333-93.44 11.34933-128.256 31.65867C375.04 30.76267 303.872 10.24 228.864 14.336 176.64 17.19467 119.63733 33.06667 77.39733 77.65333 35.28533 122.24 13.01333 191.232 17.70667 285.09867c1.28 25.89866 8.66133 68.13866 20.90666 122.83733s29.44 118.74133 50.90134 177.152c21.46133 58.45333 44.97066 110.93333 81.70666 146.60267 18.34667 17.87733 43.60534 32.896 73.38667 31.65866 20.90667-.85333 39.808-10.02666 56.10667-23.552 7.936 10.45334 16.42666 15.01867 24.14933 19.24267 9.728 5.33333 19.2 8.96 29.01333 11.34933C371.49867 774.784 401.664 780.672 436.992 774.656c12.032-2.00533 24.704-5.93067 37.33333-11.52.46934 14.08 1.024 27.86133 1.57867 41.81333 1.74933 44.20267 2.85867 85.03467 16.128 120.832 2.13333 5.84534 7.97867 35.968 31.01867 62.54934 23.04 26.624 68.18133 43.22133 119.59466 32.21333 36.26667-7.76533 82.38934-21.76 113.024-65.36533 30.29334-43.09334 43.94667-104.91734 46.63467-205.184a201.8 201.8 0 0 1 2.34667-14.336l7.21066.64h.85334c38.69866 1.74933 80.68266-3.75467 115.75466-20.05334 31.06134-14.37866 54.57067-28.928 71.68-54.74133 4.26667-6.4 8.96-14.12267 10.24-27.43467S1004.032 599.936 991.36 590.336c-25.38667-19.28533-41.344-11.94667-58.45333-8.40533a267.52 267.52 0 0 1-51.28534 6.22933C930.944 505.088 966.31467 416.85333 986.496 338.77333c11.94667-46.08 18.64533-88.576 19.2-125.73866s-2.47467-70.05867-24.74667-98.51734C911.36 25.6 813.52533 1.024 737.83467.17067 735.488.128 733.14133.08533 730.79467.128zm-2.00534 27.30667c71.59467-.68267 163.072 19.41333 228.736 103.33866 14.76267 18.85867 19.15734 46.42134 18.64534 80.384-.55467 33.92-6.82667 74.53867-18.304 119.04-22.272 86.18667-64.34134 186.66667-123.60534 276.82134a32.256 32.256 0 0 0 6.74134 3.66933c12.37333 5.12 40.576 9.51467 96.85333-2.048 14.16533-2.98667 24.53333-4.992 35.28533 3.2a22.1867 22.1867 0 0 1 7.808 18.13333 30.0373 30.0373 0 0 1-5.54666 14.336c-10.88 16.34134-32.34134 31.82934-59.86134 44.58667-24.36266 11.34933-59.30666 17.28-90.28266 17.62133-15.53067.17067-29.86667-1.024-42.02667-4.82133l-.768-.29867c-4.69333 45.22667-15.488 134.528-22.528 175.27467-5.632 32.85333-15.488 58.96533-34.304 78.50667-18.77333 19.54133-45.35467 31.31733-81.10933 38.99733-44.288 9.51467-76.58667-.72533-97.408-18.26133-20.77867-17.49334-30.29334-40.704-36.01067-54.912-3.92533-9.81334-5.97333-22.528-7.936-39.50934-1.96267-16.98133-3.41333-37.76-4.39467-61.184a2194.2 2194.2 0 0 1-1.28-107.648A130.6027 130.6027 0 0 1 431.27467 744.96c-29.39734 4.992-55.63734.08533-71.296-3.84a97.11 97.11 0 0 1-22.18667-8.576c-7.25333-3.88267-14.16533-8.27733-18.77333-16.93867a23.8933 23.8933 0 0 1-2.432-16.256 26.0267 26.0267 0 0 1 9.30133-14.12266c8.448-6.86934 19.62667-10.70934 36.48-14.208 30.67733-6.31467 41.38667-10.624 47.91467-15.78667 5.54666-4.43733 11.81866-13.39733 22.912-26.53867a49.5 49.5 0 0 1-.128-1.74933A126.293 126.293 0 0 1 376.32 611.66933c-6.4 6.74134-39.08267 41.30134-78.93333 89.25867-16.768 20.05333-35.28534 31.57333-54.82667 32.384-19.54133.85333-37.20533-9.00267-52.224-23.552-29.99467-29.14133-53.93067-79.27467-74.79467-135.936-20.82133-56.66133-37.76-119.76533-49.792-173.52533-12.07466-53.76-19.2-97.10934-20.224-118.016-4.48-88.832 16.29867-148.69334 51.92534-186.45334 35.66933-37.76 84.56533-52.05333 132.224-54.784 85.54666-4.90666 166.784 24.91734 183.21066 31.31734 31.65867-21.504 72.448-34.90134 123.392-34.048A315.307 315.307 0 0 1 608 47.616l.85333-.384a292.44 292.44 0 0 1 31.53067-9.13067A410.71 410.71 0 0 1 728.74667 27.392zm6.48534 28.58666h-6.22934a372.907 372.907 0 0 0-72.704 8.192c53.16267 23.552 93.312 59.81867 121.6 96a360.107 360.107 0 0 1 48.29867 81.92c4.69333 11.264 7.85067 20.77867 9.64267 28.16.896 3.712 1.49333 6.82667 1.70666 10.06934a18.773 18.773 0 0 1-.512 6.144c0 .128-.21333.42666-.256.55466 1.28 37.376-7.97866 62.72-9.088 98.38934-.85333 25.856 5.76 56.23466 7.38134 89.38666 1.536 31.14667-2.21867 65.36534-22.44267 98.944 1.70667 2.048 3.24267 4.096 4.864 6.144C871.04 495.53067 909.61067 402.304 930.176 322.816c11.008-42.79467 16.85333-81.57867 17.36533-112.29867.42667-30.72-5.29066-52.992-12.58666-62.29333-57.25867-73.216-134.74134-91.86133-199.68-92.37333zM530.90133 66.816c-50.432.128-86.61333 15.36-114.048 38.18667-28.288 23.59466-47.27466 55.89333-59.73333 88.96-14.80533 39.25333-19.88267 77.22666-21.888 102.99733l.55467-.34133c15.232-8.53334 35.24266-17.06667 56.66133-22.016 21.41867-4.90667 44.50133-6.44267 65.408 1.664s38.18667 27.17866 44.45867 56.10666c30.03733 138.96534-9.344 190.63467-23.85067 229.632a410.03 410.03 0 0 0-14.12267 43.22134c1.83467-.42667 3.66934-.93867 5.504-1.10934 10.24-.85333 18.26134 2.56 23.04 4.608 14.592 6.05867 24.61867 18.77334 30.03734 33.28 1.408 3.79734 2.432 7.89334 3.02933 12.11734a14.336 14.336 0 0 1 .85333 5.41866 2352.64 2352.64 0 0 0 .55467 159.488c.98133 22.95467 2.432 43.17867 4.26667 59.136 1.83466 15.91467 4.43733 28.032 6.10133 32.128 5.46133 13.65334 13.44 31.53067 27.86133 43.69067 14.42134 12.11733 35.11467 20.224 72.91734 12.11733 32.768-7.04 52.992-16.81066 66.51733-30.848 13.48267-14.03733 21.54667-33.57866 26.70933-63.488 7.72267-44.8 23.25334-174.72 25.13067-199.168-.85333-18.432 1.87733-32.59733 7.76533-43.392 6.05867-11.09333 15.44534-17.87733 23.552-21.54666 4.05334-1.83467 7.85067-3.072 10.96534-3.968a254.12 254.12 0 0 0-10.368-13.86667 190.123 190.123 0 0 1-28.416-46.89067 353.96 353.96 0 0 0-10.96534-20.608c-5.67466-10.24-12.84266-23.04-20.352-37.41866-15.01866-28.8-31.36-63.70134-39.85066-97.70667-8.448-33.96267-9.68534-69.12 11.98933-93.90933 19.2-22.016 52.90667-31.14667 103.50933-26.02667-1.49333-4.48-2.38933-8.192-4.90666-14.16533a333.525 333.525 0 0 0-44.416-75.264C712.49067 123.008 643.072 68.65067 535.808 66.90133h-4.90667zm-283.392 2.21867c-5.41866 0-10.83733.17066-16.21333.46933-43.09333 2.47467-83.84 14.976-112.98133 45.86667-29.184 30.89066-48.384 81.536-44.20267 165.376.81067 15.872 7.72267 60.33066 19.584 113.152 11.81867 52.82133 28.58667 114.98666 48.72533 169.89866 20.18134 54.912 44.62934 102.69867 67.84 125.312 11.69067 11.30667 21.84534 15.872 31.06134 15.488 9.25866-.42666 20.39466-5.76 34.00533-22.10133a1845.08 1845.08 0 0 1 77.22667-87.38133 149.2053 149.2053 0 0 1-49.792-134.4c4.39466-31.53067 4.992-61.01334 4.48-84.30934-.512-22.69866-2.13334-37.80266-2.13334-47.232a14.34 14.34 0 0 1 0-.81066v-.21334l-.04266-.256v-.04266A422.101 422.101 0 0 1 330.32533 183.808c11.94667-31.744 29.73867-64 56.40534-90.112-26.19734-8.61867-72.704-21.76-123.05067-24.23467a324.4 324.4 0 0 0-16.21333-.42666zM776.49067 294.4c-28.97067.384-45.22667 7.85067-53.76 17.62133C710.656 325.888 709.504 350.208 717.01333 380.16c7.46667 29.99467 22.912 63.53067 37.41867 91.392 7.25333 13.952 14.29333 26.496 19.968 36.69333 5.71733 10.24 9.89867 17.49334 12.45867 23.68 2.34666 5.71734 4.94933 10.752 7.59466 15.44534 11.22134-23.68 13.22667-46.93334 12.07467-71.168-1.49333-29.99467-8.448-60.672-7.424-91.73334 1.152-36.30933 8.32-59.94666 8.96-88.02133a247.17 247.17 0 0 0-31.57333-2.048m-351.31734 4.90667a120.32 120.32 0 0 0-26.28266 3.15733 199.04 199.04 0 0 0-49.19467 19.15733 103.125 103.125 0 0 0-14.89067 9.728l-.93866.85334c.256 6.22933 1.49333 21.33333 2.00533 43.56266.512 24.32-.08533 55.33867-4.77867 88.91734-10.19733 72.96 42.752 133.376 104.96 133.46133 3.62667-14.976 9.6-30.16533 15.57334-46.16533 17.32266-46.67734 51.41333-80.72534 22.69866-213.58934-4.69333-21.76-13.99466-30.54933-26.79466-35.49866a62.891 62.891 0 0 0-22.35734-3.584m337.792 8.704h2.13334a37.46 37.46 0 0 1 7.68.93866c2.304.512 4.26666 1.28 5.888 2.34667a6.9973 6.9973 0 0 1 3.2 4.69333l-.04267.34134h.04267-.04267a10.24 10.24 0 0 1-1.49333 5.76 28.501 28.501 0 0 1-4.69334 6.4A28.8853 28.8853 0 0 1 759.168 337.536a25.1733 25.1733 0 0 1-17.49333-4.39467 25.941 25.941 0 0 1-5.54667-5.03466 11.0933 11.0933 0 0 1-2.688-5.41867 7.2533 7.2533 0 0 1 1.792-5.46133 16.384 16.384 0 0 1 4.992-3.84c4.096-2.304 9.64267-4.01067 15.91467-4.94934 2.34666-.34133 4.65066-.512 6.82666-.55466zm-333.65333 7.168c2.26133 0 4.65067.21333 7.08267.55466 6.528.896 12.33066 2.64534 16.768 5.20534a19.029 19.029 0 0 1 5.67466 4.52266 9.5147 9.5147 0 0 1 2.304 7.25334 12.8853 12.8853 0 0 1-3.2 6.57066A27.69 27.69 0 0 1 451.84 344.832a27.3067 27.3067 0 0 1-19.11467 4.82133 31.0613 31.0613 0 0 1-17.92-9.728 30.293 30.293 0 0 1-5.03466-6.99733 11.9467 11.9467 0 0 1-1.74934-7.552c.64-4.608 4.43734-6.99733 8.14934-8.32a36.949 36.949 0 0 1 13.09866-1.70667zM815.872 628.48l-.128.04267c-6.272 2.26133-11.43467 3.2-15.78667 5.12a19.2853 19.2853 0 0 0-10.19733 9.13066c-2.688 4.90667-4.992 13.61067-4.30933 28.416a21.76 21.76 0 0 0 6.31466 2.98667c7.296 2.21867 19.54134 3.66933 33.19467 3.456 27.22133-.29867 60.71467-6.656 78.50667-14.93333a168.533 168.533 0 0 0 40.23466-26.24h-.04266c-59.43467 12.288-93.01334 9.00266-113.62134.512a56.107 56.107 0 0 1-14.16533-8.53334zm-342.656 4.01067h-.896c-2.26133.21333-5.54667.98133-11.904 8.02133-14.848 16.64-20.05333 27.09333-32.29867 36.864-12.24533 9.728-28.16 14.93333-59.94666 21.46133a81.835 81.835 0 0 0-19.66934 6.144c1.23734 1.024 1.10934 1.28 2.98667 2.26134 4.65067 2.56 10.624 4.82133 15.44533 6.05866 13.65334 3.41334 36.096 7.38134 59.52 3.41334 23.424-4.01067 47.78667-15.232 68.56534-44.37334 3.584-5.03466 3.968-12.45866 1.024-20.43733-2.98667-7.97867-9.51467-14.848-14.12267-16.768a27.861 27.861 0 0 0-8.704-2.56z"/>
</svg>
