<svg xmlns="http://www.w3.org/2000/svg" width="512" height="512" class="icon" viewBox="0 0 1024 1024">
    <path d="M197.01 502.2h74.84l47.26 71.48a39.096 39.096 0 0 0 36.53 17.47 39.287 39.287 0 0 0 32.64-23.98l59.55-141.67 65.73 150.04a39.327 39.327 0 0 0 36.05 23.61h1.11c16.04-.57 30.17-10.72 35.82-25.74l52.19-140.8 27.31 64.8c6.13 14.63 20.46 24.14 36.32 24.12h134.16c10.45.01 20.47-4.14 27.85-11.52a39.297 39.297 0 0 0 11.51-27.84 39.302 39.302 0 0 0-11.52-27.82 39.321 39.321 0 0 0-27.84-11.51H728.51l-55.9-132.33c-6.31-14.82-21.02-24.32-37.13-23.98-16.16.37-30.45 10.56-36.05 25.7l-52.8 142.65-63.4-144.74a39.493 39.493 0 0 0-36.29-23.61c-15.75.11-29.93 9.58-36.05 24.08l-66.61 158.54-18.33-27.9a39.258 39.258 0 0 0-32.85-17.71h-96.01a39.368 39.368 0 0 0-27.86 11.51 39.321 39.321 0 0 0-11.54 27.82 39.353 39.353 0 0 0 11.51 27.89 39.464 39.464 0 0 0 27.88 11.58zm748.33 256.29H78.86V128.82h866.48zm0-708.36H78.86C35.37 50.18.14 85.4.1 128.86v629.67c.06 43.44 35.28 78.64 78.76 78.7h866.48c43.47-.06 78.7-35.26 78.76-78.7V128.86c-.04-43.46-35.27-78.68-78.76-78.73m-719.6 859.95h576.89c17.7 0 32.05 14.34 32.05 32.02 0 17.69-14.35 32.02-32.05 32.02H225.74c-17.7 0-32.05-14.34-32.05-32.02s14.35-32.02 32.05-32.02"/>
</svg>
