<svg class="icon" viewBox="0 0 1024 1024" version="1.1" xmlns="http://www.w3.org/2000/svg" p-id="1524"
     width="200" height="200">
  <path
    d="M334.208 284.416v-2.346667c0-42.666667-28.458667-64-75.861333-64H187.264v130.346667h73.514667c47.402667 0 73.429333-28.416 73.429333-64zM0 0v1024h1024V0H0z m94.848 135.125333h170.666667c101.930667 0 163.541333 59.264 163.541333 146.986667v2.346667c0 97.194667-75.861333 149.333333-170.709333 149.333333H187.264v125.653333H94.848V135.125333zM481.152 896h-384v-64h384V896z m203.904-331.818667c-125.610667 2.346667-218.069333-94.848-218.069333-215.765333C466.944 227.541333 557.056 128 687.402667 128c80.597333 0 128 26.069333 168.277333 66.389333l-59.264 68.693334c-33.194667-30.805333-66.389333-47.402667-109.056-47.402667-70.741333 0-122.581333 58.666667-123.178667 131.584 0.597333 72.917333 50.090667 131.541333 123.178667 131.541333 47.402667 0 78.208-18.986667 111.36-49.792l59.306667 59.264c-42.624 47.445333-92.416 75.904-172.970667 75.904z"
    ></path>
</svg>
