<svg xmlns="http://www.w3.org/2000/svg" width="200" height="200" class="icon" viewBox="0 0 1024 1024">
    <path d="M334.208 284.416v-2.34667c0-42.66666-28.45867-64-75.86133-64H187.264V348.416h73.51467c47.40266 0 73.42933-28.416 73.42933-64M0 0v1024h1024V0zm94.848 135.12533h170.66667c101.93066 0 163.54133 59.264 163.54133 146.98667v2.34667c0 97.19466-75.86133 149.33333-170.70933 149.33333H187.264v125.65333H94.848zM481.152 896h-384v-64h384zm203.904-331.81867c-125.61067 2.34667-218.06933-94.848-218.06933-215.76533C466.944 227.54133 557.056 128 687.40267 128c80.59733 0 128 26.06933 168.27733 66.38933l-59.264 68.69334C763.22133 232.27733 730.02667 215.68 687.36 215.68c-70.74133 0-122.58133 58.66667-123.17867 131.584.59734 72.91733 50.09067 131.54133 123.17867 131.54133 47.40267 0 78.208-18.98666 111.36-49.792l59.30667 59.264c-42.624 47.44534-92.416 75.904-172.97067 75.904"/>
</svg>
