<svg xmlns="http://www.w3.org/2000/svg" width="256" height="256" class="icon" viewBox="0 0 1024 1024">
    <path d="M383.2 194.6c-1.4 0-2.8 0-4.2-.2l-4.2-.6c-1.4-.2-2.8-.6-4-1-1.4-.4-2.6-.8-4-1.4s-2.6-1.2-3.8-1.8-2.4-1.4-3.6-2.2-2.4-1.6-3.4-2.6c-1-.8-2.2-1.8-3.2-2.8s-2-2-2.8-3.2c-.8-1-1.8-2.2-2.6-3.4s-1.6-2.4-2.2-3.6-1.2-2.6-1.8-3.8c-.6-1.4-1-2.6-1.4-4s-.8-2.8-1-4-.4-2.8-.6-4.2-.2-2.8-.2-4.2 0-2.8.2-4.2l.6-4.2c.2-1.4.6-2.8 1-4 .4-1.4.8-2.6 1.4-4s1.2-2.6 1.8-3.8 1.4-2.4 2.2-3.6 1.6-2.4 2.6-3.4c.8-1 1.8-2.2 2.8-3.2s2-2 3.2-2.8c1-.8 2.2-1.8 3.4-2.6s2.4-1.6 3.6-2.2 2.6-1.2 3.8-1.8c1.4-.6 2.6-1 4-1.4s2.8-.8 4-1 2.8-.4 4.2-.6 2.8-.2 4.2-.2 2.8 0 4.2.2l4.2.6c1.4.2 2.8.6 4 1 1.4.4 2.6.8 4 1.4s2.6 1.2 3.8 1.8 2.4 1.4 3.6 2.2 2.2 1.6 3.4 2.6c1 .8 2.2 1.8 3.2 2.8s2 2 2.8 3.2 1.8 2.2 2.6 3.4 1.6 2.4 2.2 3.6 1.2 2.6 1.8 3.8 1 2.6 1.4 4 .8 2.8 1 4l.6 4.2s.2 2.8.2 4.2 0 2.8-.2 4.2l-.6 4.2c-.2 1.4-.6 2.8-1 4-.4 1.4-.8 2.6-1.4 4-.6 1.2-1.2 2.6-1.8 3.8s-1.4 2.4-2.2 3.6-1.6 2.2-2.6 3.4c-.8 1-1.8 2.2-2.8 3.2s-2 2-3.2 2.8-2.2 1.8-3.4 2.6-2.4 1.4-3.6 2.2-2.6 1.2-3.8 1.8-2.6 1-4 1.4-2.8.8-4 1l-4.2.6c-1.4 0-2.8.2-4.2.2M634.4 48.8c-39.2-6.4-96.6-9.4-135.6-9.2-36.6 0-73 3.2-109 9.2-96.4 16.8-114 52.2-114 117.2v76H512v33.8H199c-87.6 0-158.8 104.8-159.6 234.4v1.8c0 22.8 2.2 45.2 6.6 67.6 19.6 97.6 80.6 168.8 153 168.8h43v-114c0-66 44-126.4 116-139.4l20.8-2.6h255.6q16.2 0 31.8-4.2c3-.8 5.8-1.6 8.6-2.8 2.8-1 5.6-2.2 8.4-3.4s5.4-2.6 8.2-4q3.9-2.1 7.8-4.8c3.9-2.7 5-3.4 7.4-5.4 2.4-1.8 4.6-3.8 6.8-6a96.596 96.596 0 0 0 12.2-13.4c1.8-2.4 3.6-4.8 5.2-7.4s3.2-5.2 4.6-7.8 2.8-5.4 4-8.2 2.2-5.6 3.2-8.6c1-2.8 1.8-5.8 2.6-8.8q1.2-4.5 1.8-9c.4-3 .8-6 1-9s.4-6 .4-9V165.8c-.2-61-52.2-107-114-117"/>
    <path d="M639.6 824.2c1.4 0 2.8 0 4.2.2l4.2.6c1.4.2 2.8.6 4 1 1.4.4 2.6.8 4 1.4s2.6 1.2 3.8 1.8 2.4 1.4 3.6 2.2 2.4 1.6 3.4 2.6c1 .8 2.2 1.8 3.2 2.8s2 2 2.8 3.2c.8 1 1.8 2.2 2.6 3.4s1.6 2.4 2.2 3.6 1.2 2.6 1.8 3.8c.6 1.4 1 2.6 1.4 4s.8 2.8 1 4l.6 4.2c.2 1.4.2 2.8.2 4.2s0 2.8-.2 4.2l-.6 4.2c-.2 1.4-.6 2.8-1 4-.4 1.4-.8 2.6-1.4 4s-1.2 2.6-1.8 3.8-1.4 2.4-2.2 3.6-1.6 2.4-2.6 3.4c-.8 1-1.8 2.2-2.8 3.2s-2 2-3.2 2.8c-1 .8-2.2 1.8-3.4 2.6s-2.4 1.6-3.6 2.2-2.6 1.2-3.8 1.8c-1.4.6-2.6 1-4 1.4s-2.8.8-4 1l-4.2.6c-1.4.2-2.8.2-4.2.2s-2.8 0-4.2-.2l-4.2-.6c-1.4-.2-2.8-.6-4-1-1.4-.4-2.6-.8-4-1.4s-2.6-1.2-3.8-1.8-2.4-1.4-3.6-2.2-2.2-1.6-3.4-2.6-2.2-1.8-3.2-2.8-2-2-2.8-3.2c-.8-1-1.8-2.2-2.6-3.4s-1.6-2.4-2.2-3.6-1.2-2.6-1.8-3.8c-.6-1.4-1-2.6-1.4-4s-.8-2.8-1-4l-.6-4.2c-.2-1.4-.2-2.8-.2-4.2s0-2.8.2-4.2l.6-4.2c.2-1.4.6-2.8 1-4 .4-1.4.8-2.6 1.4-4 .6-1.2 1.2-2.6 1.8-3.8s1.4-2.4 2.2-3.6 1.6-2.2 2.6-3.4 1.8-2.2 2.8-3.2 2-2 3.2-2.8c1-.8 2.2-1.8 3.4-2.6s2.4-1.4 3.6-2.2c1.2-.6 2.6-1.2 3.8-1.8s2.6-1 4-1.4 2.8-.8 4-1 2.8-.4 4.2-.6 2.8-.2 4.2-.2m335-394.4c-22.6-89.8-81-154-149.6-154h-37.4v100c0 83.4-54.8 144-121.8 154.2-6.8 1-13.6 1.6-20.4 1.6H389.8c-10.8 0-21.6 1.4-32.2 4.2-47 12.4-82 51.6-82 102.2v214.6c0 61.2 61.4 97 121.8 114.6 72.2 21 150.8 24.8 237.2 0 57.4-16.4 113.6-49.6 113.6-114.6V782H512v-33.8h313c62 0 116-52.6 142.2-129.4 5.8-17.2 10.2-34.8 13-52.8s4.2-36 4.2-54.2c.2-27.6-3.2-55-9.8-82"/>
</svg>
