<svg xmlns="http://www.w3.org/2000/svg" viewBox="0 0 1024 1024">
    <path d="m953.99564 257.36312.0532-.03325-219.42858-126.67013L515.24488 3.98961 295.81631 130.65974 76.45423 257.32987l.0133.0266v506.65392l219.36873 126.67013 219.42857 126.67678v.0133l140.3678-80.9891.00664-.00664-.00665-.00665V764.01039l-140.36779 81.06223-144.82286-83.58898-144.75636-83.58234V343.5121l144.75636-83.58233 144.82286-83.58234 144.75636 83.58234 144.82286 83.58233v673.8452l-.0133-.00665.0266.04655 149.21143-86.11574v-673.9117zm-579.0986 172.33787V591.7257l140.3678 81.05559 140.36113-81.05559V429.6877l-.01994.0133-.0665-.0665-140.26805-81.00904-140.3545 81.04229-.0133.03325z"/>
</svg>
