<svg xmlns="http://www.w3.org/2000/svg" width="500" height="500" class="icon" viewBox="0 0 1024 1024">
    <path d="M455.40894 794.92518h84.87153v-84.87153h-84.87153zm130.16847-265.93883c-42.46588 28.3106-62.25317 62.22306-62.25317 99.02683v25.4494h-67.94542v-31.11152c-2.83106-50.92894 22.64847-96.19577 67.9153-130.16847 50.89882-36.74353 76.37835-73.5473 70.71623-107.52-5.66212-50.89883-33.94259-79.20941-87.70259-82.04047-62.25317-2.83106-101.85788 33.9727-115.98305 110.35106l-76.40847-19.81741c22.64847-113.152 93.3647-166.912 206.54682-164.08095 99.02682 5.66212 149.95576 53.76 161.24988 147.1247 2.86118 56.59107-28.28047 107.52-96.16565 152.78683zM512 59.30165C263.01741 59.33176 59.33177 263.0174 59.33177 512c0 249.0127 203.68564 452.72847 452.66823 452.72847S964.66824 760.9826 964.66824 512 761.0127 59.33177 512 59.33177zm0 961.95764C231.90588 1021.28941 2.71059 792.09412 2.71059 512S231.90589 2.71059 512 2.71059 1021.28941 231.90589 1021.28941 512 792.09411 1021.28941 512 1021.28941z"/>
</svg>
