<svg xmlns="http://www.w3.org/2000/svg" width="256" height="256" class="icon" viewBox="0 0 1024 1024">
    <path d="M947.2 415.53067H644.69333c-24.192-2.90134-42.624-24.192-42.624-49.28v-317.44A48.768 48.768 0 0 0 553.30133 0h-105.856C420.352 0 398.592 21.97333 398.592 48.85333v320.768c-1.32267 24.192-21.29067 43.69067-45.26933 45.90934h-79.232a49.4507 49.4507 0 0 1-42.83734-45.952V48.85333C231.25333 21.76 209.28 0 182.44267 0H76.544C49.49333 0 27.73333 21.97333 27.73333 48.85333v926.29334C27.73333 1002.24 49.70667 1024 76.544 1024h870.86933c27.09334 0 48.81067-21.97333 48.81067-48.85333V464.384a48.98133 48.98133 0 0 0-49.024-48.85333M807.85067 765.824c0 27.09333-21.97334 48.85333-48.81067 48.85333H653.184a48.81067 48.81067 0 0 1-48.81067-48.85333v-99.88267c0-27.09333 21.97334-48.85333 48.81067-48.85333H759.04c27.09333 0 48.81067 21.97333 48.81067 48.85333z"/>
</svg>
