<svg xmlns="http://www.w3.org/2000/svg" width="1024" height="1024" viewBox="0 0 1024 1024">
    <path d="M1024 252.89348 512 0 2.01348 253.952 0 386.95694l84.43973 41.73088-82.42625 38.80845L0 593.0916l71.82957 33.51586L2.01348 659.456 0 785.09735 512 1024l512-238.94867v-126.5618l-70.18427-32.73348L1024 593.03407v-126.5618l-82.84045-38.60135L1024 386.95694zm-65.81213 445.19839v47.47217L512 953.7352 66.47946 745.78265l.74787-46.55173 79.82597-37.51982L512 832.00575l366.53447-171.06552zm0-192.04027v47.42615L512 761.67191 66.47946 553.74238l.74787-46.55173 90.22705-42.36368L512 640l356.06436-175.97843zm0-161.07866L512 565.55865 66.44494 345.36414l.78239-49.31308L512.11506 74.51038l446.0728 220.3671z"/>
</svg>
