<svg xmlns="http://www.w3.org/2000/svg" viewBox="0 0 820 700">
  <g>
    <path d="M154.295 277.712C161.096 284.658 127.664 450.632 274.731 425.424C357.625 411.213 480.401 321.582 530.192 242.964C539.597 228.114 552.231 182.73 503.946 176.774C488.981 176.005 502.015 167.357 518.952 158.774C543.907 146.182 589.452 156.508 601.382 164.387C613.311 172.266 653.456 155.141 681.144 143.327C692.624 138.418 614.825 190.077 606.453 211.162C593.707 243.258 602.343 296.006 593.707 326.99C583.54 363.489 547.641 485.421 391.441 492.367C390.865 492.203 472.838 460.033 504.267 405.093C517.229 384.131 463.569 454.936 368.16 484.185C368.16 484.185 318.489 504.639 260.254 495.77C182.495 483.964 96.2832 417.022 154.295 277.712Z" fill="currentColor"/>
  </g>
</svg>
