<svg class="icon" viewBox="0 0 1024 1024" version="1.1" xmlns="http://www.w3.org/2000/svg">
  <path d="M52 12H12v40h40V12Z"></path>
  <path fill="#ddd"
        d="M33 44H17v3h16v-3ZM17.012 16.992h6.442c1.05 0 1.975.193 2.776.579.8.386 1.416.929 1.849 1.63.432.7.648 1.51.648 2.432 0 .922-.22 1.75-.66 2.46-.438.712-1.064 1.262-1.875 1.651-.811.39-1.752.584-2.824.584h-3.43v5.67h-2.926V16.992Zm7.54 6.63c.368-.183.652-.444.852-.783.2-.34.3-.734.3-1.184 0-.45-.1-.852-.3-1.185-.2-.332-.484-.59-.852-.772-.368-.182-.798-.273-1.292-.273h-3.323v4.47h3.323c.494 0 .924-.09 1.292-.273Zm-2.631 1.763h3.194L29.05 32h-3.355l-3.773-6.614ZM31.633 16.992h4.073l3.087 9.85.257 1.287.225-1.286 2.98-9.85h4.138v15.005h-2.894V21.29l.043-.782-3.494 11.49h-2.123l-3.451-11.415.043.707v10.708h-2.883V16.992h-.001Z"></path>
</svg>
