<svg class="icon" viewBox="0 0 1024 1024" version="1.1" xmlns="http://www.w3.org/2000/svg" p-id="5567"
     width="512" height="512">
  <path
    d="M924 0H100C45 0 0 45 0 100v824c0 55 45 100 100 100h824c55 0 100-45 100-100V100c0-55-45-100-100-100z m55 924c0 14.58-5.75 28.36-16.19 38.81S938.58 979 924 979H100c-14.58 0-28.36-5.75-38.81-16.19S45 938.58 45 924V315h934v609zM45 270V100c0-14.58 5.75-28.36 16.19-38.81C71.64 50.75 85.42 45 100 45h824c14.58 0 28.36 5.75 38.81 16.19C973.25 71.64 979 85.42 979 100v170H45z"
    ></path>
  <path d="M157.5 157.5m-22.5 0a22.5 22.5 0 1 0 45 0 22.5 22.5 0 1 0-45 0Z" fill="#303133" ></path>
  <path d="M292.5 157.5m-22.5 0a22.5 22.5 0 1 0 45 0 22.5 22.5 0 1 0-45 0Z" fill="#303133" ></path>
  <path d="M427.5 157.5m-22.5 0a22.5 22.5 0 1 0 45 0 22.5 22.5 0 1 0-45 0Z" fill="#303133" ></path>
  <path
    d="M254 757.52l-50.9-83.53h-34.49v83.53h-49.56V536.76h86.39c51.9 0 93.08 16.11 93.08 66.82 0 33.11-18.75 53.7-47.21 63.54l57.93 90.39H254z m-85.38-118.43h32.14c31.81 0 49.22-11.93 49.22-35.5 0-23.87-17.41-31.92-49.22-31.92h-32.14v67.42zM341.4 694.87V590.46h49.22v98.75c0 25.95 8.04 34.9 26.12 34.9 15.4 0 25.45-5.97 38.17-20.88V590.46h49.22v167.06h-40.18l-3.68-23.87h-1.34c-16.07 17-34.15 28.04-59.94 28.04-40.18 0.01-57.59-25.05-57.59-66.82zM600.56 739.92h-1l-4.35 17.6H556.7V519.46h48.89v59.96l-1 26.85c14.73-11.93 33.48-19.99 51.9-19.99 46.21 0 74 33.71 74 84.72 0 57.58-38.51 90.69-79.69 90.69-16.75 0.01-34.83-7.75-50.24-21.77z m79.36-68.02c0-31.92-11.38-49.52-37.17-49.52-12.72 0-24.11 5.67-37.17 17.3v73.39c11.72 9.25 24.11 12.53 34.15 12.53 22.78 0 40.19-17.3 40.19-53.7zM760.29 821.36l9.04-33.71c3.35 0.89 8.71 2.09 13.06 2.09 19.09 0 29.8-10.74 35.16-25.36l3.35-9.84-73-164.08h49.56l29.8 77.56c5.69 14.92 10.38 31.03 15.74 47.13h1.67c4.35-15.51 9.04-31.62 13.39-47.13l25.78-77.56h47.21l-66.63 172.13c-16.41 39.38-36.5 62.05-78.35 62.05-11.05 0-18.42-1.19-25.78-3.28z"
    ></path>
</svg>
