<svg xmlns="http://www.w3.org/2000/svg" width="512" height="512" class="icon" viewBox="0 0 1024 1024">
    <path d="m710.82667 749.65333 197.54666 175.36-389.12-30.72c76.37334-46.08 139.09334-101.12 186.02667-144.64h5.12zm218.88 104.96 36.26666-476.58666c-17.92 46.08-46.50666 99.41333-83.62666 156.58666zM724.05333 738.98667l197.12 174.93333-52.48-358.4a1524.05 1524.05 0 0 1-144.64 183.04zm-230.4 170.66666a689.92 689.92 0 0 1-130.56 55.89334l454.4-30.72-323.84-25.6zM113.92 680.10667l119.04 278.18666L331.09333 633.6zm245.76-62.72L691.2 724.05333l-84.48-335.78666zm265.38667-261.97334L934.4 334.50667 692.90667 136.96zM801.28 51.2l-202.66667-.85333L688.64 113.49333zM54.61333 561.92l-6.82666 197.54667 48.64-88.74667zm110.93334 79.36c38.4 2.56 77.65333-5.97333 116.90666-23.46667A621.23 621.23 0 0 0 363.94667 570.88a962.133 962.133 0 0 0 119.46666-102.4c144.21334-142.93333 203.52-302.93333 140.37334-366.50667-14.93334-15.36-36.69334-23.04-64-23.04-83.2-.42666-207.36 62.29334-313.17334 167.25334S79.78667 465.49333 79.36 549.54667c0 29.86666 8.10667 53.33333 24.74667 69.97333s35.41333 20.90667 61.44 22.18667zm300.8 263.25333L480 897.28 346.45333 640.42667l-100.26666 332.8 7.68-.85334 26.02666-3.84a634.027 634.027 0 0 0 162.13334-51.2l24.74666-11.94666zm272.64-212.48 2.98666-3.84 6.82667-7.68 9.38667-11.52 13.22666-16.64 12.37334-15.36 12.8-16.64c9.81333-12.8 19.2-26.02666 29.86666-40.53333s21.33334-30.72 31.57334-46.50667l-17.92-11.09333L632.32 395.52l81.92 325.12 24.32-27.73333zm231.68-522.66666-255.14667-35.84 243.2 198.82666A416 416 0 0 0 975.36 250.88c.42667-3.41333.42667-7.25333.85333-11.09333s.42667-6.82667.42667-10.24a231.68 231.68 0 0 0-5.97333-60.58667zM872.53333 518.4l2.13334-2.98667c4.69333-6.82666 11.94666-17.92 19.62666-31.57333 21.33334-37.54667 47.78667-91.30667 58.88-130.98667l-317.44 21.33334 210.77334 129.28 25.6 15.78666zM491.94667 893.86667H492.8c69.12-38.4 130.98667-85.76 200.53333-153.17334L356.26667 631.46667zm-445.01334-98.56C48.21333 839.25333 57.6 875.52 74.66667 903.25333L90.45333 715.52zm61.44-92.16-18.34666 216.32c26.02666 33.70666 60.58666 49.06666 111.78666 49.06666h16.21334l-8.96-22.61333C189.44 896.85333 133.12 757.76 107.94667 703.57333zM966.82667 156.16a153.6 153.6 0 0 0-14.08-31.57333c-23.04-38.4-62.72-62.72-118.18667-72.53334L710.82667 120.32zm0 0"/>
</svg>
