<svg xmlns="http://www.w3.org/2000/svg" class="icon" viewBox="0 0 72 72">
    <clipPath id="a">
        <path d="M0 0h72v72H0z"/>
    </clipPath>
    <g clip-path="url(#a)">
        <path d="M72 0H0v72h72z"/>
        <g fill="#fff">
            <path d="M35.9275 58.7159H8.85547v4.509H35.9275zM25.7313 25.227c1.566-.756 2.781-1.827 3.636-3.204s1.287-2.961 1.287-4.752c0-1.773-.423-3.348-1.26-4.698-.846-1.359-2.034-2.412-3.582-3.15903-1.548-.747-3.348-1.116-5.4-1.116H7.94727V36.792h6.14703V26.37h4.095l5.823 10.422h6.885l-6.471-11.034c.45-.153.891-.324 1.305-.531m-11.637-11.88h5.823c.9 0 1.674.162 2.34.477s1.17.783 1.53 1.386c.351.603.531 1.305.531 2.106 0 .81-.18 1.521-.531 2.124s-.864 1.062-1.53 1.386c-.666.315-1.449.477-2.34.477h-5.823zM57.6641 36.792l-6.471-11.034c.45-.144.891-.324 1.305-.522 1.566-.756 2.781-1.827 3.636-3.204s1.287-2.961 1.287-4.752c0-1.773-.423-3.348-1.26-4.698-.846-1.359-2.034-2.412-3.582-3.15899s-3.348-1.116-5.4-1.116h-12.474V36.801h6.147V26.37h4.095l5.823 10.422zm-16.803-23.445h5.823c.9 0 1.674.162 2.34.477s1.17.783 1.53 1.386c.351.603.531 1.305.531 2.106 0 .81-.18 1.521-.531 2.124s-.864 1.062-1.53 1.386c-.666.315-1.449.477-2.34.477h-5.823z"/>
        </g>
    </g>
</svg>
