<svg xmlns="http://www.w3.org/2000/svg" width="512" height="512" class="icon" viewBox="0 0 1024 1024">
    <path d="m1017.04003 499.50223-43.63981-27.01988c-.34-3.99998-.68-7.85997-1.1-11.75995l37.43984-34.99985a14.69994 14.69994 0 0 0-4.87998-24.4999l-47.9998-17.99992c-1.07999-3.75999-2.15999-7.55997-3.33998-11.27995l29.99987-41.65983a14.69994 14.69994 0 0 0-9.57996-23.0799l-50.83978-8.29996c-1.8-3.45999-3.57999-6.89997-5.45998-10.29996l21.35991-46.8398a14.69994 14.69994 0 0 0-13.89994-20.77991l-51.63978 1.82q-3.57998-4.43999-7.21997-8.79997l11.75995-50.31979a14.71994 14.71994 0 0 0-17.67992-17.67992l-50.31979 11.85995q-4.33998-3.65999-8.79996-7.21997l1.82-51.63978A14.69994 14.69994 0 0 0 782.24102 85.004l-46.8398 21.4599c-3.39999-1.87998-6.85997-3.67998-10.29996-5.45997l-8.29996-50.83978a14.69994 14.69994 0 0 0-23.0799-9.57996l-41.71983 29.93987c-3.71998-1.18-7.49996-2.25999-11.27995-3.33999l-17.99992-47.9998a14.69994 14.69994 0 0 0-24.4999-4.87997l-34.99985 37.43984c-3.89998-.42-7.81997-.76-11.75995-1.1L524.50213 6.96433a14.69994 14.69994 0 0 0-24.9999 0l-27.01988 43.63982c-3.99998.34-7.85997.68-11.75995 1.09999L425.72255 14.2643a14.69994 14.69994 0 0 0-24.4999 4.87998l-17.99992 47.9998c-3.77999 1.09999-7.57997 2.15999-11.31995 3.35998l-41.63983-29.99987a14.69994 14.69994 0 0 0-23.0799 9.57996l-8.29996 50.81978c-3.45999 1.8-6.89997 3.57999-10.31996 5.45998L241.76333 85.104a14.69994 14.69994 0 0 0-20.77991 13.99994l1.84 51.61978c-2.98 2.37999-5.99998 4.77998-8.83997 7.21997l-50.29979-11.93995a14.71994 14.71994 0 0 0-17.67992 17.67992l11.85995 50.31979c-2.46 2.89999-4.85998 5.85997-7.23997 8.81996l-51.61978-1.82a14.84 14.84 0 0 0-12.73995 6.51998 14.7 14.7 0 0 0-1.14 14.25994l21.31992 46.8198c-1.88 3.39999-3.65999 6.85997-5.45998 10.31996l-50.81978 8.27996a14.69994 14.69994 0 0 0-9.57996 23.0799l29.99987 41.63983c-1.18 3.73998-2.26 7.53996-3.35999 11.31995l-47.9998 17.99992a14.69994 14.69994 0 0 0-4.87997 24.4999l37.43984 34.99985c-.42 3.89998-.76 7.81996-1.1 11.75995L6.96433 499.50223a14.69994 14.69994 0 0 0 0 24.9999L50.60414 551.522c.34 3.99998.68 7.83997 1.1 11.73995L14.2643 598.26181a14.69994 14.69994 0 0 0 4.87998 24.4999l47.9998 17.99992c1.09999 3.77999 2.15998 7.55997 3.35998 11.29995l-29.99987 41.65983a14.69994 14.69994 0 0 0 9.57996 23.0799l50.83978 8.29996c1.8 3.43999 3.57999 6.89997 5.45998 10.27996L85.124 782.24103a14.7 14.7 0 0 0 1.14 14.25994 14.26 14.26 0 0 0 12.73994 6.51997l51.65978-1.82q3.53998 4.43999 7.19997 8.79997l-11.85995 50.31979a14.71994 14.71994 0 0 0 17.67992 17.67992l50.31979-11.85995q4.35998 3.65999 8.81996 7.21997l-1.84 51.63978a14.69994 14.69994 0 0 0 20.77992 13.89994l46.8598-21.3599c3.37999 1.87998 6.83997 3.65998 10.27996 5.45997l8.29996 50.83978a14.67994 14.67994 0 0 0 23.0799 9.55996l41.65983-29.99987c3.71998 1.2 7.51996 2.26 11.29995 3.35999l17.99992 47.9998a14.71994 14.71994 0 0 0 24.4999 4.87997l34.99985-37.43984c3.89998.42 7.83997.76 11.75995 1.1l27.01988 43.63981a14.69994 14.69994 0 0 0 24.9999 0l27.01988-43.63981c3.99999-.34 7.85997-.68 11.75995-1.12l34.99985 37.45984a14.71994 14.71994 0 0 0 24.4999-4.87998l17.99992-47.9998c3.77999-1.09999 7.55997-2.15999 11.29995-3.35998l41.63983 29.99987a14.67994 14.67994 0 0 0 23.0799-9.55996l8.29996-50.83978c3.43999-1.8 6.89997-3.57999 10.29996-5.45998l46.8398 21.35991a14.69994 14.69994 0 0 0 20.77991-13.89994l-1.82-51.63978q4.43999-3.57998 8.79997-7.21997l50.29979 11.85995a14.71994 14.71994 0 0 0 17.67992-17.67992l-11.85995-50.31979q3.65999-4.33998 7.21997-8.79996l51.63978 1.82a14.46 14.46 0 0 0 12.73995-6.51998 14.7 14.7 0 0 0 1.16-14.25994l-21.35992-46.8398c1.88-3.39999 3.65999-6.85997 5.45998-10.29996l50.83978-8.29996a14.69994 14.69994 0 0 0 9.57996-23.0799l-29.99987-41.65983c1.18-3.73998 2.26-7.51996 3.33999-11.29995l47.9998-17.99992a14.69994 14.69994 0 0 0 4.87997-24.4999l-37.43984-34.99985c.42-3.89998.76-7.81997 1.1-11.73995l43.63981-27.01988a14.69994 14.69994 0 0 0 0-24.9999zm-301.99871 258.1589a27.8199 27.8199 0 0 0-33.03986 21.35991l-15.27994 71.3397a375.0184 375.0184 0 0 1-312.71867-1.48l-15.27993-71.3197a27.7399 27.7399 0 0 0-32.91986-21.3599l-63.01973 13.51994a374.76 374.76 0 0 1-32.51987-38.41983h306.3387c3.43999 0 5.77998-.58 5.77998-3.81999V619.10172c0-3.13998-2.34-3.81998-5.77998-3.81998h-89.65962l.1-68.6997h96.95959c8.81996 0 47.3198 2.55998 59.57975 51.73977 3.81998 15.09994 12.33994 64.27973 18.11992 79.99966 5.77997 17.63993 29.19987 52.91978 54.19977 52.91978h158.09932a374.6 374.6 0 0 1-34.67985 40.17982zm51.53978 68.97971a30.47987 30.47987 0 1 1-30.57987-30.47987h.88a30.45987 30.45987 0 0 1 29.59987 30.47987zm-451.23808-1.36a30.47987 30.47987 0 1 1-30.49987-30.49986h.9a30.49987 30.49987 0 0 1 29.49987 30.49987zM139.14377 468.30238l65.65972-29.19988a27.7599 27.7599 0 0 0 14.11994-36.65984l-13.53994-30.43987h53.11977v239.45898H151.30372a375.298 375.298 0 0 1-12.15995-143.1594m-22.5199-72.1197a30.47987 30.47987 0 0 1 30.45986-30.49987h.92a30.47987 30.47987 0 1 1-31.33987 30.47987zm310.31867 48.9798.1-70.6397H553.562c6.55997 0 46.1398 7.53996 46.1398 37.23984 0 24.5799-30.37986 33.39985-55.35976 33.39985zm371.05842 168.25928c-19.59992 2.25999-41.25982-8.23997-43.99981-20.17992-11.55995-64.97972-30.77987-78.79966-61.13974-102.79956 37.71984-23.8999 76.91967-59.27975 76.91967-106.51955 0-51.03978-34.97985-83.17964-58.79975-98.95957-33.51985-21.9999-70.5597-26.45989-80.53965-26.4599H232.64337a374.9784 374.9784 0 0 1 209.7791-118.37949l46.9398 49.1998a27.6399 27.6399 0 0 0 39.19984.87999l52.51978-49.99979a375.0184 375.0184 0 0 1 256.7389 182.85922l-35.99984 81.13966a27.9999 27.9999 0 0 0 14.17994 36.65984l69.1797 30.65987a374.24 374.24 0 0 1 .8 65.07972h-38.55984c-3.81998 0-5.37998 2.54-5.37998 6.25998v17.63992c-.04 41.49983-23.4199 50.65979-44.0398 52.91978m-317.99864-492.9979a30.47987 30.47987 0 0 1 30.41987-30.41987h.9a30.47987 30.47987 0 1 1-31.31987 30.41987m393.67832 307.57869a30.47987 30.47987 0 1 1 0-60.95974h.88a30.47987 30.47987 0 0 1-.88 60.95974"/>
</svg>
