<svg xmlns="http://www.w3.org/2000/svg" width="512" height="512" class="icon" viewBox="0 0 1024 1024">
    <path d="M906.66667 298.66667 725.33333 117.33333C710.4 102.4 693.33333 96 672 96H170.66667C130.13333 96 96 130.13333 96 170.66667v682.66666C96 893.86667 130.13333 928 170.66667 928h682.66666C893.86667 928 928 893.86667 928 853.33333V349.86667c0-19.2-8.53333-38.4-21.33333-51.2M652.8 864H371.2V648.53333h281.6zM864 853.33333c0 6.4-4.26667 10.66667-10.66667 10.66667h-140.8V618.66667c0-17.06667-12.8-29.86667-29.86666-29.86667H341.33333c-17.06666 0-29.86666 12.8-29.86666 29.86667V864h-140.8c-6.4 0-10.66667-4.26667-10.66667-10.66667V170.66667c0-6.4 4.26667-10.66667 10.66667-10.66667h140.8v160c0 17.06667 12.8 29.86667 29.86666 29.86667h277.33334c17.06666 0 29.86666-12.8 29.86666-29.86667s-12.8-29.86667-29.86666-29.86667H371.2V160h302.93333c2.13334 0 6.4 2.13333 8.53334 2.13333l179.2 179.2C864 343.46667 864 345.6 864 349.86667z"/>
</svg>
