<svg xmlns="http://www.w3.org/2000/svg" width="512" height="512" class="icon" viewBox="0 0 1024 1024">
    <defs>
        <style>
            @font-face{font-family:feedback-iconfont;src:url(//at.alicdn.com/t/font_1031158_u69w8yhxdu.woff2?t=1630033759944)format(&quot;woff2&quot;),url(//at.alicdn.com/t/font_1031158_u69w8yhxdu.woff?t=1630033759944)format(&quot;woff&quot;),url(//at.alicdn.com/t/font_1031158_u69w8yhxdu.ttf?t=1630033759944)format(&quot;truetype&quot;)}
        </style>
    </defs>
    <path d="M510.37806 337.8036c-98.01022 0-177.74829 78.84268-177.74829 175.75285 0 96.91426 79.73807 175.76307 177.74829 175.76307 9.53721 0 19.62087-.97828 31.7972-3.08834 18.19643-3.28174 30.29088-20.53878 26.96309-38.4712-2.92461-15.7323-16.6932-27.1524-32.74785-27.1524-2.07117 0-4.15974.19647-6.12346.56384-7.93779 1.40295-14.23317 2.05685-19.80711 2.05685-61.15995 0-110.91514-49.20159-110.91514-109.67182 0-60.46717 49.67947-109.66159 110.74731-109.66159 61.11696 0 110.83225 49.19442 110.83225 109.66159 0 5.8922-.65696 12.0832-2.08857 19.53184-3.32779 17.92833 8.76974 35.18946 26.959 38.46404 2.0067.3602 4.04513.54644 6.07026.54644 16.20405 0 30.0197-11.43033 32.83278-27.11659 2.1387-11.45182 3.13847-21.4352 3.13847-31.41857.04298-46.87356-18.43588-90.99034-52.03307-124.22323-33.59616-33.23392-78.21231-51.53677-125.62516-51.53677"/>
    <path d="M938.47616 432.79917c-2.18578-11.42624-11.03738-20.4999-22.5639-23.12058-41.9095-9.50856-76.78173-34.92953-98.1852-71.5506-21.33492-36.56068-26.19153-79.09952-13.6898-119.70942 3.52836-11.12334.00717-23.2352-8.95188-30.8404-41.86039-35.72158-89.53622-62.93845-141.69516-80.8852-3.1528-1.0888-6.43762-1.63933-9.77667-1.63933-8.25603 0-16.18256 3.43114-21.7248 9.37655-29.23687 31.04404-68.84087 48.14042-111.5107 48.14042-42.6739 0-82.30553-17.12503-111.6079-48.23047-7.87742-8.3338-20.51013-11.5122-31.58026-7.72698-52.48333 18.17187-100.13153 45.41637-141.64092 80.98854-8.81579 7.59191-12.32266 19.62087-8.9345 30.67258 12.58668 40.64572 7.75974 83.18047-13.59768 119.78106-21.30626 36.5965-56.14984 62.00622-98.17395 71.56185-11.54085 2.70972-20.39654 11.81202-22.55981 23.16663-5.22807 27.1698-7.87741 54.34677-7.87741 80.77058 0 26.42688 2.64934 53.60385 7.87332 80.76342 2.17452 11.41191 11.02305 20.48864 22.55264 23.12058 41.9136 9.51265 76.78583 34.92237 98.19237 71.54752 21.34924 36.59343 26.1772 79.12818 13.58337 119.79539-3.36361 10.96984.12177 23.01313 8.97337 30.75854 41.84913 35.70724 89.49427 62.92003 141.66242 80.90259 11.46614 3.88549 23.73865.54951 31.45438-7.68094 29.29828-31.09111 68.92581-48.21614 111.59359-48.21614s82.30247 17.12503 111.56084 48.1834c5.55655 5.95564 13.49434 9.38064 21.7821 9.38064 3.27765 0 6.5379-.52086 9.82988-1.59943 52.12619-17.96823 99.7744-45.18408 141.65218-80.91282 8.79122-7.57758 12.30833-19.62803 8.94165-30.75853-12.59792-40.67847-7.7454-83.20605 13.6724-119.7739 21.32467-36.62515 56.1928-62.03078 98.19236-71.54752 11.39043-2.59204 20.23588-11.63397 22.54958-23.10626 5.22398-27.18413 7.87025-54.35802 7.87025-80.77058 0-26.46884-2.64525-53.67446-7.86616-80.84119M728.57252 789.8788c-26.02677 20.15708-54.73665 36.55352-85.487 48.81887-36.68245-32.1441-83.60207-49.77976-132.7924-49.77976-48.92631 0-95.83876 17.63566-132.76783 49.78692-30.74421-12.26228-59.45716-28.65564-85.4911-48.81273 9.89435-47.4415 1.88903-96.44968-22.76344-138.62729-24.44883-41.96681-63.4276-73.33933-110.18654-88.84037-2.38124-16.34323-3.58465-32.75808-3.58465-48.86902 0-16.04339 1.20341-32.45108 3.58465-48.85161 46.61262-15.3895 85.5842-46.75895 110.18654-88.8506 24.52353-42.02412 32.52579-91.03333 22.74912-138.62014 26.0237-20.14992 54.73562-36.54328 85.49416-48.8158 36.82163 32.2014 83.73817 49.86162 132.77807 49.86162 49.19442 0 96.10994-17.63566 132.7924-49.77975 30.75138 12.26944 59.45716 28.6628 85.48086 48.81273-9.80941 47.63388-1.83581 96.6349 22.66726 138.62013 24.44576 41.9668 63.41633 73.34342 110.18245 88.8506 2.38123 16.3862 3.58464 32.80106 3.58464 48.94065.14326 15.44373-1.0315 31.7972-3.49971 48.70119-46.76305 15.5041-85.73771 46.87356-110.18654 88.83628-24.4693 41.92895-32.46746 90.92996-22.74094 138.61808"/>
</svg>
