<svg xmlns="http://www.w3.org/2000/svg" width="1024" height="1024" class="icon" viewBox="0 0 1024 1024">
    <path d="M194.77333 835.136a109.568 109.568 0 0 1-109.44-109.44V197.67467a112.49067 112.49067 0 0 1 112.34134-112.32h105.25866a110.592 110.592 0 0 1 108.69334 90.34666l17.38666 93.248a43.2427 43.2427 0 0 0 42.432 35.24267H792.768a112.49067 112.49067 0 0 1 112.34133 112.34133V476.864a33.57867 33.57867 0 0 1-33.57866 33.57867A33.6 33.6 0 0 1 837.952 476.864v-60.33067a45.22667 45.22667 0 0 0-45.184-45.248H471.46667a110.336 110.336 0 0 1-108.43734-90.02666l-17.408-93.26934a43.4133 43.4133 0 0 0-42.66666-35.47733H197.696a45.20533 45.20533 0 0 0-45.184 45.16267V725.696a42.304 42.304 0 0 0 42.28267 42.26133h343.46666a33.64267 33.64267 0 0 1 33.664 33.57867 33.57867 33.57867 0 0 1-33.57866 33.6zm357.33334-637.86667a33.536 33.536 0 0 1-33.57867-33.57866 33.57867 33.57867 0 0 1 33.57867-33.57867h281.92a33.57867 33.57867 0 0 1 33.57866 33.57867 33.57867 33.57867 0 0 1-33.57866 33.57866z"/>
    <path d="M789.33333 896A170.66667 170.66667 0 1 1 960 725.33333 170.66667 170.66667 0 0 1 789.33333 896m0-34.13333A136.53333 136.53333 0 1 0 652.8 725.33333a136.53333 136.53333 0 0 0 136.53333 136.53334M760.32 781.58933l-48.34133-48.42666a17.06667 17.06667 0 1 1 24.128-24.128l36.26666 36.26666 75.98934-75.15733a17.06667 17.06667 0 0 1 24.21333 0 17.06667 17.06667 0 0 1 0 24.08533L784.448 781.696a17.06667 17.06667 0 0 1-24.08533 0z"/>
</svg>
