<svg xmlns="http://www.w3.org/2000/svg" width="1024" height="1024" class="icon" viewBox="0 0 1024 1024">
    <path d="m512 1024-10.80889-4.20978C153.94133 884.84978 113.77778 708.4563 113.77778 587.51052V125.61067l30.98548 1.024c241.39852 8.30578 344.17778-101.26222 345.12593-102.32415L512.03793 0l22.07289 24.31052c.79644.91022 98.22814 102.77926 319.37422 102.77926h.03792c8.41956 0 16.99082-.11378 25.71378-.45511l30.98548-1.024v461.89985c0 120.94578-40.16355 297.33926-387.41333 432.2797zM173.70074 187.35407v400.15645c0 65.04296.03793 236.73363 338.29926 371.82578 338.29926-135.09215 338.29926-306.78282 338.29926-371.82578V187.35407C662.94519 186.63348 555.19763 119.61837 512 84.992c-43.23556 34.58844-150.98311 101.56563-338.29926 102.36207"/>
    <path d="M791.74163 606.81481H657.06667V377.32504h48.88652v189.47792h85.78844zM595.0957 593.4649c-15.58755 11.5674-37.77422 17.33215-66.48414 17.33215-26.28267 0-47.78667-4.20978-64.62578-12.70519v-49.03822a96.218 96.218 0 0 0 62.99496 22.94518c13.312 0 23.36237-2.31348 30.07526-6.90251s10.05037-10.46756 10.05037-17.67349c0-6.21985-2.65481-12.09837-8.00237-17.63555-5.30963-5.53719-19.41807-13.04652-42.21156-22.528-35.84-15.2083-53.77896-37.31911-53.77896-66.37037 0-21.31437 8.15407-37.92593 24.38637-49.72089s37.77422-17.67348 64.512-17.67348c22.45215 0 41.2634 2.88237 56.43378 8.72296v45.9283c-15.39793-10.46756-33.41274-15.70134-54.08237-15.70134q-18.03377 0-28.89956 6.59912c-7.168 4.3994-10.80889 10.27792-10.80889 17.7114 0 5.91645 2.50312 11.37778 7.43349 16.34608 4.9683 5.00622 17.14252 11.7191 36.56059 20.21452 22.8314 9.78488 38.53274 20.10074 47.06607 30.98548 8.53334 10.84681 12.81897 23.77955 12.81897 38.79822 0 22.03496-7.77482 38.83615-23.43823 50.36563m-182.49955 0c-15.58756 11.5674-37.77422 17.33215-66.52208 17.33215-26.24474 0-47.82459-4.20978-64.58785-12.70519v-49.03822c18.46993 15.28415 39.44296 22.94518 62.95704 22.94518 13.34993 0 23.36237-2.31348 30.07526-6.90251s10.0883-10.46756 10.0883-17.67349c0-6.21985-2.69275-12.09837-8.00238-17.63555-5.34755-5.53719-19.41807-13.04652-42.24948-22.528-35.84-15.2083-53.77896-37.31911-53.77896-66.37037 0-21.31437 8.11615-37.92593 24.38637-49.72089s37.7363-17.67348 64.512-17.67348c22.41422 0 41.22548 2.88237 56.43378 8.72296v45.9283q-23.09689-15.70134-54.04445-15.70134-18.09066 0-28.89955 6.59912c-7.20593 4.3994-10.8089 10.27792-10.8089 17.7114 0 5.91645 2.4652 11.37778 7.39557 16.34608 4.93037 5.00622 17.14251 11.7191 36.59851 20.21452 22.83141 9.78488 38.49482 20.10074 47.02815 30.98548a60.6815 60.6815 0 0 1 12.81896 38.79822c0 22.03496-7.81274 38.83615-23.4003 50.36563m573.47792-327.9834A2396.16 2396.16 0 0 1 512 313.23021a2396.16 2396.16 0 0 1-474.07407-47.74874C76.9517 371.14311 96.48356 453.3286 96.48356 512c0 58.6714-19.53186 140.85689-58.55763 246.51852C247.39082 721.99585 405.42815 703.75348 512 703.75348s264.60919 18.24237 474.07407 54.76504C934.94993 651.52948 909.42577 569.344 909.42577 512s25.52416-139.52948 76.6483-246.51852"/>
</svg>
