<svg class="icon" viewBox="0 0 1024 1024" version="1.1" xmlns="http://www.w3.org/2000/svg" p-id="2975"
     width="512" height="512">
  <path
    d="M857.446918 544.312052c-0.282613-10.833487-7.065317-20.442318-17.239374-24.304692l-275.924195-87.515732L839.830727 344.975897c10.268261-3.956578 17.239374-13.659614 17.616191-24.681509V107.581233c0.65943-4.616007-1.130451-9.232015-4.710211-12.152346-3.579761-2.920331-8.478381-3.673965-12.90598-2.072493L184.075069 302.018767c-10.362466 3.391352-17.427783 13.000184-17.521987 23.927875v213.089973c0 10.645078 6.971113 20.065501 17.239374 23.174241l278.938731 88.646182-278.938731 88.269365c-10.174057 4.050782-16.956762 13.753818-17.239374 24.681509v212.713155c-0.565225 4.427599 1.224655 8.855198 4.804416 11.587121 3.485557 2.731923 8.289972 3.485557 12.434958 1.884084l656.509292-208.285556c10.174057-3.10874 17.14517-12.529163 17.239374-23.174241V544.312052z m-89.117203-45.594849"
    ></path>
</svg>
