<svg xmlns="http://www.w3.org/2000/svg" width="512" height="512" class="icon" viewBox="0 0 1024 1024">
    <path d="M857.44692 544.31205c-.28261-10.83349-7.06532-20.44232-17.23938-24.30469l-275.9242-87.51573 275.54739-87.51573c10.26826-3.95658 17.23937-13.65962 17.61619-24.68151V107.58123c.65943-4.616-1.13045-9.23201-4.71021-12.15234s-8.47838-3.67397-12.90598-2.0725L184.07507 302.01877c-10.36247 3.39135-17.42778 13.00018-17.52199 23.92787v213.08997c0 10.64508 6.97111 20.0655 17.23938 23.17425l278.93873 88.64618-278.93873 88.26936c-10.17406 4.05078-16.95677 13.75382-17.23938 24.68151v212.71316c-.56522 4.4276 1.22466 8.8552 4.80442 11.58712 3.48555 2.73192 8.28997 3.48556 12.43496 1.88408l656.50929-208.28555c10.17405-3.10874 17.14517-12.52917 17.23937-23.17424V544.31205zm-89.1172-45.59485"/>
</svg>
