<svg xmlns="http://www.w3.org/2000/svg" width="1082" height="1024" class="icon" viewBox="0 0 1082 1024">
    <path d="M848.02785 127.06491h-38.76937a30.58437 30.58437 0 1 0 0 61.15807h37.6382a15.04674 15.04674 0 0 1 15.0574 15.0574v504.37526a15.04674 15.04674 0 0 1-15.0574 15.0574H75.27637a15.0681 15.0681 0 0 1-15.0574-15.0574V202.3413a15.0681 15.0681 0 0 1 15.0574-14.11832h325.58584a30.11482 30.11482 0 1 0 0-60.21898H75.27638A75.2764 75.2764 0 0 0 0 203.2804v504.37525a75.2764 75.2764 0 0 0 75.27638 75.29773h772.75147a75.2764 75.2764 0 0 0 75.27638-75.27639V202.3413a75.2764 75.2764 0 0 0-75.27638-75.27639m-323.88908 21.6417 47.23182-47.43458v209.46982a30.11482 30.11482 0 1 0 60.22965 0V103.53438l47.23182 47.0504a30.14684 30.14684 0 0 0 42.53639-42.68578L621.05685 8.53716a30.8618 30.8618 0 0 0-42.53639 0l-96.91808 97.48366a30.14684 30.14684 0 0 0 42.53639 42.68579M130.23433 377.73719v259.01736a30.11482 30.11482 0 1 0 60.21898 0V377.7372a30.11482 30.11482 0 0 0-60.21898 0m191.77657 86.43872v172.57864a30.11482 30.11482 0 1 0 60.21897 0v-172.632a30.11482 30.11482 0 0 0-60.21897 0zm383.73455-86.43871v259.01735a30.11482 30.11482 0 1 0 60.03756 0V377.7372a30.11482 30.11482 0 1 0-60.03756 0m-1.87818 516.6154H491.7616v-66.24835a30.11482 30.11482 0 1 0-60.21897 0v65.83216H219.43696a30.11482 30.11482 0 0 0 0 60.21897h484.48367a30.11482 30.11482 0 1 0 0-60.21897zM543.89162 549.00324a30.10415 30.10415 0 0 0-30.10415 30.1255v57.6258a30.13083 30.13083 0 1 0 60.26166 0v-57.6258a30.1148 30.1148 0 0 0-30.11483-30.11483zm0 0"/>
</svg>
