<svg viewBox="0 0 1024 1024" version="1.1" xmlns="http://www.w3.org/2000/svg">
  <path
    d="M580.42016 524.8c11.52-32 22.72-58.88 32-87.36a677.12 677.12 0 0 1 30.4-73.28c22.4-44.48 59.52-56.32 96-32a90.24 90.24 0 0 1 40.96 69.44 110.72 110.72 0 0 1-4.8 44.8c-22.08 66.88-46.72 132.16-74.56 195.2-18.24 42.24-50.24 56.32-85.44 40.64-7.04-3.2-8.96 0-9.92 7.68a81.6 81.6 0 0 1-54.08 72.32 58.88 58.88 0 0 1-74.24-23.68 87.36 87.36 0 0 1-15.04-32c-17.6-69.76-32-140.16-44.16-212.16a89.92 89.92 0 0 1 43.52-98.56c43.84-23.36 83.84-1.6 100.16 55.04 8 23.36 12.8 47.36 19.2 73.92z m43.52 83.2c0 6.72 0 10.56 4.16 12.8a6.4 6.4 0 0 0 9.28-1.92 66.56 66.56 0 0 0 8.96-18.56q32-81.6 64-163.52c3.84-10.24 7.04-21.12 10.56-32a11.52 11.52 0 0 0-3.52-14.08c-4.8-3.2-8.32 0-10.88 4.48a170.88 170.88 0 0 0-8.96 18.88l-66.24 173.44c-3.52 6.4-5.76 13.76-7.36 20.48zM544.26016 686.08a281.92 281.92 0 0 0-6.72-38.72q-17.28-83.2-34.88-165.44a92.16 92.16 0 0 0-6.4-22.72 7.36 7.36 0 0 0-9.28-5.12c-3.84 0-5.44 5.12-5.44 9.92a67.84 67.84 0 0 0 0 14.08c9.6 48 19.52 96 29.44 143.36 5.12 24 9.28 48.32 16 71.36 1.92 6.08 4.8 10.56 10.24 8.96s7.04-7.04 7.04-15.68z"
    ></path>
  <path
    d="M384.26016 731.2l28.8-367.68h-64l-17.6 246.4-13.44-246.08H249.22016l-17.28 236.8-12.48-237.12h-64l28.8 367.68h81.28l17.28-183.36 18.88 183.36z m-384-131.2c1.6 26.88 2.88 52.8 5.44 78.08a61.76 61.76 0 0 0 22.4 43.52 71.68 71.68 0 0 0 83.2 8.64A64 64 0 0 0 146.50016 672v-74.88a96 96 0 0 0-28.16-66.24 441.28 441.28 0 0 0-38.08-35.84 64 64 0 0 1-18.88-61.44c0-8.64 3.84-16.32 11.84-15.68s8.64 9.6 8.64 17.28v32a80 80 0 0 1 0 8h61.44c0-18.88 0-37.12-2.56-55.04a59.52 59.52 0 0 0-33.92-54.72 77.44 77.44 0 0 0-66.24-2.56A62.08 62.08 0 0 0 2.50016 416a507.52 507.52 0 0 0 0 66.24 99.84 99.84 0 0 0 32 70.72c14.4 14.08 28.8 28.8 42.56 44.16a96 96 0 0 1 8.32 71.36c-1.92 3.84-7.36 8-10.88 7.36a15.36 15.36 0 0 1-10.24-10.56c0-16.32 0-32-1.6-48.96v-16.32z m855.04 42.56v-294.08h-64v367.68h98.88a7.36 7.36 0 0 0 4.8-4.8v-68.48z"></path>
  <path
    d="M1024.26016 714.56a25.6 25.6 0 0 1-6.72 1.6h-105.6v-368h106.88v72.96h-41.92v70.08h39.04v69.76h-39.04v81.6H1024.26016zM384.26016 731.2H302.34016l-18.88-183.36-17.28 183.36H184.58016l-28.8-367.68h64l12.48 237.12 17.28-236.8h68.48l13.44 246.08 17.6-246.4h64zM0.26016 600h61.76v16.32c0 16.32 0 32 1.6 48.96a15.36 15.36 0 0 0 8.64 10.88c3.52 0 8.96-3.52 10.88-7.36a96 96 0 0 0-8.32-71.36c-13.76-15.36-28.16-30.08-42.56-44.16a99.84 99.84 0 0 1-32-70.72A507.52 507.52 0 0 1 2.50016 416a62.08 62.08 0 0 1 38.08-55.04 77.44 77.44 0 0 1 66.24 2.56 59.52 59.52 0 0 1 33.92 54.72c0 17.92 1.92 36.16 2.56 55.04H82.82016a80 80 0 0 0 0-8v-32c0-11.84 0-16.32-8.64-17.28s-10.56 7.04-11.84 15.68a64 64 0 0 0 18.88 61.44 441.28 441.28 0 0 1 36.48 38.08 96 96 0 0 1 28.16 66.24v74.88a64 64 0 0 1-35.2 57.92 71.68 71.68 0 0 1-83.2-8.64 61.76 61.76 0 0 1-22.4-43.52c-1.92-25.28-3.2-51.2-4.8-78.08zM855.30016 642.56H896.26016v68.48a7.36 7.36 0 0 1-4.8 4.8h-100.16V348.48h64z"></path>
</svg>
