<svg xmlns="http://www.w3.org/2000/svg" viewBox="0 0 1024 1024">
    <path d="m1004.512 444.256-160-256A127.968 127.968 0 0 0 736 128.096H128a128 128 0 0 0-128 128v512a128 128 0 0 0 128 128h608c44.128 0 85.12-22.752 108.512-60.192l160-256a127.776 127.776 0 0 0 0-135.648M950.24 545.984l-160 256.064A63.616 63.616 0 0 1 736 832.096H128c-35.296 0-64-28.736-64-64v-512c0-35.296 28.704-64 64-64h608a63.68 63.68 0 0 1 54.24 30.048l160 256a64.32 64.32 0 0 1 0 67.84"/>
    <path d="M736 416.096a96 96 0 1 0-.064 191.936A96 96 0 0 0 736 416.096m0 160.032a64 64 0 1 1 0-128 64 64 0 0 1 0 128"/>
</svg>
