<svg class="icon" viewBox="0 0 1024 1024" version="1.1" xmlns="http://www.w3.org/2000/svg" p-id="8339"
     width="512" height="512">
  <path
    d="M499.712 481.792l-128-128c-16.896-16.384-44.032-15.872-60.416 1.024-15.872 16.384-15.872 42.496 0 59.392L409.088 512l-97.792 97.792c-16.896 16.384-17.408 43.52-1.024 60.416s43.52 17.408 60.416 1.024l1.024-1.024 128-128c16.384-16.896 16.384-43.52 0-60.416zM682.496 597.504h-128c-23.552 0-42.496 18.944-42.496 42.496 0 23.552 18.944 42.496 42.496 42.496h128c23.552 0 42.496-18.944 42.496-42.496s-18.944-42.496-42.496-42.496z"
    ></path>
  <path
    d="M810.496 128H213.504c-70.656 0-128 57.344-128 128v512c0 70.656 57.344 128 128 128h597.504c70.656 0 128-57.344 128-128V256c-0.512-70.656-57.856-128-128.512-128z m0 682.496H213.504c-23.552 0-42.496-18.944-42.496-42.496V256c0-23.552 18.944-42.496 42.496-42.496h597.504c23.552 0 42.496 18.944 42.496 42.496v512c0 23.552-19.456 42.496-43.008 42.496z"
    ></path>
</svg>
