<svg xmlns="http://www.w3.org/2000/svg" width="1024" height="1024" class="icon" viewBox="0 0 1024 1024">
    <path d="M725.31673 128H298.68327v85.36654L511.9502 426.63346l213.36653-213.26692zm-42.33463 67.6358L511.9502 366.36887 341.31673 195.6358v-25.00234H682.9821zM298.68327 896.49805h426.63346v-85.86459L511.9502 597.66537l-213.26693 212.9681zm42.63346-67.6358L511.9502 657.43192l171.0319 170.9323v25.00233H341.31673zM639.9502 0h85.36653v42.63346H639.9502z"/>
    <path d="M853.31673 42.63346h85.36654V0h-128v281.00234L579.6856 512l230.99767 230.99767v238.36887H213.31673V742.99767L444.3144 512 213.31673 281.00234V42.63346h341.36654V0H85.31673v42.63346h85.36654v256L383.9502 512 170.68327 725.36654v256H85.31673V1024h853.36654v-42.63346h-85.36654v-256L639.9502 512l213.36653-213.36654z"/>
</svg>
