<svg xmlns="http://www.w3.org/2000/svg" width="1024" height="1024" viewBox="0 0 1024 1024">
    <path d="M355.67134 509.04872c8.49612 176.45106 171.17452 293.07153 184.14228 293.07153 12.96777 0 175.55674-116.62047 184.09758-293.07153h212.58194V785.6646a100.612 100.612 0 0 1-100.56727 100.56726h-603.4036a100.612 100.612 0 0 1-100.61199-100.61198V509.09343h223.76106zm365.06499-50.52958a184.50002 184.50002 0 0 0-361.84541 0H131.91028v-125.4296a100.612 100.612 0 0 1 100.61199-100.56727H383.3508v-50.306c0-27.7689 22.49237-50.30599 50.306-50.30599h201.13453c27.72419 0 50.26127 22.53709 50.26127 50.306v50.26127h150.87326a100.612 100.612 0 0 1 100.61199 100.61198v125.47433H720.73633zm-85.945-225.99687v-25.13064a25.17535 25.17535 0 0 0-25.13063-25.13064H458.78744a25.13064 25.13064 0 0 0-25.13064 25.13064v25.13064zm-100.61198 346.0605a89.43287 89.43287 0 1 1 0-178.86574 89.43287 89.43287 0 0 1 0 178.86575"/>
</svg>
