<svg viewBox="0 0 1024 1024" version="1.1" xmlns="http://www.w3.org/2000/svg">
  <path
    d="M765.738667 462.08l-73.813334-34.005333a273.408 273.408 0 0 0 18.986667-57.002667 187.861333 187.861333 0 0 0 3.754667-35.413333h81.066666a340.010667 340.010667 0 0 1-8.96 62.421333 350.378667 350.378667 0 0 1-21.034666 64z m11.349333-248.064l-76.202667 27.562667a245.12 245.12 0 0 0-40.874666-72.064 241.066667 241.066667 0 0 0-7.765334-8.96l62.421334-54.357334a322.602667 322.602667 0 0 1 56.96 93.141334c1.92 4.864 3.754667 9.770667 5.461333 14.677333zM610.048 30.805333l-34.005333 72.96a274.602667 274.602667 0 0 0-45.44-16.213333 311.808 311.808 0 0 0-47.018667-6.485333V0a324.096 324.096 0 0 1 68.906667 8.917333 350.592 350.592 0 0 1 57.6 21.888zM362.837333 18.645333l27.562667 76.202667a243.413333 243.413333 0 0 0-81.066667 49.493333L254.976 83.456A328.106667 328.106667 0 0 1 362.794667 18.645333zM178.773333 185.642667a291.882667 291.882667 0 0 0-21.077333 59.989333 285.738667 285.738667 0 0 0-10.538667 66.517333h81.066667a243.072 243.072 0 0 1 7.253333-47.061333 271.232 271.232 0 0 1 15.445334-45.397333L178.773333 185.642667z m-12.16 248.106666L242.773333 406.186667a244.266667 244.266667 0 0 0 49.450667 81.066666l-59.989333 55.125334a325.589333 325.589333 0 0 1-65.706667-108.629334z"></path>
  <path
    d="M777.813333 1023.829333H412.586667c-0.512 0-0.810667-0.426667-1.28-0.426666H409.6c-0.469333 0-0.810667-0.426667-1.28-0.426667h-1.706667c-0.469333 0-0.810667-0.426667-1.28-0.426667s-0.853333-0.426667-1.28-0.426666c-0.469333 0-1.28-0.426667-1.706666-0.426667-0.469333 0-0.853333-0.426667-1.28-0.426667-0.469333 0-0.853333-0.426667-1.28-0.426666-0.426667 0-0.853333-0.853333-1.28-0.853334-0.426667 0-0.853333-0.426667-1.28-0.426666-0.426667 0-1.28-0.426667-1.706667-0.426667-0.426667 0-0.853333-0.853333-1.28-0.853333-0.426667 0-0.853333-0.426667-1.28-0.426667-0.426667 0-1.28-0.853333-1.28-0.853333l-1.28-0.853334-1.28-0.853333-0.853333-0.853333-1.28-0.853334-1.28-0.853333-1.28-0.853333-0.853334-0.853334-1.28-1.28-0.853333-0.853333-0.853333-1.28-1.28-0.853333-0.853334-1.28-0.853333-0.853334-0.853333-1.28-0.853334-1.28-173.653333-280.32c-0.938667-1.493333-1.706667-3.157333-2.56-4.693333-0.853333-1.536-1.792-3.114667-2.56-4.693333-0.768-1.578667-1.450667-3.114667-2.133333-4.693334-0.725333-1.578667-1.493333-3.072-2.133334-4.693333-0.64-1.621333-1.152-3.456-1.706666-5.12-0.554667-1.664-0.810667-2.986667-1.28-4.693333-0.469333-1.706667-1.706667-3.413333-1.706667-5.12 0-1.706667-0.853333-3.413333-0.853333-5.12 0-1.706667-0.853333-3.413333-0.853334-5.12 0-1.706667-0.853333-3.413333-0.853333-5.12 0-1.706667-0.426667-3.84-0.426667-5.546667v-5.12-5.12c0-1.706667 0.426667-3.413333 0.426667-5.12 0-1.706667 0.426667-3.84 0.426667-5.546667 0-1.706667 0.853333-3.413333 0.853333-5.12 0-1.706667 0.853333-3.413333 0.853333-5.12 0-1.706667 0.853333-3.413333 1.28-5.12 0.426667-1.706667 1.194667-3.029333 1.706667-4.693333 0.512-1.664 1.109333-3.498667 1.706667-5.12 0.597333-1.621333 1.024-3.072 1.706666-4.693333 0.682667-1.621333 1.365333-3.114667 2.133334-4.693334 0.725333-1.578667 1.28-3.157333 2.133333-4.693333l2.56-4.693333c0.853333-1.493333 2.048-3.242667 2.986667-4.693334 0.938667-1.450667 1.962667-2.858667 2.986666-4.266666 1.024-1.408 1.92-2.474667 2.986667-3.84 1.066667-1.365333 2.261333-2.986667 3.413333-4.266667a113.237333 113.237333 0 0 1 7.253334-7.68l3.84-3.413333c1.28-1.152 2.474667-2.304 3.84-3.413334l3.84-2.986666c1.28-0.981333 2.474667-2.048 3.84-2.986667 1.365333-0.938667 2.858667-1.706667 4.266666-2.56 1.408-0.853333 2.816-1.749333 4.266667-2.56 1.408-0.810667 2.773333-1.834667 4.266667-2.56 1.450667-0.768 3.2-1.450667 4.693333-2.133333s2.730667-1.109333 4.266667-1.706667c1.536-0.64 3.157333-1.152 4.693333-1.706667 1.536-0.554667 3.114667-1.237333 4.693333-1.706666 1.578667-0.469333 3.114667-1.28 4.693334-1.28 1.578667 0 3.072-1.28 4.693333-1.28 1.621333 0 3.498667-0.853333 5.12-0.853334 1.621333 0 3.072-0.853333 4.693333-0.853333 1.621333 0 3.456-0.426667 5.12-0.426667 1.621333 0 3.029333-0.426667 4.693334-0.426666h10.24c1.621333 0 3.029333 0.426667 4.693333 0.426666 1.621333 0 3.498667 0.426667 5.12 0.426667 1.621333 0 3.072 0.853333 4.693333 0.853333 1.621333 0 3.072 0.853333 4.693334 0.853334 1.621333 0 3.541333 1.28 5.12 1.28 1.578667 0 3.114667 0.810667 4.693333 1.28 1.578667 0.469333 3.157333 1.152 4.693333 1.706666 1.536 0.554667 3.157333 1.066667 4.693334 1.706667 1.536 0.597333 2.773333 1.024 4.266666 1.706667s3.2 1.365333 4.693334 2.133333c1.450667 0.768 2.816 1.749333 4.266666 2.56l4.266667 2.56c1.408 0.853333 2.474667 1.621333 3.84 2.56 1.365333 0.938667 2.944 2.005333 4.266667 2.986667l3.84 2.986666v-258.56c0-1.664 0.853333-3.498667 0.853333-5.12 0-1.621333 1.28-3.072 1.28-4.693333 0-1.621333 0.768-3.114667 1.28-4.693333 0.469333-1.578667 1.152-3.114667 1.706667-4.693334 0.554667-1.578667 1.066667-3.157333 1.706666-4.693333 0.64-1.536 1.450667-3.2 2.133334-4.693333 0.682667-1.536 1.365333-3.2 2.133333-4.693334 0.768-1.493333 1.28-2.816 2.133333-4.266666 0.853333-1.450667 1.664-2.858667 2.56-4.266667 0.853333-1.408 2.048-2.901333 2.986667-4.266667 0.938667-1.365333 1.962667-2.517333 2.986667-3.84 1.024-1.322667 1.92-2.986667 2.986666-4.266666 1.066667-1.28 2.304-2.176 3.413334-3.413334 1.109333-1.237333 2.218667-2.645333 3.413333-3.84 1.152-1.194667 2.176-2.304 3.413333-3.413333a119.893333 119.893333 0 0 1 3.84-3.413333c1.28-1.066667 2.517333-1.962667 3.84-2.986667 1.28-1.024 2.901333-2.048 4.266667-2.986667 1.365333-0.981333 2.858667-2.090667 4.266667-2.986666 1.408-0.896 2.816-1.706667 4.266666-2.56 1.450667-0.853333 2.773333-1.365333 4.266667-2.133334 1.450667-0.768 2.730667-1.834667 4.266667-2.56 1.493333-0.725333 3.157333-1.066667 4.693333-1.706666 1.536-0.64 3.114667-1.578667 4.693333-2.133334 1.578667-0.597333 3.114667-0.768 4.693334-1.28 1.578667-0.512 3.072-1.28 4.693333-1.706666 1.621333-0.426667 3.498667-1.28 5.12-1.28 1.621333 0 3.029333-0.853333 4.693333-0.853334 1.621333 0 3.456-0.853333 5.12-0.853333 1.664 0 3.413333-0.426667 5.12-0.426667 1.664 0 2.986667-0.426667 4.693334-0.426666h10.24c1.664 0 3.413333 0.426667 5.12 0.426666 1.664 0 3.029333 0.426667 4.693333 0.426667 1.664 0 3.456 0.853333 5.12 0.853333 1.621333 0 3.072 0.853333 4.693333 0.853334 1.621333 0 3.498667 0.853333 5.12 1.28 1.621333 0.426667 3.114667 1.194667 4.693334 1.706666 1.578667 0.512 3.114667 0.682667 4.693333 1.28 1.578667 0.554667 3.157333 1.493333 4.693333 2.133334 1.536 0.64 3.157333 0.981333 4.693334 1.706666 1.493333 0.725333 2.773333 1.792 4.266666 2.56 1.493333 0.768 3.242667 1.28 4.693334 2.133334 1.450667 0.853333 2.858667 1.664 4.266666 2.56 1.408 0.896 2.474667 2.005333 3.84 2.986666 1.365333 0.938667 2.944 1.962667 4.266667 2.986667 1.28 1.024 2.56 1.92 3.84 2.986667 1.28 1.066667 2.602667 2.261333 3.84 3.413333 1.237333 1.109333 2.218667 2.218667 3.413333 3.413333 1.152 1.194667 2.261333 2.602667 3.413334 3.84 1.109333 1.237333 2.346667 2.133333 3.413333 3.413334s1.962667 2.944 2.986667 4.266666c1.024 1.322667 2.048 2.474667 2.986666 3.84 0.938667 1.365333 2.090667 2.858667 2.986667 4.266667l2.56 4.266667c0.853333 1.450667 1.365333 2.773333 2.133333 4.266666 0.768 1.493333 1.450667 3.157333 2.133334 4.693334 0.682667 1.493333 1.493333 3.157333 2.133333 4.693333 0.64 1.536 1.152 3.114667 1.706667 4.693333 0.554667 1.578667 1.194667 3.114667 1.706666 4.693334 0.469333 1.578667 1.28 3.072 1.28 4.693333 0 1.621333 1.28 3.072 1.28 4.693333 0 1.621333 0.853333 3.456 0.853334 5.12v154.026667l196.266666 8.106667h3.84c1.322667 0 2.944 0.426667 4.266667 0.426666 1.28 0 2.56 0.426667 3.84 0.426667s2.56 0.853333 3.84 0.853333 2.56 0.853333 3.84 0.853334 2.56 0.853333 3.84 0.853333 2.56 0.853333 3.84 1.28c1.28 0.426667 2.602667 0.768 3.84 1.28 1.237333 0.512 2.218667 1.152 3.413333 1.706667 1.194667 0.554667 2.688 1.066667 3.84 1.706666 1.152 0.64 2.261333 1.450667 3.413334 2.133334l3.413333 2.133333c1.109333 0.725333 1.92 1.322667 2.986667 2.133333 1.066667 0.768 2.389333 1.706667 3.413333 2.56l2.986667 2.56c0.981333 0.853333 1.621333 2.048 2.56 2.986667 0.938667 0.938667 2.090667 1.578667 2.986666 2.56l2.56 2.986667c0.853333 1.024 1.749333 2.346667 2.56 3.413333 0.768 1.066667 1.408 1.877333 2.133334 2.986667l2.133333 3.413333c0.682667 1.152 1.493333 2.261333 2.133333 3.413333 0.64 1.152 1.152 2.645333 1.706667 3.84 0.554667 1.194667 1.194667 2.176 1.706667 3.413334 0.512 1.237333 0.853333 2.56 1.28 3.84 0.426667 1.28 1.28 2.56 1.28 3.84s0.853333 2.56 0.853333 3.84 0.853333 2.56 0.853333 3.84 0.853333 2.56 0.853334 3.84 0.426667 2.517333 0.426666 3.84c0 1.28 0.426667 2.944 0.426667 4.266666v381.44c0 1.621333-0.426667 3.541333-0.426667 5.12 0 1.578667-0.426667 3.114667-0.426666 4.693334 0 1.578667-0.853333 3.114667-0.853334 4.693333 0 1.578667-1.28 3.157333-1.28 4.693333 0 1.536-0.810667 3.157333-1.28 4.693334-0.469333 1.536-1.152 2.773333-1.706666 4.266666-0.554667 1.493333-1.109333 3.242667-1.706667 4.693334-0.64 1.493333-1.024 2.816-1.706667 4.266666s-1.792 2.858667-2.56 4.266667c-0.768 1.408-1.28 2.901333-2.133333 4.266667-0.853333 1.365333-1.664 2.56-2.56 3.84-0.896 1.28-2.005333 2.56-2.986667 3.84-0.981333 1.28-1.962667 2.602667-2.986666 3.84a95.36 95.36 0 0 1-6.4 6.826666c-1.152 1.109333-2.645333 2.346667-3.84 3.413334-1.194667 1.066667-2.133333 2.005333-3.413334 2.986666-1.28 0.981333-2.56 2.048-3.84 2.986667-1.28 0.938667-2.944 1.706667-4.266666 2.56-1.365333 0.853333-2.474667 1.792-3.84 2.56-1.408 0.810667-2.858667 1.408-4.266667 2.133333-1.450667 0.725333-2.816 1.493333-4.266667 2.133334s-3.2 1.109333-4.693333 1.706666c-1.493333 0.597333-2.730667 1.194667-4.266667 1.706667-1.536 0.512-3.157333 0.853333-4.693333 1.28-1.536 0-3.114667 1.28-4.693333 1.28-1.578667 0-3.114667 0.853333-4.693334 0.853333-1.578667 0-3.114667 0.853333-4.693333 0.853334-1.578667 0-3.114667 0.426667-4.693333 0.426666H777.813333z m-343.04-81.066666h343.04l0.853334 0.426666h3.413333l0.853333-0.426666h0.426667l0.853333-0.426667h0.853334l0.853333-0.426667h0.853333l0.426667-0.426666 0.853333-0.426667 0.853334-0.426667 0.426666-0.426666 0.853334-0.426667 0.426666-0.853333 0.853334-0.426667 0.426666-0.426667 0.426667-0.853333 0.426667-0.426667 0.426666-0.853333 0.426667-0.853333 0.426667-0.426667 0.426666-0.853333 0.426667-0.853334v-0.853333l0.426667-0.426667v-0.853333l0.426666-0.853333v-374.613334l-218.88-7.253333c-0.981333 0-2.048-0.426667-2.986666-0.426667h-2.986667c-0.981333 0-1.621333-0.853333-2.56-0.853333s-2.048-0.426667-2.986667-0.426667c-0.938667 0-1.621333-0.853333-2.56-0.853333s-2.090667-0.853333-2.986666-0.853333c-0.896 0-1.706667-0.853333-2.56-0.853334-0.896 0-2.133333-1.28-2.986667-1.28-0.853333 0-1.706667-0.853333-2.56-1.28l-2.56-1.28c-0.853333-0.469333-1.322667-1.194667-2.133333-1.706666a74.069333 74.069333 0 0 1-2.56-1.706667c-0.810667-0.554667-1.365333-1.109333-2.133334-1.706667-0.768-0.597333-1.834667-1.066667-2.56-1.706666s-1.450667-1.450667-2.133333-2.133334c-0.725333-0.682667-1.450667-1.024-2.133333-1.706666s-1.066667-1.408-1.706667-2.133334a86.869333 86.869333 0 0 1-2.133333-2.56c-0.597333-0.768-1.152-1.365333-1.706667-2.133333-0.554667-0.768-0.768-1.749333-1.28-2.56-0.554667-0.810667-1.237333-1.28-1.706667-2.133333-0.512-0.853333-0.853333-1.706667-1.28-2.56-0.426667-0.853333-1.28-1.706667-1.28-2.56 0-0.853333-1.28-2.133333-1.28-2.986667 0-0.896-1.28-1.664-1.28-2.56 0-0.896-0.853333-1.621333-0.853333-2.56s-0.426667-2.048-0.426667-2.986667c0-0.938667-0.853333-2.048-0.853333-2.986666 0-0.938667-0.426667-1.621333-0.426667-2.56s-0.426667-2.005333-0.426666-2.986667c0-0.981333-0.426667-2.005333-0.426667-2.986667v-177.92-1.28c0-0.469333-0.426667-1.237333-0.426667-1.706666s-0.426667-0.853333-0.426666-1.28c0-0.469333-0.426667-0.853333-0.426667-1.28 0-0.426667-0.426667-1.28-0.426667-1.706667 0-0.426667-0.853333-0.853333-0.853333-1.28 0-0.426667-0.426667-0.853333-0.426667-1.28 0-0.426667-0.853333-0.853333-0.853333-1.28 0-0.426667-0.853333-1.28-0.853333-1.28l-0.426667-1.28-0.853333-1.28-1.28-0.853333-0.853334-1.28-0.853333-0.853334-1.28-1.28-0.853333-0.853333-1.28-0.853333-1.28-0.853334-0.853334-0.853333-1.28-0.853333s-0.853333-0.853333-1.28-0.853334c-0.426667 0-0.853333-0.426667-1.28-0.426666-0.426667 0-1.28-0.853333-1.706666-0.853334-0.426667 0-0.853333-0.426667-1.28-0.426666-0.426667 0-0.853333-0.426667-1.28-0.426667-0.469333 0-0.853333-0.426667-1.28-0.426667-0.469333 0-1.237333-0.426667-1.706667-0.426666s-0.810667-0.426667-1.28-0.426667h-1.28c-0.469333 0-1.237333-0.426667-1.706667-0.426667h-5.973333c-0.512 0-0.810667 0.426667-1.28 0.426667h-1.28c-0.469333 0-1.237333 0.426667-1.706667 0.426667s-0.853333 0.426667-1.28 0.426666c-0.469333 0-1.28 0.426667-1.706666 0.426667-0.469333 0-0.853333 0.426667-1.28 0.426667-0.426667 0-0.853333 0.426667-1.28 0.426666-0.426667 0-0.853333 0.853333-1.28 0.853334-0.426667 0-0.853333 0.426667-1.28 0.426666-0.426667 0-1.28 0.853333-1.28 0.853334l-1.28 0.853333-1.28 0.853333-1.28 0.853334-0.853334 0.853333-1.28 0.853333-0.853333 1.28-1.28 0.853334-0.853333 1.28-0.853334 0.853333-0.853333 1.28-0.853333 1.28s-0.853333 0.853333-0.853334 1.28c0 0.426667-0.426667 0.853333-0.426666 1.28 0 0.426667-0.853333 0.853333-0.853334 1.28 0 0.426667-0.426667 0.853333-0.426666 1.28 0 0.426667-0.426667 1.28-0.426667 1.706667 0 0.426667-0.426667 0.810667-0.426667 1.28s-0.426667 0.810667-0.426666 1.28-0.426667 1.237333-0.426667 1.706666-0.426667 0.810667-0.426667 1.28V702.976c0 0.554667-0.426667 1.152-0.426666 1.706667v1.706666c0 0.554667-0.426667 0.725333-0.426667 1.28 0 0.554667-0.426667 1.152-0.426667 1.706667 0 0.512-0.426667 1.194667-0.426666 1.706667s-0.426667 1.194667-0.426667 1.706666-0.426667 0.768-0.426667 1.28-0.853333 1.194667-0.853333 1.706667-0.426667 0.768-0.426667 1.28-0.853333 1.237333-0.853333 1.706667-0.853333 0.810667-0.853333 1.28-0.853333 0.853333-0.853334 1.28c0 0.426667-0.853333 1.28-0.853333 1.706666 0 0.426667-1.28 0.853333-1.28 1.28 0 0.426667-0.853333 1.28-0.853333 1.28l-0.853334 1.28-1.28 0.853334-1.28 1.28-1.28 1.28s-0.853333 0.853333-1.28 0.853333c-0.426667 0-0.853333 0.853333-1.28 0.853333-0.426667 0-0.853333 1.28-1.28 1.28-0.426667 0-0.853333 0.853333-1.28 0.853334-0.469333 0-1.237333 0.853333-1.706666 0.853333s-0.810667 0.853333-1.28 0.853333c-0.512 0-1.194667 0.426667-1.706667 0.426667s-0.768 0.853333-1.28 0.853333-1.194667 0.426667-1.706667 0.426667-0.768 0.426667-1.28 0.426667-1.194667 0.426667-1.706666 0.426666c-0.554667 0-1.152 0.426667-1.706667 0.426667-0.554667 0-1.152 0.426667-1.706667 0.426667h-1.706666c-0.554667 0-1.152 0.426667-1.706667 0.426666h-3.413333c-0.554667 0-0.725333-0.426667-1.28-0.426666h-3.413334c-0.554667 0-1.152-0.426667-1.706666-0.426667-0.554667 0-1.152-0.426667-1.706667-0.426667-0.554667 0-1.152-0.426667-1.706667-0.426666-0.554667 0-1.194667-0.426667-1.706666-0.426667-0.554667 0-0.768-0.426667-1.28-0.426667s-1.194667-0.853333-1.706667-0.853333-1.194667-0.426667-1.706667-0.426667-0.768-0.853333-1.28-0.853333-1.237333-0.853333-1.706666-0.853333c-0.512 0-0.810667-0.853333-1.28-0.853334s-0.853333-0.853333-1.28-0.853333c-0.469333 0-0.853333-0.853333-1.28-0.853333-0.426667 0-1.28-1.28-1.706667-1.28-0.426667 0-1.28-0.853333-1.28-0.853334l-1.28-1.28-0.853333-1.28-1.28-1.28s-1.28-0.853333-1.28-1.28c0-0.426667-0.853333-0.853333-0.853334-1.28 0-0.426667-0.853333-0.853333-0.853333-1.28 0-0.426667-0.853333-0.810667-0.853333-1.28s-1.28-1.237333-1.28-1.706666-0.426667-0.768-0.426667-1.28l-45.653333-81.066667c0-0.426667-0.853333-0.853333-1.28-1.28-0.426667-0.426667-0.853333-1.28-1.28-1.28-0.469333 0-1.237333-1.28-1.706667-1.28-0.512 0-0.768-1.28-1.28-1.28s-1.194667-0.853333-1.706667-0.853333c-0.554667 0-0.725333-0.853333-1.28-0.853334-0.554667 0-1.152-0.853333-1.706666-0.853333-0.554667 0-1.152-0.853333-1.706667-0.853333-0.597333 0-1.109333-0.853333-1.706667-0.853334-0.597333 0-1.536-0.426667-2.133333-0.426666-0.597333 0-1.109333-0.853333-1.706667-0.853334-0.597333 0-1.109333-0.426667-1.706666-0.426666h-1.706667c-0.64 0-1.536-0.426667-2.133333-0.426667h-7.253334c-0.64 0-1.536 0.426667-2.133333 0.426667h-1.706667c-0.64 0-1.109333 0.426667-1.706666 0.426666-0.597333 0-1.536 0.853333-2.133334 0.853334-0.597333 0-1.109333 0.426667-1.706666 0.426666-0.597333 0-1.152 0.853333-1.706667 0.853334-0.597333 0-1.152 0.853333-1.706667 0.853333-0.554667 0-1.152 0.853333-1.706666 0.853333-0.554667 0-0.768 0.853333-1.28 0.853334-0.554667 0-1.194667 0.853333-1.706667 0.853333s-1.237333 1.28-1.706667 1.28c-0.512 0-0.853333 1.28-1.28 1.28-0.469333 0-0.853333 0.853333-1.28 1.28-0.426667 0.426667-1.28 0.853333-1.28 1.28l-1.28 0.853333-1.28 1.28-1.28 1.28-0.853333 0.853334-0.853333 1.28s-1.28 0.853333-1.28 1.28c0 0.426667-0.853333 0.853333-0.853334 1.28 0 0.426667-0.853333 1.28-0.853333 1.706666 0 0.426667-0.853333 0.810667-0.853333 1.28s-0.426667 0.810667-0.426667 1.28-0.853333 1.194667-0.853333 1.706667-0.426667 0.768-0.426667 1.28-0.426667 1.194667-0.426667 1.706667-0.426667 1.194667-0.426666 1.706666-0.426667 0.768-0.426667 1.28-0.426667 1.194667-0.426667 1.706667v1.706667c0 0.512-0.426667 0.768-0.426666 1.28v3.413333c0 0.512 0.426667 1.152 0.426666 1.706667v2.986666c0 0.512 0.426667 1.194667 0.426667 1.706667s0.426667 0.768 0.426667 1.28 0.426667 1.194667 0.426666 1.706667 0.426667 1.194667 0.426667 1.706666 0.853333 0.768 0.853333 1.28c0 0.469333 0.426667 0.810667 0.426667 1.28s0.853333 1.237333 0.853333 1.706667 0.853333 0.853333 0.853334 1.28c0 0.426667 0.853333 0.853333 0.853333 1.28l163.413333 260.266667z"></path>
</svg>
