<svg xmlns="http://www.w3.org/2000/svg" viewBox="0 0 1024 1024">
    <path d="m765.73867 462.08-73.81334-34.00533A273.408 273.408 0 0 0 710.912 371.072a187.86 187.86 0 0 0 3.75467-35.41333h81.06666a340.01 340.01 0 0 1-8.96 62.42133 350.38 350.38 0 0 1-21.03466 64M777.088 214.016l-76.20267 27.56267a245.12 245.12 0 0 0-40.87466-72.064 241.07 241.07 0 0 0-7.76534-8.96l62.42134-54.35734a322.603 322.603 0 0 1 56.96 93.14134c1.92 4.864 3.75466 9.77066 5.46133 14.67733M610.048 30.80533l-34.00533 72.96a274.603 274.603 0 0 0-45.44-16.21333 311.81 311.81 0 0 0-47.01867-6.48533V0a324.096 324.096 0 0 1 68.90667 8.91733 350.59 350.59 0 0 1 57.6 21.888zm-247.21067-12.16L390.4 94.848a243.413 243.413 0 0 0-81.06667 49.49333L254.976 83.456a328.107 328.107 0 0 1 107.81867-64.81067zm-184.064 166.99734A291.883 291.883 0 0 0 157.696 245.632a285.74 285.74 0 0 0-10.53867 66.51733H228.224a243.07 243.07 0 0 1 7.25333-47.06133 271.23 271.23 0 0 1 15.44534-45.39733zm-12.16 248.10666 76.16-27.56266a244.267 244.267 0 0 0 49.45067 81.06666l-59.98933 55.12534A325.589 325.589 0 0 1 166.528 433.74933z"/>
    <path d="M777.81333 1023.82933H412.58667c-.512 0-.81067-.42666-1.28-.42666H409.6c-.46933 0-.81067-.42667-1.28-.42667h-1.70667c-.46933 0-.81066-.42667-1.28-.42667s-.85333-.42666-1.28-.42666c-.46933 0-1.28-.42667-1.70666-.42667-.46934 0-.85334-.42667-1.28-.42667-.46934 0-.85334-.42666-1.28-.42666s-.85334-.85334-1.28-.85334-.85334-.42666-1.28-.42666-1.28-.42667-1.70667-.42667-.85333-.85333-1.28-.85333-.85333-.42667-1.28-.42667-1.28-.85333-1.28-.85333l-1.28-.85334-1.28-.85333-.85333-.85333-1.28-.85334-1.28-.85333-1.28-.85333-.85334-.85334-1.28-1.28-.85333-.85333-.85333-1.28-1.28-.85333-.85334-1.28-.85333-.85334-.85333-1.28-.85334-1.28-173.65333-280.32c-.93867-1.49333-1.70667-3.15733-2.56-4.69333s-1.792-3.11467-2.56-4.69333c-.768-1.57867-1.45067-3.11467-2.13333-4.69334-.72534-1.57866-1.49334-3.072-2.13334-4.69333s-1.152-3.456-1.70666-5.12-.81067-2.98667-1.28-4.69333c-.46934-1.70667-1.70667-3.41334-1.70667-5.12s-.85333-3.41334-.85333-5.12-.85334-3.41334-.85334-5.12-.85333-3.41334-.85333-5.12-.42667-3.84-.42667-5.54667v-10.24c0-1.70667.42667-3.41333.42667-5.12s.42667-3.84.42667-5.54667.85333-3.41333.85333-5.12.85333-3.41333.85333-5.12.85334-3.41333 1.28-5.12S190.208 627.84 190.72 626.176s1.10933-3.49867 1.70667-5.12 1.024-3.072 1.70666-4.69333c.68267-1.62134 1.36534-3.11467 2.13334-4.69334.72533-1.57866 1.28-3.15733 2.13333-4.69333l2.56-4.69333c.85333-1.49334 2.048-3.24267 2.98667-4.69334.93866-1.45066 1.96266-2.85866 2.98666-4.26666s1.92-2.47467 2.98667-3.84c1.06667-1.36534 2.26133-2.98667 3.41333-4.26667a113.24 113.24 0 0 1 7.25334-7.68l3.84-3.41333c1.28-1.152 2.47466-2.304 3.84-3.41334l3.84-2.98666c1.28-.98134 2.47466-2.048 3.84-2.98667s2.85866-1.70667 4.26666-2.56 2.816-1.74933 4.26667-2.56c1.408-.81067 2.77333-1.83467 4.26667-2.56 1.45066-.768 3.2-1.45067 4.69333-2.13333s2.73067-1.10934 4.26667-1.70667c1.536-.64 3.15733-1.152 4.69333-1.70667s3.11467-1.23733 4.69333-1.70666c1.57867-.46934 3.11467-1.28 4.69334-1.28 1.57866 0 3.072-1.28 4.69333-1.28s3.49867-.85334 5.12-.85334 3.072-.85333 4.69333-.85333c1.62134 0 3.456-.42667 5.12-.42667 1.62134 0 3.02934-.42666 4.69334-.42666h10.24c1.62133 0 3.02933.42666 4.69333.42666 1.62133 0 3.49867.42667 5.12.42667s3.072.85333 4.69333.85333c1.62134 0 3.072.85334 4.69334.85334 1.62133 0 3.54133 1.28 5.12 1.28 1.57866 0 3.11466.81066 4.69333 1.28s3.15733 1.152 4.69333 1.70666 3.15734 1.06667 4.69334 1.70667c1.536.59733 2.77333 1.024 4.26666 1.70667s3.2 1.36533 4.69334 2.13333c1.45066.768 2.816 1.74933 4.26666 2.56l4.26667 2.56c1.408.85333 2.47467 1.62133 3.84 2.56s2.944 2.00533 4.26667 2.98667l3.84 2.98666v-258.56c0-1.664.85333-3.49866.85333-5.12 0-1.62133 1.28-3.072 1.28-4.69333s.768-3.11467 1.28-4.69333c.46933-1.57867 1.152-3.11467 1.70667-4.69334.55466-1.57866 1.06666-3.15733 1.70666-4.69333s1.45067-3.2 2.13334-4.69333c.68266-1.536 1.36533-3.2 2.13333-4.69334s1.28-2.816 2.13333-4.26666c.85334-1.45067 1.664-2.85867 2.56-4.26667.85334-1.408 2.048-2.90133 2.98667-4.26667.93867-1.36533 1.96267-2.51733 2.98667-3.84 1.024-1.32266 1.92-2.98666 2.98666-4.26666s2.304-2.176 3.41334-3.41334c1.10933-1.23733 2.21866-2.64533 3.41333-3.84 1.152-1.19466 2.176-2.304 3.41333-3.41333a119.9 119.9 0 0 1 3.84-3.41333c1.28-1.06667 2.51734-1.96267 3.84-2.98667 1.28-1.024 2.90134-2.048 4.26667-2.98667 1.36533-.98133 2.85867-2.09066 4.26667-2.98666s2.816-1.70667 4.26666-2.56 2.77334-1.36534 4.26667-2.13334c1.45067-.768 2.73067-1.83466 4.26667-2.56 1.49333-.72533 3.15733-1.06666 4.69333-1.70666s3.11467-1.57867 4.69333-2.13334c1.57867-.59733 3.11467-.768 4.69334-1.28 1.57866-.512 3.072-1.28 4.69333-1.70666s3.49867-1.28 5.12-1.28 3.02933-.85334 4.69333-.85334c1.62134 0 3.456-.85333 5.12-.85333s3.41334-.42667 5.12-.42667c1.664 0 2.98667-.42666 4.69334-.42666h10.24c1.664 0 3.41333.42666 5.12.42666 1.664 0 3.02933.42667 4.69333.42667s3.456.85333 5.12.85333c1.62133 0 3.072.85334 4.69333.85334 1.62134 0 3.49867.85333 5.12 1.28 1.62134.42666 3.11467 1.19466 4.69334 1.70666 1.57866.512 3.11466.68267 4.69333 1.28 1.57867.55467 3.15733 1.49334 4.69333 2.13334s3.15734.98133 4.69334 1.70666c1.49333.72534 2.77333 1.792 4.26666 2.56 1.49334.768 3.24267 1.28 4.69334 2.13334 1.45066.85333 2.85866 1.664 4.26666 2.56s2.47467 2.00533 3.84 2.98666c1.36534.93867 2.944 1.96267 4.26667 2.98667 1.28 1.024 2.56 1.92 3.84 2.98667 1.28 1.06666 2.60267 2.26133 3.84 3.41333 1.23733 1.10933 2.21867 2.21867 3.41333 3.41333 1.152 1.19467 2.26134 2.60267 3.41334 3.84 1.10933 1.23734 2.34666 2.13334 3.41333 3.41334s1.96267 2.944 2.98667 4.26666c1.024 1.32267 2.048 2.47467 2.98666 3.84.93867 1.36534 2.09067 2.85867 2.98667 4.26667l2.56 4.26667c.85333 1.45066 1.36533 2.77333 2.13333 4.26666.768 1.49334 1.45067 3.15734 2.13334 4.69334C591.18933 285.056 592 286.72 592.64 288.256s1.152 3.11467 1.70667 4.69333c.55466 1.57867 1.19466 3.11467 1.70666 4.69334.46934 1.57866 1.28 3.072 1.28 4.69333s1.28 3.072 1.28 4.69333c0 1.62134.85334 3.456.85334 5.12V466.176l196.26666 8.10667h3.84c1.32267 0 2.944.42666 4.26667.42666 1.28 0 2.56.42667 3.84.42667s2.56.85333 3.84.85333 2.56.85334 3.84.85334 2.56.85333 3.84.85333 2.56.85333 3.84 1.28 2.60267.768 3.84 1.28 2.21867 1.152 3.41333 1.70667 2.688 1.06666 3.84 1.70666 2.26134 1.45067 3.41334 2.13334L840.96 487.936c1.10933.72533 1.92 1.32267 2.98667 2.13333 1.06666.768 2.38933 1.70667 3.41333 2.56l2.98667 2.56c.98133.85334 1.62133 2.048 2.56 2.98667.93866.93867 2.09066 1.57867 2.98666 2.56l2.56 2.98667c.85334 1.024 1.74934 2.34666 2.56 3.41333.768 1.06667 1.408 1.87733 2.13334 2.98667L865.28 513.536c.68267 1.152 1.49333 2.26133 2.13333 3.41333s1.152 2.64534 1.70667 3.84c.55467 1.19467 1.19467 2.176 1.70667 3.41334s.85333 2.56 1.28 3.84c.42666 1.28 1.28 2.56 1.28 3.84s.85333 2.56.85333 3.84.85333 2.56.85333 3.84.85334 2.56.85334 3.84.42666 2.51733.42666 3.84c0 1.28.42667 2.944.42667 4.26666v381.44c0 1.62134-.42667 3.54134-.42667 5.12s-.42666 3.11467-.42666 4.69334c0 1.57866-.85334 3.11466-.85334 4.69333s-1.28 3.15733-1.28 4.69333-.81066 3.15734-1.28 4.69334-1.152 2.77333-1.70666 4.26666c-.55467 1.49334-1.10934 3.24267-1.70667 4.69334-.64 1.49333-1.024 2.816-1.70667 4.26666s-1.792 2.85867-2.56 4.26667-1.28 2.90133-2.13333 4.26667c-.85333 1.36533-1.664 2.56-2.56 3.84s-2.00533 2.56-2.98667 3.84c-.98133 1.28-1.96266 2.60266-2.98666 3.84a95.36 95.36 0 0 1-6.4 6.82666c-1.152 1.10934-2.64534 2.34667-3.84 3.41334-1.19467 1.06666-2.13334 2.00533-3.41334 2.98666s-2.56 2.048-3.84 2.98667-2.944 1.70667-4.26666 2.56c-1.36534.85333-2.47467 1.792-3.84 2.56-1.408.81067-2.85867 1.408-4.26667 2.13333-1.45067.72534-2.816 1.49334-4.26667 2.13334s-3.2 1.10933-4.69333 1.70666-2.73067 1.19467-4.26667 1.70667-3.15733.85333-4.69333 1.28c-1.536 0-3.11467 1.28-4.69333 1.28-1.57867 0-3.11467.85333-4.69334.85333-1.57866 0-3.11466.85334-4.69333.85334s-3.11467.42666-4.69333.42666zm-343.04-81.06666h343.04l.85334.42666H782.08l.85333-.42666h.42667l.85333-.42667h.85334l.85333-.42667h.85333l.42667-.42666.85333-.42667.85334-.42667.42666-.42666.85334-.42667.42666-.85333.85334-.42667.42666-.42667.42667-.85333.42667-.42667.42666-.85333.42667-.85333.42667-.42667.42666-.85333.42667-.85334v-.85333l.42667-.42667v-.85333l.42666-.85333V555.34933l-218.88-7.25333c-.98133 0-2.048-.42667-2.98666-.42667H570.88c-.98133 0-1.62133-.85333-2.56-.85333s-2.048-.42667-2.98667-.42667c-.93866 0-1.62133-.85333-2.56-.85333s-2.09066-.85333-2.98666-.85333-1.70667-.85334-2.56-.85334c-.896 0-2.13334-1.28-2.98667-1.28s-1.70667-.85333-2.56-1.28l-2.56-1.28c-.85333-.46933-1.32267-1.19466-2.13333-1.70666a74.1 74.1 0 0 1-2.56-1.70667c-.81067-.55467-1.36534-1.10933-2.13334-1.70667s-1.83466-1.06666-2.56-1.70666-1.45066-1.45067-2.13333-2.13334c-.72533-.68266-1.45067-1.024-2.13333-1.70666s-1.06667-1.408-1.70667-2.13334a86.9 86.9 0 0 1-2.13333-2.56c-.59734-.768-1.152-1.36533-1.70667-2.13333s-.768-1.74933-1.28-2.56c-.55467-.81067-1.23733-1.28-1.70667-2.13333-.512-.85334-.85333-1.70667-1.28-2.56-.42666-.85334-1.28-1.70667-1.28-2.56s-1.28-2.13334-1.28-2.98667c0-.896-1.28-1.664-1.28-2.56s-.85333-1.62133-.85333-2.56-.42667-2.048-.42667-2.98667c0-.93866-.85333-2.048-.85333-2.98666s-.42667-1.62134-.42667-2.56-.42666-2.00534-.42666-2.98667-.42667-2.00533-.42667-2.98667v-179.2c0-.46933-.42667-1.23733-.42667-1.70666s-.42666-.85334-.42666-1.28c0-.46934-.42667-.85334-.42667-1.28s-.42667-1.28-.42667-1.70667-.85333-.85333-.85333-1.28-.42667-.85333-.42667-1.28-.85333-.85333-.85333-1.28-.85333-1.28-.85333-1.28l-.42667-1.28-.85333-1.28-1.28-.85333-.85334-1.28-.85333-.85334-1.28-1.28-.85333-.85333-1.28-.85333-1.28-.85334-.85334-.85333-1.28-.85333s-.85333-.85334-1.28-.85334c-.42666 0-.85333-.42666-1.28-.42666-.42666 0-1.28-.85334-1.70666-.85334s-.85334-.42666-1.28-.42666-.85334-.42667-1.28-.42667c-.46934 0-.85334-.42667-1.28-.42667-.46934 0-1.23734-.42666-1.70667-.42666s-.81067-.42667-1.28-.42667h-1.28c-.46933 0-1.23733-.42667-1.70667-.42667H482.56c-.512 0-.81067.42667-1.28.42667H480c-.46933 0-1.23733.42667-1.70667.42667s-.85333.42666-1.28.42666c-.46933 0-1.28.42667-1.70666.42667-.46934 0-.85334.42667-1.28.42667s-.85334.42666-1.28.42666-.85334.85334-1.28.85334-.85334.42666-1.28.42666-1.28.85334-1.28.85334l-1.28.85333-1.28.85333-1.28.85334-.85334.85333-1.28.85333-.85333 1.28-1.28.85334-.85333 1.28-.85334.85333-.85333 1.28-.85333 1.28s-.85334.85333-.85334 1.28-.42666.85333-.42666 1.28-.85334.85333-.85334 1.28-.42666.85333-.42666 1.28-.42667 1.28-.42667 1.70667-.42667.81066-.42667 1.28-.42666.81066-.42666 1.28-.42667 1.23733-.42667 1.70666-.42667.81067-.42667 1.28V702.976c0 .55467-.42666 1.152-.42666 1.70667v1.70666c0 .55467-.42667.72534-.42667 1.28s-.42667 1.152-.42667 1.70667c0 .512-.42666 1.19467-.42666 1.70667s-.42667 1.19466-.42667 1.70666-.42667.768-.42667 1.28-.85333 1.19467-.85333 1.70667-.42667.768-.42667 1.28S448 718.29333 448 718.76267s-.85333.81066-.85333 1.28-.85334.85333-.85334 1.28c0 .42666-.85333 1.28-.85333 1.70666s-1.28.85334-1.28 1.28-.85333 1.28-.85333 1.28l-.85334 1.28-1.28.85334-1.28 1.28-1.28 1.28s-.85333.85333-1.28.85333c-.42666 0-.85333.85333-1.28.85333-.42666 0-.85333 1.28-1.28 1.28-.42666 0-.85333.85334-1.28.85334-.46933 0-1.23733.85333-1.70666.85333s-.81067.85333-1.28.85333c-.512 0-1.19467.42667-1.70667.42667s-.768.85333-1.28.85333-1.19467.42667-1.70667.42667-.768.42667-1.28.42667-1.19466.42666-1.70666.42666c-.55467 0-1.152.42667-1.70667.42667s-1.152.42667-1.70667.42667h-1.70666c-.55467 0-1.152.42666-1.70667.42666h-3.41333c-.55467 0-.72534-.42666-1.28-.42666h-3.41334c-.55466 0-1.152-.42667-1.70666-.42667s-1.152-.42667-1.70667-.42667-1.152-.42666-1.70667-.42666-1.19466-.42667-1.70666-.42667c-.55467 0-.768-.42667-1.28-.42667s-1.19467-.85333-1.70667-.85333-1.19467-.42667-1.70667-.42667-.768-.85333-1.28-.85333-1.23733-.85333-1.70666-.85333c-.512 0-.81067-.85334-1.28-.85334s-.85334-.85333-1.28-.85333c-.46934 0-.85334-.85333-1.28-.85333s-1.28-1.28-1.70667-1.28-1.28-.85334-1.28-.85334l-1.28-1.28-.85333-1.28-1.28-1.28s-1.28-.85333-1.28-1.28c0-.42666-.85334-.85333-.85334-1.28 0-.42666-.85333-.85333-.85333-1.28 0-.42666-.85333-.81066-.85333-1.28s-1.28-1.23733-1.28-1.70666-.42667-.768-.42667-1.28L331.94667 636.416c0-.42667-.85334-.85333-1.28-1.28s-.85334-1.28-1.28-1.28c-.46934 0-1.23734-1.28-1.70667-1.28-.512 0-.768-1.28-1.28-1.28s-1.19467-.85333-1.70667-.85333c-.55466 0-.72533-.85334-1.28-.85334s-1.152-.85333-1.70666-.85333-1.152-.85333-1.70667-.85333c-.59733 0-1.10933-.85334-1.70667-.85334s-1.536-.42666-2.13333-.42666-1.10933-.85334-1.70667-.85334-1.10933-.42666-1.70666-.42666H311.04c-.64 0-1.536-.42667-2.13333-.42667h-7.25334c-.64 0-1.536.42667-2.13333.42667h-1.70667c-.64 0-1.10933.42666-1.70666.42666s-1.536.85334-2.13334.85334-1.10933.42666-1.70666.42666-1.152.85334-1.70667.85334c-.59733 0-1.152.85333-1.70667.85333s-1.152.85333-1.70666.85333-.768.85334-1.28.85334c-.55467 0-1.19467.85333-1.70667.85333s-1.23733 1.28-1.70667 1.28c-.512 0-.85333 1.28-1.28 1.28-.46933 0-.85333.85333-1.28 1.28-.42666.42667-1.28.85333-1.28 1.28l-1.28.85333-1.28 1.28-1.28 1.28-.85333.85334-.85333 1.28s-1.28.85333-1.28 1.28c0 .42666-.85334.85333-.85334 1.28 0 .42666-.85333 1.28-.85333 1.70666s-.85333.81067-.85333 1.28-.42667.81067-.42667 1.28-.85333 1.19467-.85333 1.70667-.42667.768-.42667 1.28-.42667 1.19467-.42667 1.70667-.42666 1.19466-.42666 1.70666-.42667.768-.42667 1.28-.42667 1.19467-.42667 1.70667v1.70667c0 .512-.42666.768-.42666 1.28v3.41333c0 .512.42666 1.152.42666 1.70667v2.98666c0 .512.42667 1.19467.42667 1.70667s.42667.768.42667 1.28.42666 1.19467.42666 1.70667.42667 1.19466.42667 1.70666.85333.768.85333 1.28c0 .46934.42667.81067.42667 1.28s.85333 1.23734.85333 1.70667.85334.85333.85334 1.28.85333.85333.85333 1.28z"/>
</svg>
