<svg xmlns="http://www.w3.org/2000/svg" fill="none" viewBox="0 0 62 62">
    <path stroke="#000" stroke-width=".12" d="m31.103 47.3024-.7606 2.9574M37.7426 48.9349l-3.1855 5.2516M35.9123 46.0291l-2.2519 2.4096M37.0946 46.3236l.547 1.9682M31.9974 46.4905l3.5104-.9757M32.6371 43.207l2.7545 1.1947M34.8699 41.0277l1.2535 2.6022M40.7703 38.3396l-3.0896 5.3742M19.0689 29.623l-4.7298 1.8368M18.8966 24.6028l-7.2828-2.0219M19.2331 23.8495l-2.958-3.2684M25.5214 21.5027l-2.9228-1.2621M25.6014 22.2158l-1.2468.8849M22.0136 14.8781l-2.6857-1.2249M22.3861 15.994l-5.9864 3.6174M27.7461 13.8615l-2.9437.9908M23.9438 9.78455l-.4495 3.98425M31.9922 7.63464l-3.8103 3.39126M29.4669 18.2827l-2.87 3.0523M29.7641 16.9401l-1.2165-2.6825M20.0141 30.4579l-.8625 2.4815M14.6032 28.3297l-.9661 2.5861M12.5219 31.4736l-2.4636-1.3365M22.0257 26.8197l-.7867 1.2465M12.9598 32.775l-.8797 1.7148M21.2321 34.5785l-4.7153 2.7973M13.8021 41.781l-3.3219-3.5513M24.8603 41.3998l-3.8288 1.5103M21.0653 39.5944l-.964 2.6837M23.5041 44.4484l-2.3496-.5008M18.3962 43.395l-3.5503-.8771M18.6257 44.5128l-2.1118 1.197M20.3774 44.994l1.3165 6.5305M42.7589 37.6326l4.2135 2.6659M43.4778 32.7476l1.4458.3237M45.0098 29.2468l4.9595-.2586M45.7107 24.3954l-1.1445 4.2715M46.7114 24.1801l3.613 4.0773M47.1222 23.3925l4.5363.9321M52.8274 24.7726l3.1138 7.2196M46.884 22.767l6.1417-2.627M46.2111 22.3213l.2521-2.3136M48.2978 18.9824l-.3381-1.2967M51.1481 17.2247l-2.3295 2.1483M40.3196 21.6002l4.8441 1.2557M42.4147 25.4277l2.7516-1.5289M42.4777 17.3009l3.0487 5.1775M41.4577 17.3181l-1.6832 2.8607M45.183 11.5106 42.5505 15.5M44.9285 11.229l-2.5469.36M41.7926 11.2608l-.5297-2.05047M46.1389 33.4818l2.1275.9488M44.9921 36.1155l3.3619-.9547M47.8926 39.9833l1.4848-3.8616M48.3132 40.7117l4.5143 1.1587M40.936 42.0878l-2.8236 2.1723M45.0717 44.3959l-6.8049.5607M46.0702 49.798l-3.0042-1.3367" opacity=".88"/>
    <path fill="#000" d="M46.0556 24.483c.602 0 1.09-.4926 1.09-1.1002s-.488-1.1002-1.09-1.1002-1.09.4926-1.09 1.1002.488 1.1002 1.09 1.1002M39.4057 22.2382c.602 0 1.09-.4926 1.09-1.1002s-.488-1.1002-1.09-1.1002-1.09.4926-1.09 1.1002.488 1.1002 1.09 1.1002M19.9435 25.6503c.602 0 1.0901-.4925 1.0901-1.1002 0-.6076-.4881-1.1001-1.0901-1.1001s-1.09.4925-1.09 1.1001c0 .6077.488 1.1002 1.09 1.1002M13.3666 32.9896c.602 0 1.09-.4926 1.09-1.1002s-.488-1.1002-1.09-1.1002-1.09.4926-1.09 1.1002.488 1.1002 1.09 1.1002M51.0385 30.063c.602 0 1.09-.4925 1.09-1.1001 0-.6077-.488-1.1002-1.09-1.1002s-1.09.4925-1.09 1.1002c0 .6076.488 1.1001 1.09 1.1001M41.9571 17.4955c.602 0 1.09-.4925 1.09-1.1001 0-.6077-.488-1.1002-1.09-1.1002s-1.09.4925-1.09 1.1002c0 .6076.488 1.1001 1.09 1.1001M30.2839 18.7729c.602 0 1.09-.4926 1.09-1.1002s-.488-1.1002-1.09-1.1002-1.0901.4926-1.0901 1.1002.4881 1.1002 1.0901 1.1002M15.6148 47.3698c.602 0 1.09-.4926 1.09-1.1002s-.488-1.1002-1.09-1.1002-1.09.4926-1.09 1.1002.488 1.1002 1.09 1.1002M21.4272 39.8006c.602 0 1.09-.4926 1.09-1.1002s-.488-1.1002-1.09-1.1002-1.09.4926-1.09 1.1002.488 1.1002 1.09 1.1002M18.3942 14.2708c.6254 0 1.1324-.5117 1.1324-1.143s-.507-1.1431-1.1324-1.1431c-.6255 0-1.1325.5118-1.1325 1.1431s.507 1.143 1.1325 1.143M32.3765 12.92c.6254 0 1.1324-.5118 1.1324-1.1431 0-.6312-.507-1.143-1.1324-1.143-.6255 0-1.1325.5118-1.1325 1.143 0 .6313.507 1.1431 1.1325 1.1431M23.4585 16.6336c.8058 0 1.459-.6593 1.459-1.4726s-.6532-1.4726-1.459-1.4726-1.459.6593-1.459 1.4726.6532 1.4726 1.459 1.4726M47.1861 18.0218c.8058 0 1.459-.6593 1.459-1.4726s-.6532-1.4727-1.459-1.4727-1.459.6594-1.459 1.4727.6532 1.4726 1.459 1.4726M49.6985 36.1544c.8058 0 1.459-.6594 1.459-1.4727s-.6532-1.4726-1.459-1.4726-1.459.6593-1.459 1.4726.6532 1.4727 1.459 1.4727M45.5552 33.8727c.3725 0 .6745-.3048.6745-.6809 0-.376-.302-.6808-.6745-.6808-.3726 0-.6746.3048-.6746.6808 0 .3761.302.6809.6746.6809M28.3141 14.2896c.3725 0 .6746-.3049.6746-.6809s-.3021-.6808-.6746-.6808c-.3726 0-.6746.3048-.6746.6808s.302.6809.6746.6809M22.0829 20.6929c.3725 0 .6745-.3048.6745-.6809 0-.376-.302-.6808-.6745-.6808-.3726 0-.6746.3048-.6746.6808 0 .3761.302.6809.6746.6809M11.041 23.0604c.3726 0 .6746-.3048.6746-.6808s-.302-.6809-.6746-.6809c-.3725 0-.6745.3049-.6745.6809s.302.6808.6745.6808M24.0411 9.89089c.3726 0 .6746-.30483.6746-.68086s-.302-.68086-.6746-.68086c-.3725 0-.6745.30483-.6745.68086s.302.68086.6745.68086M27.6963 12.1159c.3725 0 .6746-.3049.6746-.6809s-.3021-.6808-.6746-.6808c-.3726 0-.6746.3048-.6746.6808s.302.6809.6746.6809M36.7928 46.3634c.8058 0 1.459-.6594 1.459-1.4727s-.6532-1.4726-1.459-1.4726-1.4591.6593-1.4591 1.4726.6533 1.4727 1.4591 1.4727M20.4171 30.5555c.8058 0 1.4591-.6593 1.4591-1.4726 0-.8134-.6533-1.4727-1.4591-1.4727-.8057 0-1.459.6593-1.459 1.4727 0 .8133.6533 1.4726 1.459 1.4726M19.0637 34.3655c.4094 0 .7413-.335.7413-.7482 0-.4133-.3319-.7483-.7413-.7483s-.7413.335-.7413.7483c0 .4132.3319.7482.7413.7482M21.7953 35.087c.4094 0 .7413-.335.7413-.7482s-.3319-.7482-.7413-.7482-.7413.335-.7413.7482.3319.7482.7413.7482M15.9081 38.5308c.4094 0 .7413-.335.7413-.7483 0-.4132-.3319-.7482-.7413-.7482-.4095 0-.7414.335-.7414.7482 0 .4133.3319.7483.7414.7483M26.0492 22.5531c.4094 0 .7413-.335.7413-.7482 0-.4133-.3319-.7483-.7413-.7483s-.7413.335-.7413.7483c0 .4132.3319.7482.7413.7482M9.5443 30.4183c.4094 0 .7413-.335.7413-.7482s-.3319-.7482-.7413-.7482-.7413.335-.7413.7482.3319.7482.7413.7482M14.8329 28.3223c.4094 0 .7413-.335.7413-.7483 0-.4132-.3319-.7482-.7413-.7482s-.7413.335-.7413.7482c0 .4133.3319.7483.7413.7483M47.6097 41.3534c.4094 0 .7413-.335.7413-.7482 0-.4133-.3319-.7483-.7413-.7483s-.7413.335-.7413.7483c0 .4132.3319.7482.7413.7482M41.567 42.3989c.4094 0 .7413-.335.7413-.7482s-.3319-.7482-.7413-.7482-.7413.335-.7413.7482.3319.7482.7413.7482M45.5216 44.8109c.2521 0 .4565-.2062.4565-.4607 0-.2544-.2044-.4607-.4565-.4607s-.4564.2063-.4564.4607c0 .2545.2043.4607.4564.4607M46.471 50.4586c.2521 0 .4564-.2062.4564-.4607 0-.2544-.2043-.4607-.4564-.4607s-.4565.2063-.4565.4607c0 .2545.2044.4607.4565.4607M34.3958 54.9762c.2521 0 .4564-.2063.4564-.4607s-.2043-.4607-.4564-.4607-.4565.2063-.4565.4607.2044.4607.4565.4607M21.7088 52.3325c.252 0 .4564-.2062.4564-.4607 0-.2544-.2044-.4607-.4564-.4607-.2521 0-.4565.2063-.4565.4607 0 .2545.2044.4607.4565.4607M37.7912 49.1265c.252 0 .4564-.2063.4564-.4607 0-.2545-.2044-.4607-.4564-.4607-.2521 0-.4565.2062-.4565.4607 0 .2544.2044.4607.4565.4607M33.3422 49.1861c.2521 0 .4564-.2063.4564-.4607 0-.2545-.2043-.4608-.4564-.4608s-.4565.2063-.4565.4608c0 .2544.2044.4607.4565.4607M32.1529 43.4789c.252 0 .4564-.2063.4564-.4607s-.2044-.4607-.4564-.4607c-.2521 0-.4565.2063-.4565.4607s.2044.4607.4565.4607M34.7228 41.0468c.2521 0 .4564-.2063.4564-.4607 0-.2545-.2043-.4607-.4564-.4607s-.4564.2062-.4564.4607c0 .2544.2043.4607.4564.4607M44.5475 36.6693c.2521 0 .4564-.2062.4564-.4607 0-.2544-.2043-.4607-.4564-.4607s-.4564.2063-.4564.4607c0 .2545.2043.4607.4564.4607M53.2711 42.4417c.2521 0 .4565-.2063.4565-.4607 0-.2545-.2044-.4607-.4565-.4607-.252 0-.4564.2062-.4564.4607 0 .2544.2044.4607.4564.4607M43.0797 33.0344c.2521 0 .4565-.2062.4565-.4607 0-.2544-.2044-.4607-.4565-.4607s-.4564.2063-.4564.4607c0 .2545.2043.4607.4564.4607M42.1908 26.147c.2521 0 .4565-.2063.4565-.4607s-.2044-.4607-.4565-.4607-.4564.2063-.4564.4607.2043.4607.4564.4607M53.3397 20.3943c.2521 0 .4565-.2063.4565-.4607s-.2044-.4607-.4565-.4607c-.252 0-.4564.2063-.4564.4607s.2044.4607.4564.4607M55.9926 32.9007c.2521 0 .4564-.2063.4564-.4607 0-.2545-.2043-.4608-.4564-.4608s-.4565.2063-.4565.4608c0 .2544.2044.4607.4565.4607M46.4878 20.0217c.2521 0 .4565-.2062.4565-.4607 0-.2544-.2044-.4607-.4565-.4607s-.4564.2063-.4564.4607c0 .2545.2043.4607.4564.4607M48.3996 19.887c.252 0 .4564-.2063.4564-.4607 0-.2545-.2044-.4607-.4564-.4607-.2521 0-.4565.2062-.4565.4607 0 .2544.2044.4607.4565.4607M51.3927 17.3307c.2521 0 .4565-.2063.4565-.4607s-.2044-.4607-.4565-.4607-.4564.2063-.4564.4607.2043.4607.4564.4607M24.07 23.8197c.2521 0 .4564-.2062.4564-.4607 0-.2544-.2043-.4607-.4564-.4607s-.4565.2063-.4565.4607c0 .2545.2044.4607.4565.4607M22.1872 27.0925c.252 0 .4564-.2062.4564-.4607 0-.2544-.2044-.4607-.4564-.4607-.2521 0-.4565.2063-.4565.4607 0 .2545.2044.4607.4565.4607M11.7948 35.333c.2521 0 .4565-.2062.4565-.4607 0-.2544-.2044-.4607-.4565-.4607s-.4564.2063-.4564.4607c0 .2545.2043.4607.4564.4607M10.2562 38.3228c.2521 0 .4565-.2063.4565-.4607 0-.2545-.2044-.4607-.4565-.4607-.252 0-.4564.2062-.4564.4607 0 .2544.2044.4607.4564.4607M32.3168 7.79896c.2521 0 .4564-.20626.4564-.4607 0-.25443-.2043-.4607-.4564-.4607s-.4564.20627-.4564.4607c0 .25444.2043.4607.4564.4607M41.9354 12.1343c.2521 0 .4565-.2063.4565-.4607s-.2044-.4607-.4565-.4607c-.252 0-.4564.2063-.4564.4607s.2044.4607.4564.4607M23.8981 45.0143c.2521 0 .4564-.2063.4564-.4607s-.2043-.4607-.4564-.4607-.4564.2063-.4564.4607.2043.4607.4564.4607M25.2804 41.746c.2521 0 .4565-.2063.4565-.4607 0-.2545-.2044-.4607-.4565-.4607s-.4564.2062-.4564.4607c0 .2544.2043.4607.4564.4607M19.8018 45.1264c.8058 0 1.459-.6593 1.459-1.4726s-.6532-1.4726-1.459-1.4726-1.459.6593-1.459 1.4726.6532 1.4726 1.459 1.4726M41.4854 38.5069c.8058 0 1.459-.6593 1.459-1.4726s-.6532-1.4727-1.459-1.4727-1.459.6594-1.459 1.4727.6532 1.4726 1.459 1.4726M52.3474 25.2439c.4094 0 .7413-.335.7413-.7482 0-.4133-.3319-.7483-.7413-.7483s-.7413.335-.7413.7483c0 .4132.3319.7482.7413.7482M15.9293 20.6902c.4094 0 .7413-.335.7413-.7482 0-.4133-.3319-.7483-.7413-.7483s-.7413.335-.7413.7483c0 .4132.3319.7482.7413.7482M44.3633 29.9008c.3725 0 .6745-.3049.6745-.6809s-.302-.6808-.6745-.6808c-.3726 0-.6746.3048-.6746.6808s.302.6809.6746.6809M14.2421 42.8786c.3725 0 .6745-.3049.6745-.6809s-.302-.6809-.6745-.6809c-.3726 0-.6746.3049-.6746.6809s.302.6809.6746.6809M30.2124 51.6185c.3726 0 .6746-.3048.6746-.6808s-.302-.6809-.6746-.6809c-.3725 0-.6746.3049-.6746.6809s.3021.6808.6746.6808M42.4733 48.8497c.3725 0 .6745-.3048.6745-.6808s-.302-.6809-.6745-.6809c-.3726 0-.6746.3049-.6746.6809s.302.6808.6746.6808M31.3782 47.3709c.3725 0 .6745-.3049.6745-.6809s-.302-.6808-.6745-.6808c-.3726 0-.6746.3048-.6746.6808s.302.6809.6746.6809M41.163 9.28773c.2521 0 .4564-.20626.4564-.4607 0-.25443-.2043-.4607-.4564-.4607s-.4565.20627-.4565.4607c0 .25444.2044.4607.4565.4607M45.3397 11.5736c.2521 0 .4565-.2062.4565-.4607 0-.2544-.2044-.4607-.4565-.4607-.252 0-.4564.2063-.4564.4607 0 .2545.2044.4607.4564.4607" opacity=".88"/>
    <path fill="#000" d="M38.131 15.9474 24.6837 32.7787l6.1731.0442-4.7064 13.4226 13.7754-17.4539-6.2966.0231z"/>
</svg>
