<svg xmlns="http://www.w3.org/2000/svg" width="1539" height="1024" viewBox="0 0 1539 1024">
    <path d="M1201.664 320.34133A501.5893 501.5893 0 0 0 736.768.08533a506.19733 506.19733 0 0 0-500.736 481.87734 272.29867 272.29867 0 0 0 30.464 542.12266h386.90133V784.384H459.94667a47.27467 47.27467 0 0 1 0-67.49867l273.83466-296.10666a48.72533 48.72533 0 0 1 68.26667 0l273.92 296.10666a47.44533 47.44533 0 0 1 0 67.49867h-193.28v239.70133h308.65067a352.08533 352.08533 0 0 0 10.41066-703.744z"/>
</svg>
