<svg class="icon" viewBox="0 0 1024 1024" version="1.1" xmlns="http://www.w3.org/2000/svg" p-id="5384"
     >
  <path
    d="M672 704c-7.786667 0-15.68-2.88-21.76-8.64-12.906667-12.053333-13.653333-32.32-1.6-45.226667C684.266667 611.946667 704 562.88 704 512c0-50.773333-19.733333-99.946667-55.36-138.133333-12.053333-12.906667-11.413333-33.173333 1.6-45.226667 12.906667-12.053333 33.066667-11.306667 45.226667 1.6 46.72 50.133333 72.533333 114.666667 72.533333 181.76 0 67.093333-25.813333 131.733333-72.64 181.76-6.293333 6.826667-14.826667 10.24-23.36 10.24z"
    ></path>
  <path
    d="M767.573333 880c-9.28 0-18.56-4.053333-24.853333-11.84-11.093333-13.76-8.96-33.92 4.8-45.013333C841.92 746.773333 896 633.28 896 512c0-121.173333-53.973333-234.453333-148.16-310.826667-13.653333-11.093333-15.786667-31.253333-4.693333-45.013333 11.2-13.76 31.36-15.786667 45.013333-4.693333C897.386667 240.106667 960 371.52 960 512c0 140.8-62.826667 272.213333-172.266667 360.853333-5.973333 4.8-13.12 7.146667-20.16 7.146667zM544 928c-8.106667 0-16-3.093333-22.08-8.853333l-221.546667-211.2c-2.773333-1.493333-11.093333-4.053333-19.52-4.053334H165.333333c-55.893333 0-101.333333-43.093333-101.333333-96V416c0-52.906667 45.44-96 101.333333-96h115.52c8.426667 0 16.746667-2.56 23.36-7.146667l217.6-208c9.386667-8.853333 22.933333-11.306667 34.666667-6.293333 11.733333 5.013333 19.413333 16.64 19.413333 29.44v768c0 12.8-7.573333 24.426667-19.413333 29.44-3.946667 1.706667-8.213333 2.56-12.48 2.56zM165.333333 384c-20.586667 0-37.333333 14.293333-37.333333 32v192c0 17.6 16.746667 32 37.333333 32h115.52c21.333333 0 42.666667 6.613333 59.84 18.453333L512 821.333333V202.666667L344.64 362.346667c-21.12 15.146667-42.346667 21.653333-63.68 21.653333H165.333333z"
    ></path>
</svg>
