<svg xmlns="http://www.w3.org/2000/svg" class="icon" viewBox="0 0 1024 1024">
    <path d="M672 704c-7.78667 0-15.68-2.88-21.76-8.64-12.90667-12.05333-13.65333-32.32-1.6-45.22667C684.26667 611.94667 704 562.88 704 512c0-50.77333-19.73333-99.94667-55.36-138.13333-12.05333-12.90667-11.41333-33.17334 1.6-45.22667 12.90667-12.05333 33.06667-11.30667 45.22667 1.6C742.18667 380.37333 768 444.90667 768 512s-25.81333 131.73333-72.64 181.76C689.06667 700.58667 680.53333 704 672 704"/>
    <path d="M767.57333 880c-9.28 0-18.56-4.05333-24.85333-11.84-11.09333-13.76-8.96-33.92 4.8-45.01333C841.92 746.77333 896 633.28 896 512c0-121.17333-53.97333-234.45333-148.16-310.82667C734.18667 190.08 732.05333 169.92 743.14667 156.16c11.2-13.76 31.36-15.78667 45.01333-4.69333C897.38667 240.10667 960 371.52 960 512c0 140.8-62.82667 272.21333-172.26667 360.85333-5.97333 4.8-13.12 7.14667-20.16 7.14667M544 928c-8.10667 0-16-3.09333-22.08-8.85333l-221.54667-211.2c-2.77333-1.49334-11.09333-4.05334-19.52-4.05334h-115.52C109.44 703.89333 64 660.8 64 607.89333V416c0-52.90667 45.44-96 101.33333-96h115.52c8.42667 0 16.74667-2.56 23.36-7.14667l217.6-208C531.2 96 544.74667 93.54667 556.48 98.56s19.41333 16.64 19.41333 29.44v768c0 12.8-7.57333 24.42667-19.41333 29.44-3.94667 1.70667-8.21333 2.56-12.48 2.56M165.33333 384C144.74667 384 128 398.29333 128 416v192c0 17.6 16.74667 32 37.33333 32h115.52c21.33334 0 42.66667 6.61333 59.84 18.45333L512 821.33333V202.66667l-167.36 159.68C323.52 377.49333 302.29333 384 280.96 384z"/>
</svg>
