<svg class="icon" viewBox="0 0 1024 1024" version="1.1" xmlns="http://www.w3.org/2000/svg" p-id="9360"
     width="512" height="512">
  <path
    d="M719.7 957.4c-15 0.1-29.3-5.8-39.9-16.4L326.9 619l-77.5 58.8-76.3 57.8a37 37 0 0 1-24.2 7.6c-8.7-0.4-17-3.8-23.4-9.7l-49.3-44.8C61 674.8 59.9 651.2 73.7 636c0.8-0.9 1.6-1.7 2.5-2.5l133.3-121.6-62.4-57.1-70.8-64.6c-15.2-13.9-16.3-37.4-2.5-52.7 0.8-0.9 1.6-1.7 2.5-2.5l49.3-44.8c13.3-12.1 33.4-13.1 47.7-2.2L327 404.7 679.8 82.9A55.69 55.69 0 0 1 721 66.6c7.9 0.2 15.7 2 22.8 5.5l184.5 88.7c19.4 9.3 31.7 29 31.7 50.5v2.2-1 599-1 2.1c0 21.5-12.3 41.2-31.7 50.6l-184.5 88.7c-7.5 3.6-15.8 5.5-24.1 5.5z m16-648.4L468.1 512l267.7 203.1v-406z"
    ></path>
</svg>
