<svg class="icon" viewBox="0 0 1024 1024" version="1.1" xmlns="http://www.w3.org/2000/svg"
    width="512" height="512">
  <path
    d="M0 0v1024h1024V0H0z m763.264 123.264c61.610667 0 113.792 18.944 156.458667 54.528l-47.402667 71.125333c-37.930667-26.069333-73.472-42.666667-109.056-42.666666s-54.528 16.597333-54.528 37.930666v2.389334c0 28.458667 18.944 37.930667 90.069333 56.874666 85.333333 23.722667 132.736 54.528 132.736 128v2.389334c0 85.333333-64 132.736-154.069333 132.736-64-2.389333-128-26.069333-177.792-71.125334l54.528-66.389333c37.930667 30.805333 78.208 52.138667 125.610667 52.138667 37.930667 0 59.264-14.208 59.264-40.277334v-2.389333c0-23.722667-14.208-35.541333-85.333334-54.528-85.333333-21.333333-137.472-45.056-137.472-130.389333v-2.389334c0-78.208 61.610667-128 146.944-128z m-687.402667 9.472h97.194667l64 246.528 73.472-246.528h71.125333l71.125334 246.528 64-246.528h99.541333l-120.874667 424.277333H414.848L346.112 310.485333l-71.125333 246.528H196.778667L75.904 132.736z m21.333334 699.264h384V896h-384v-64z"
    ></path>
</svg>
