<svg xmlns="http://www.w3.org/2000/svg" width="512" height="512" class="icon" viewBox="0 0 1024 1024">
    <path d="M0 0v1024h1024V0zm763.264 123.264c61.61067 0 113.792 18.944 156.45867 54.528L872.32 248.91733c-37.93067-26.06933-73.472-42.66666-109.056-42.66666s-54.528 16.59733-54.528 37.93066v2.38934c0 28.45866 18.944 37.93066 90.06933 56.87466 85.33334 23.72267 132.736 54.528 132.736 128v2.38934c0 85.33333-64 132.736-154.06933 132.736-64-2.38934-128-26.06934-177.792-71.12534l54.528-66.38933c37.93067 30.80533 78.208 52.13867 125.61067 52.13867 37.93066 0 59.264-14.208 59.264-40.27734V438.528c0-23.72267-14.208-35.54133-85.33334-54.528-85.33333-21.33333-137.472-45.056-137.472-130.38933v-2.38934c0-78.208 61.61067-128 146.944-128zm-687.40267 9.472H173.056l64 246.528 73.472-246.528h71.12533l71.12534 246.528 64-246.528H616.32L495.44533 557.01333H414.848l-68.736-246.528-71.12533 246.528h-78.208L75.904 132.736zM97.19467 832h384v64h-384z"/>
</svg>
